<?xml version="1.0" encoding="utf-8"?>
<!-- Generator: Adobe Illustrator 16.0.0, SVG Export Plug-In . SVG Version: 6.00 Build 0)  -->
<!DOCTYPE svg PUBLIC "-//W3C//DTD SVG 1.1//EN" "http://www.w3.org/Graphics/SVG/1.1/DTD/svg11.dtd">
<svg version="1.1" id="Layer_1" xmlns="http://www.w3.org/2000/svg" xmlns:xlink="http://www.w3.org/1999/xlink" x="0px" y="0px"
	 width="29.352px" height="28.102px" viewBox="0 0 29.352 28.102" enable-background="new 0 0 29.352 28.102" xml:space="preserve">
<path fill="#000101" d="M6.447,2.276c2.042-0.279,4.167,0.158,5.963,1.161c-0.331,0.124-0.636,0.308-0.908,0.532
	C15.135,2.817,19.201,3.1,22.661,4.68c1.217,0.596,2.357,1.465,3.009,2.677c0.511,0.949,0.674,2.073,0.496,3.132
	c-0.053,0.229,0.135,0.412,0.264,0.576c0.557,0.602,1.369,0.966,1.792,1.688c0.175,0.379-0.264,0.612-0.582,0.603
	c-1.451,0.065-2.811-0.548-4.138-1.054c-1.286-0.489-2.604-0.894-3.948-1.2c-0.408,1.514-1.659,2.631-2.984,3.372
	c-0.563,0.275-1.181,0.646-1.83,0.519c-0.119-0.187,0.11-0.387,0.205-0.546c0.7-0.907,1.364-1.989,1.229-3.184
	c-0.089,0.396-0.146,0.824-0.377,1.165c-0.953,0.607-2.058,1.045-3.196,1.079c-0.19,0.02-0.672-0.048-0.419-0.318
	c0.736-0.661,1.557-1.323,1.87-2.305c0.227-0.098,0.462-0.172,0.704-0.223c-2.588,0.053-5.216,1.198-6.752,3.332
	c-1.494,2.042-2.126,4.597-2.258,7.094c0.133-0.354,0.237-0.719,0.355-1.077c0.857,0.316,1.72,0.642,2.496,1.133
	c0.812,0.483,1.443,1.301,1.542,2.26c-1.217-0.325-2.547,0.391-3.704-0.301c-0.158,0.244-0.373,0.449-0.631,0.585
	c-1.439,0.731-3.237,0.271-4.603,1.188C0.93,24.02,1.175,23.09,1.673,22.371c0.592-0.904,1.465-1.562,2.263-2.271
	c-1.157-4.485-0.34-9.685,2.952-13.099c0.822-0.745,1.329-2.042,0.651-3.042C7.085,3.215,6.142,3.137,5.49,2.699
	C5.685,2.37,6.112,2.355,6.447,2.276z"/>
</svg>
