<?xml version="1.0" encoding="utf-8"?>
<!-- Generator: Adobe Illustrator 16.0.0, SVG Export Plug-In . SVG Version: 6.00 Build 0)  -->
<!DOCTYPE svg PUBLIC "-//W3C//DTD SVG 1.1//EN" "http://www.w3.org/Graphics/SVG/1.1/DTD/svg11.dtd">
<svg version="1.1" id="Layer_1" xmlns="http://www.w3.org/2000/svg" xmlns:xlink="http://www.w3.org/1999/xlink" x="0px" y="0px"
	 width="29.352px" height="28.102px" viewBox="0 0 29.352 28.102" enable-background="new 0 0 29.352 28.102" xml:space="preserve">
<g>
	<path d="M18.848,3.058c1.128,0.023,2.579-0.344,3.408,0.645c0.709-0.01,1.674-0.344,2.119,0.403
		c0.504,0.71-0.244,1.469-0.667,2.008c-0.097,0.509-0.261,1.042-0.548,1.468c0.125-0.466,0.389-0.901,0.434-1.39
		c-0.217,0.431-0.436,0.874-0.769,1.229c0.185-0.353,0.428-0.675,0.579-1.046c-0.396,0.426-0.901,0.736-1.335,1.129
		c0.076,1.293,0.691,2.474,1.045,3.703c0.446,1.409,0.543,2.906,0.438,4.373c0.119,1.424,0.438,2.819,0.731,4.216
		c0.595,2.083,2.533,3.3,4.232,4.426c0.378,0.209,0.042,0.653-0.3,0.471c-1.493-0.824-3.052-1.521-4.531-2.369
		c-0.617-0.388-1.283-0.868-1.463-1.619c-0.367,0.93-1.462,1.161-2.356,1.15c0.397,0.415,0.812,0.825,1.335,1.082
		c0.613,0.342,1.405,0.586,1.682,1.3c0.143,0.363-0.246,0.644-0.549,0.731c-0.559,0.103-1.085-0.406-1.639-0.156
		c-0.592,0.283-1.254,0.12-1.85-0.057c-0.658,0.152-1.436,0.26-1.991-0.226c-0.439,0.093-0.905,0.068-1.31-0.139
		c-0.447,0.113-1.035,0.182-1.344-0.241c-0.307-0.471-0.272-1.062-0.373-1.595c-0.106-0.008-0.212-0.016-0.318-0.024
		c-0.623,0.483-1.515,0.567-2.254,0.402c-0.313,0.266-0.725,0.123-1.089,0.119c-0.705,0.154-1.466,0.334-1.981,0.879
		c-0.919,0.853-1.98,1.557-3.136,2.043c-0.283,0.125-0.553-0.121-0.716-0.332c-0.447,0.533-1.329,0.56-1.729-0.042
		c-0.449-0.141-0.949-0.177-1.357-0.414c-0.471,0.277-0.878-0.41-0.271-0.541c0.044-0.028,0.044-0.028,0.044-0.028
		c1.247-0.592,2.573-0.981,3.894-1.368c1.205-0.352,2.159-1.274,2.801-2.324c0.932-1.245,1.823-2.53,2.931-3.628
		c0.89-0.891,1.827-1.755,2.552-2.792c0.402-0.968,0.757-1.986,1.454-2.791c0.797-0.922,1.128-2.163,1.143-3.363
		c0.077-0.782,0.067-1.594,0.39-2.327c0.208-0.544,0.646-0.95,0.908-1.464C17.539,3.94,18.05,3.209,18.848,3.058z"/>
	<path d="M23.041,6.772"/>
	<path d="M22.945,6.941"/>
	<path d="M23.115,7.651"/>
</g>
</svg>
