<?xml version="1.0" standalone="no"?>
<!DOCTYPE svg PUBLIC "-//W3C//DTD SVG 1.1//EN" "http://www.w3.org/Graphics/SVG/1.1/DTD/svg11.dtd" >
<svg xmlns="http://www.w3.org/2000/svg" xmlns:xlink="http://www.w3.org/1999/xlink" version="1.1">
<metadata>
Created by FontForge 20170924 at Tue Sep 29 04:38:22 2015
 By www-data
Copyright (c) 2015 by Svetlin Balezdrov and Svet Simov. All rights reserved.
</metadata>
<defs>
<font id="Simbal-Regular" horiz-adv-x="545" >
  <font-face 
    font-family="Simbal"
    font-weight="400"
    font-stretch="normal"
    units-per-em="1000"
    panose-1="0 0 5 0 0 0 0 0 0 0"
    ascent="750"
    descent="-250"
    x-height="504"
    cap-height="700"
    bbox="-475 -250 1028 967"
    underline-thickness="50"
    underline-position="-100"
    unicode-range="U+0020-FB02"
  />
<missing-glyph horiz-adv-x="600" 
d="M37 700h538v-700h-538v700zM316 252q1 16 8 30q10 20 22.5 35t36.5 40q35 36 52.5 65t17.5 71q0 57 -43 89.5t-101 32.5q-35 0 -71.5 -9.5t-59.5 -29.5v-63q22 20 56.5 31.5t67.5 11.5q40 0 62.5 -19t19.5 -59q-1 -24 -14.5 -43.5t-40.5 -47.5q-28 -30 -43 -50.5
t-24 -47.5q-4 -13 -4 -33l1 -25q1 -8 1 -23h55q0 28 1 44zM318.5 156q-7.5 11 -30.5 11q-22 0 -30 -11.5t-8 -32.5t8.5 -32.5t29.5 -11.5q23 0 30.5 10.5t7.5 33.5q0 22 -7.5 33z" />
    <glyph glyph-name="fi" unicode="fi" horiz-adv-x="558" 
d="M202 627.5q19 17.5 56 17.5q67 0 160 -52v77q-93 45 -173 45q-65 0 -102 -35.5t-37 -95.5v-80h-74v-70h74v-434h77v434h114v70h-114v80q0 26 19 43.5zM396 504h77v-504h-77v504z" />
    <glyph glyph-name="fl" unicode="fl" horiz-adv-x="569" 
d="M364.5 699q54.5 -16 108.5 -58v-641h-77v612q-30 18 -61.5 25.5t-76.5 7.5q-37 0 -56 -17.5t-19 -43.5v-80h114v-70h-114v-434h-77v434h-74v70h74v80q0 60 37 95.5t102 35.5t119.5 -16z" />
    <glyph glyph-name=".notdef" horiz-adv-x="600" 
d="M37 700h538v-700h-538v700zM316 252q1 16 8 30q10 20 22.5 35t36.5 40q35 36 52.5 65t17.5 71q0 57 -43 89.5t-101 32.5q-35 0 -71.5 -9.5t-59.5 -29.5v-63q22 20 56.5 31.5t67.5 11.5q40 0 62.5 -19t19.5 -59q-1 -24 -14.5 -43.5t-40.5 -47.5q-28 -30 -43 -50.5
t-24 -47.5q-4 -13 -4 -33l1 -25q1 -8 1 -23h55q0 28 1 44zM318.5 156q-7.5 11 -30.5 11q-22 0 -30 -11.5t-8 -32.5t8.5 -32.5t29.5 -11.5q23 0 30.5 10.5t7.5 33.5q0 22 -7.5 33z" />
    <glyph glyph-name="space" unicode=" " horiz-adv-x="300" 
 />
    <glyph glyph-name="A" unicode="A" horiz-adv-x="652" 
d="M109 0h-91l296 712h19l301 -712h-96l-60 148h-309zM323 530l-124 -307h248z" />
    <glyph glyph-name="Aacute" unicode="&#xc1;" horiz-adv-x="652" 
d="M109 0h-91l296 712h19l301 -712h-96l-60 148h-309zM323 530l-124 -307h248zM451 861l-147 -103l-36 41l136 117z" />
    <glyph glyph-name="Abreve" unicode="&#x102;" horiz-adv-x="652" 
d="M109 0h-91l296 712h19l301 -712h-96l-60 148h-309zM323 530l-124 -307h248zM241 887q8 -30 31.5 -47t51.5 -17t51.5 17t30.5 47l54 -14q-11 -53 -50 -82t-87 -29t-85.5 29t-48.5 82z" />
    <glyph glyph-name="Acircumflex" unicode="&#xc2;" horiz-adv-x="652" 
d="M109 0h-91l296 712h19l301 -712h-96l-60 148h-309zM323 530l-124 -307h248zM326 838l-114 -77l-32 41l136 106h18l134 -107l-30 -40z" />
    <glyph glyph-name="Adieresis" unicode="&#xc4;" horiz-adv-x="652" 
d="M109 0h-91l296 712h19l301 -712h-96l-60 148h-309zM323 530l-124 -307h248zM194 788q-12 8 -12 34q0 24 13 33t36 9t36 -9t13 -33q0 -26 -12 -34t-37 -8t-37 8zM379 788q-12 8 -12 34q0 24 13 33t36 9t36.5 -9t13.5 -33q0 -26 -12.5 -34t-37.5 -8t-37 8z" />
    <glyph glyph-name="Agrave" unicode="&#xc0;" horiz-adv-x="652" 
d="M109 0h-91l296 712h19l301 -712h-96l-60 148h-309zM323 530l-124 -307h248zM255 918l136 -117l-36 -41l-148 102z" />
    <glyph glyph-name="Amacron" unicode="&#x100;" horiz-adv-x="652" 
d="M109 0h-91l296 712h19l301 -712h-96l-60 148h-309zM323 530l-124 -307h248zM183 857v-62h281v62h-281z" />
    <glyph glyph-name="Aogonek" unicode="&#x104;" horiz-adv-x="652" 
d="M109 0h-91l296 712h19l301 -712h-96l-60 148h-309zM323 530l-124 -307h248zM488.5 -66.5q-15.5 -33.5 -15.5 -64.5q0 -36 17 -58t53 -22q19 0 39.5 7t34.5 18l-9 54q-9 -7 -22 -11.5t-24 -4.5q-16 0 -23.5 9.5t-7.5 24.5q0 26 21 59t45 55h-59q-34 -33 -49.5 -66.5z" />
    <glyph glyph-name="Aring" unicode="&#xc5;" horiz-adv-x="652" 
d="M634 0h-96l-60 148h-309l-60 -148h-91l281 675q-38 7 -62.5 31.5t-24.5 64.5q0 47 32.5 73.5t77.5 26.5t78.5 -26.5t33.5 -73.5q0 -38 -24 -63.5t-61 -32.5zM282.5 731q17.5 -14 40.5 -14q24 0 41 14t17 40q0 28 -17.5 42.5t-41.5 14.5q-23 0 -40 -15t-17 -42
q0 -26 17.5 -40zM447 223l-124 307l-124 -307h248z" />
    <glyph glyph-name="Aringacute" unicode="&#x1fa;" horiz-adv-x="652" 
d="M297 872l-20 38l125 57l27 -54zM634 0h-96l-60 148h-309l-60 -148h-91l281 676q-34 6 -55.5 29t-21.5 56q0 40 28.5 65t71.5 25t72.5 -25t29.5 -65q0 -33 -21 -56t-54 -30zM289.5 729.5q14.5 -12.5 33.5 -12.5t33.5 12.5t14.5 31.5q0 20 -15 33.5t-34 13.5t-33 -13.5
t-14 -33.5q0 -19 14.5 -31.5zM447 223l-124 307l-124 -307h248z" />
    <glyph glyph-name="Atilde" unicode="&#xc3;" horiz-adv-x="652" 
d="M109 0h-91l296 712h19l301 -712h-96l-60 148h-309zM323 530l-124 -307h248zM185 789q15 36 34.5 52.5t44.5 16.5q29 0 71 -21q30 -16 46 -16q24 0 39 33l43 -23q-16 -35 -35 -51.5t-43 -16.5q-25 0 -63 19q-18 9 -29.5 13.5t-22.5 4.5q-27 0 -43 -35z" />
    <glyph glyph-name="AE" unicode="&#xc6;" horiz-adv-x="795" 
d="M749 76v-76h-360v148h-211l-77 -148h-96l383 700h351v-76h-266v-218h244v-76h-244v-254h276zM389 223v332l-172 -332h172z" />
    <glyph glyph-name="AEacute" unicode="&#x1fc;" horiz-adv-x="795" 
d="M749 76v-76h-360v148h-211l-77 -148h-96l383 700h351v-76h-266v-218h244v-76h-244v-254h276zM389 223v332l-172 -332h172zM583 851l-147 -103l-36 41l136 117z" />
    <glyph glyph-name="B" unicode="B" horiz-adv-x="582" 
d="M490 311.5q32 -45.5 32 -113.5q0 -104 -63.5 -151t-172.5 -47h-190v700h180q93 0 153 -44.5t60 -135.5q0 -50 -24.5 -87t-70.5 -58q64 -18 96 -63.5zM180 406h96q55 0 88 27.5t33 81.5q0 57 -31.5 82.5t-89.5 26.5h-96v-218zM180 76h106q71 0 106.5 30t35.5 97
q0 125 -152 127h-96v-254z" />
    <glyph glyph-name="C" unicode="C" horiz-adv-x="533" 
d="M421.5 631q25.5 -7 55.5 -29v87q-54 25 -122 25q-151 0 -220.5 -102t-69.5 -262t69.5 -262t220.5 -102q37 0 74 9t68 26v85q-62 -44 -142 -44q-73 0 -118.5 42.5t-65 107.5t-19.5 138t19.5 138t65.5 107.5t119 42.5q40 0 65.5 -7z" />
    <glyph glyph-name="Cacute" unicode="&#x106;" horiz-adv-x="533" 
d="M421.5 631q25.5 -7 55.5 -29v87q-54 25 -122 25q-151 0 -220.5 -102t-69.5 -262t69.5 -262t220.5 -102q37 0 74 9t68 26v85q-62 -44 -142 -44q-73 0 -118.5 42.5t-65 107.5t-19.5 138t19.5 138t65.5 107.5t119 42.5q40 0 65.5 -7zM451 865l-147 -103l-36 41l136 117z" />
    <glyph glyph-name="Ccaron" unicode="&#x10c;" horiz-adv-x="533" 
d="M421.5 631q25.5 -7 55.5 -29v87q-54 25 -122 25q-151 0 -220.5 -102t-69.5 -262t69.5 -262t220.5 -102q37 0 74 9t68 26v85q-62 -44 -142 -44q-73 0 -118.5 42.5t-65 107.5t-19.5 138t19.5 138t65.5 107.5t119 42.5q40 0 65.5 -7zM468 872l-134 -107h-18l-136 106l32 41
l114 -77l112 77z" />
    <glyph glyph-name="Ccedilla" unicode="&#xc7;" horiz-adv-x="533" 
d="M354 -14l-14 -33q37 -5 55.5 -26.5t18.5 -50.5q0 -34 -24 -59.5t-65 -25.5q-46 0 -84 30l20 45q8 -9 24 -15.5t31 -6.5q14 1 23 7.5t12 16.5q2 10 2 13q0 21 -22.5 29.5t-48.5 9.5l27 69q-127 16 -185.5 115t-58.5 246q0 160 69.5 262t220.5 102q68 0 122 -25v-87
q-30 22 -55.5 29t-65.5 7q-73 0 -119 -42.5t-65.5 -107.5t-19.5 -138t19.5 -138t65 -107.5t118.5 -42.5q80 0 142 44v-85q-31 -17 -68 -26t-74 -9h-1z" />
    <glyph glyph-name="Ccircumflex" unicode="&#x108;" horiz-adv-x="533" 
d="M421.5 631q25.5 -7 55.5 -29v87q-54 25 -122 25q-151 0 -220.5 -102t-69.5 -262t69.5 -262t220.5 -102q37 0 74 9t68 26v85q-62 -44 -142 -44q-73 0 -118.5 42.5t-65 107.5t-19.5 138t19.5 138t65.5 107.5t119 42.5q40 0 65.5 -7zM326 842l-114 -77l-32 41l136 106h18
l134 -107l-30 -40z" />
    <glyph glyph-name="Cdotaccent" unicode="&#x10a;" horiz-adv-x="533" 
d="M421.5 631q25.5 -7 55.5 -29v87q-54 25 -122 25q-151 0 -220.5 -102t-69.5 -262t69.5 -262t220.5 -102q37 0 74 9t68 26v85q-62 -44 -142 -44q-73 0 -118.5 42.5t-65 107.5t-19.5 138t19.5 138t65.5 107.5t119 42.5q40 0 65.5 -7zM283 803.5q-13 8.5 -13 37.5
q0 26 14.5 36t39.5 10q26 0 40 -10t14 -36q0 -29 -13 -37.5t-41 -8.5t-41 8.5z" />
    <glyph glyph-name="D" unicode="D" horiz-adv-x="647" 
d="M439 49.5q71 49.5 107 129.5t36 171t-36 171t-107.5 129.5t-173.5 49.5h-169v-700h171q101 0 172 49.5zM390.5 587q51.5 -37 78 -99.5t26.5 -137.5t-26.5 -137.5t-78 -99.5t-123.5 -37h-87v548h86q73 0 124.5 -37z" />
    <glyph glyph-name="Eth" unicode="&#xd0;" horiz-adv-x="647" 
d="M438.5 650.5q71.5 -49.5 107.5 -129.5t36 -171t-36 -171t-107 -129.5t-172 -49.5h-171v319h-90v62h90v319h169q102 0 173.5 -49.5zM390.5 113q51.5 37 78 99.5t26.5 137.5t-26.5 137.5t-78 99.5t-124.5 37h-86v-243h130v-62h-130v-243h87q72 0 123.5 37z" />
    <glyph glyph-name="Dcaron" unicode="&#x10e;" horiz-adv-x="647" 
d="M439 49.5q71 49.5 107 129.5t36 171t-36 171t-107.5 129.5t-173.5 49.5h-169v-700h171q101 0 172 49.5zM390.5 587q51.5 -37 78 -99.5t26.5 -137.5t-26.5 -137.5t-78 -99.5t-123.5 -37h-87v548h86q73 0 124.5 -37zM441 858l-134 -107h-18l-136 106l32 41l114 -77l112 77z
" />
    <glyph glyph-name="Dcroat" unicode="&#x110;" horiz-adv-x="647" 
d="M438.5 650.5q71.5 -49.5 107.5 -129.5t36 -171t-36 -171t-107 -129.5t-172 -49.5h-171v319h-90v62h90v319h169q102 0 173.5 -49.5zM390.5 113q51.5 37 78 99.5t26.5 137.5t-26.5 137.5t-78 99.5t-124.5 37h-86v-243h130v-62h-130v-243h87q72 0 123.5 37z" />
    <glyph glyph-name="E" unicode="E" horiz-adv-x="522" 
d="M96 700h370v-76h-286v-218h264v-76h-264v-254h296v-76h-380v700z" />
    <glyph glyph-name="Eacute" unicode="&#xc9;" horiz-adv-x="522" 
d="M96 700h370v-76h-286v-218h264v-76h-264v-254h296v-76h-380v700zM408 851l-147 -103l-36 41l136 117z" />
    <glyph glyph-name="Ebreve" unicode="&#x114;" horiz-adv-x="522" 
d="M96 700h370v-76h-286v-218h264v-76h-264v-254h296v-76h-380v700zM198 877q8 -30 31.5 -47t51.5 -17t51.5 17t30.5 47l54 -14q-11 -53 -50 -82t-87 -29t-85.5 29t-48.5 82z" />
    <glyph glyph-name="Ecaron" unicode="&#x11a;" horiz-adv-x="522" 
d="M96 700h370v-76h-286v-218h264v-76h-264v-254h296v-76h-380v700zM425 858l-134 -107h-18l-136 106l32 41l114 -77l112 77z" />
    <glyph glyph-name="Ecircumflex" unicode="&#xca;" horiz-adv-x="522" 
d="M96 700h370v-76h-286v-218h264v-76h-264v-254h296v-76h-380v700zM283 828l-114 -77l-32 41l136 106h18l134 -107l-30 -40z" />
    <glyph glyph-name="Edieresis" unicode="&#xcb;" horiz-adv-x="522" 
d="M96 700h370v-76h-286v-218h264v-76h-264v-254h296v-76h-380v700zM151 793q-12 8 -12 34q0 24 13 33t36 9t36 -9t13 -33q0 -26 -12 -34t-37 -8t-37 8zM336 793q-12 8 -12 34q0 24 13 33t36 9t36.5 -9t13.5 -33q0 -26 -12.5 -34t-37.5 -8t-37 8z" />
    <glyph glyph-name="Edotaccent" unicode="&#x116;" horiz-adv-x="522" 
d="M96 700h370v-76h-286v-218h264v-76h-264v-254h296v-76h-380v700zM240 789.5q-13 8.5 -13 37.5q0 26 14.5 36t39.5 10q26 0 40 -10t14 -36q0 -29 -13 -37.5t-41 -8.5t-41 8.5z" />
    <glyph glyph-name="Egrave" unicode="&#xc8;" horiz-adv-x="522" 
d="M96 700h370v-76h-286v-218h264v-76h-264v-254h296v-76h-380v700zM212 908l136 -117l-36 -41l-148 102z" />
    <glyph glyph-name="Emacron" unicode="&#x112;" horiz-adv-x="522" 
d="M96 700h370v-76h-286v-218h264v-76h-264v-254h296v-76h-380v700zM140 872v-62h281v62h-281z" />
    <glyph glyph-name="Eogonek" unicode="&#x118;" horiz-adv-x="522" 
d="M415.5 -52.5q-25.5 -33.5 -25.5 -61.5q0 -15 7.5 -24.5t23.5 -9.5q11 0 24 4.5t22 11.5l9 -54q-14 -11 -34.5 -18t-39.5 -7q-36 0 -53 22t-17 58q0 72 75 131h-311v700h370v-76h-286v-218h264v-76h-264v-254h296v-76q-35 -19 -60.5 -52.5z" />
    <glyph glyph-name="F" unicode="F" horiz-adv-x="488" 
d="M96 700h355v-76h-271v-242h249v-76h-249v-306h-84v700z" />
    <glyph glyph-name="G" unicode="G" horiz-adv-x="595" 
d="M524 19q-30 -16 -69.5 -24.5t-77.5 -8.5q-104 0 -174 49t-104 131.5t-34 182.5q0 101 34.5 184t104.5 132t173 49q72 0 127 -27v-86q-31 21 -59 29t-67 8q-73 0 -124 -42.5t-76.5 -109t-25.5 -137.5q0 -70 25 -136t76 -108.5t124 -42.5q34 0 63 7v267h84v-317z" />
    <glyph glyph-name="Gbreve" unicode="&#x11e;" horiz-adv-x="595" 
d="M524 19q-30 -16 -69.5 -24.5t-77.5 -8.5q-104 0 -174 49t-104 131.5t-34 182.5q0 101 34.5 184t104.5 132t173 49q72 0 127 -27v-86q-31 21 -59 29t-67 8q-73 0 -124 -42.5t-76.5 -109t-25.5 -137.5q0 -70 25 -136t76 -108.5t124 -42.5q34 0 63 7v267h84v-317zM266 877
q8 -30 31.5 -47t51.5 -17t51.5 17t30.5 47l54 -14q-11 -53 -50 -82t-87 -29t-85.5 29t-48.5 82z" />
    <glyph glyph-name="Gcircumflex" unicode="&#x11c;" horiz-adv-x="595" 
d="M524 19q-30 -16 -69.5 -24.5t-77.5 -8.5q-104 0 -174 49t-104 131.5t-34 182.5q0 101 34.5 184t104.5 132t173 49q72 0 127 -27v-86q-31 21 -59 29t-67 8q-73 0 -124 -42.5t-76.5 -109t-25.5 -137.5q0 -70 25 -136t76 -108.5t124 -42.5q34 0 63 7v267h84v-317zM351 828
l-114 -77l-32 41l136 106h18l134 -107l-30 -40z" />
    <glyph glyph-name="Gcommaaccent" unicode="&#x122;" horiz-adv-x="595" 
d="M524 19q-30 -16 -69.5 -24.5t-77.5 -8.5q-104 0 -174 49t-104 131.5t-34 182.5q0 101 34.5 184t104.5 132t173 49q72 0 127 -27v-86q-31 21 -59 29t-67 8q-73 0 -124 -42.5t-76.5 -109t-25.5 -137.5q0 -70 25 -136t76 -108.5t124 -42.5q34 0 63 7v267h84v-317zM397 -116
q0 28 -8 41t-34 13t-35.5 -13t-9.5 -38q0 -22 7.5 -36t26.5 -16q0 -19 -9 -38.5t-23 -33.5l39 -13q46 50 46 134z" />
    <glyph glyph-name="Gdotaccent" unicode="&#x120;" horiz-adv-x="595" 
d="M524 19q-30 -16 -69.5 -24.5t-77.5 -8.5q-104 0 -174 49t-104 131.5t-34 182.5q0 101 34.5 184t104.5 132t173 49q72 0 127 -27v-86q-31 21 -59 29t-67 8q-73 0 -124 -42.5t-76.5 -109t-25.5 -137.5q0 -70 25 -136t76 -108.5t124 -42.5q34 0 63 7v267h84v-317zM308 789.5
q-13 8.5 -13 37.5q0 26 14.5 36t39.5 10q26 0 40 -10t14 -36q0 -29 -13 -37.5t-41 -8.5t-41 8.5z" />
    <glyph glyph-name="H" unicode="H" horiz-adv-x="661" 
d="M96 700h84v-297h301v297h84v-700h-84v328h-301v-328h-84v700z" />
    <glyph glyph-name="Hbar" unicode="&#x126;" horiz-adv-x="659" 
d="M654 518h-90v-518h-84v328h-301v-328h-84v518h-90v62h90v120h84v-120h301v120h84v-120h90v-62zM480 518h-301v-115h301v115z" />
    <glyph glyph-name="Hcircumflex" unicode="&#x124;" horiz-adv-x="661" 
d="M96 700h84v-297h301v297h84v-700h-84v328h-301v-328h-84v700zM333 828l-114 -77l-32 41l136 106h18l134 -107l-30 -40z" />
    <glyph glyph-name="I" unicode="I" horiz-adv-x="276" 
d="M96 700h84v-700h-84v700z" />
    <glyph glyph-name="IJ" unicode="&#x132;" horiz-adv-x="709" 
d="M96 700h84v-700h-84v700zM534 624v-425q0 -69 -33.5 -103t-103.5 -34q-78 0 -150 48v-78q29 -22 70.5 -34t80.5 -12q100 0 160 56.5t60 156.5v501h-297v-76h213z" />
    <glyph glyph-name="Iacute" unicode="&#xcd;" horiz-adv-x="276" 
d="M96 700h84v-700h-84v700zM265 851l-147 -103l-36 41l136 117z" />
    <glyph glyph-name="Ibreve" unicode="&#x12c;" horiz-adv-x="276" 
d="M96 700h84v-700h-84v700zM55 877q8 -30 31.5 -47t51.5 -17t51.5 17t30.5 47l54 -14q-11 -53 -50 -82t-87 -29t-85.5 29t-48.5 82z" />
    <glyph glyph-name="Icircumflex" unicode="&#xce;" horiz-adv-x="276" 
d="M222 751l-83 76l-83 -76l-32 31l106 116h18l106 -116zM96 700h84v-700h-84v700z" />
    <glyph glyph-name="Idieresis" unicode="&#xcf;" horiz-adv-x="276" 
d="M28 793q-12 8 -12 34q0 24 13 33t36 9t36 -9t13 -33q0 -26 -12 -34t-37 -8t-37 8zM173 793q-12 8 -12 34q0 24 13 33t36 9t36.5 -9t13.5 -33q0 -26 -12.5 -34t-37.5 -8t-37 8zM96 700h84v-700h-84v700z" />
    <glyph glyph-name="Idotaccent" unicode="&#x130;" horiz-adv-x="276" 
d="M96 700h84v-700h-84v700zM97 789.5q-13 8.5 -13 37.5q0 26 14.5 36t39.5 10q26 0 40 -10t14 -36q0 -29 -13 -37.5t-41 -8.5t-41 8.5z" />
    <glyph glyph-name="Igrave" unicode="&#xcc;" horiz-adv-x="276" 
d="M96 700h84v-700h-84v700zM69 908l136 -117l-36 -41l-148 102z" />
    <glyph glyph-name="Imacron" unicode="&#x12a;" horiz-adv-x="276" 
d="M27 852v-62h221v62h-221zM96 700h84v-700h-84v700z" />
    <glyph glyph-name="Iogonek" unicode="&#x12e;" horiz-adv-x="276" 
d="M207 -186q-14 -11 -34.5 -18t-39.5 -7q-35 0 -52.5 22t-17.5 57q0 59 46 132h-13v700h84v-700h-12q-20 -25 -33.5 -55.5t-13.5 -55.5q0 -37 31 -37q11 0 24 4.5t22 11.5z" />
    <glyph glyph-name="Itilde" unicode="&#x128;" horiz-adv-x="276" 
d="M96 700h84v-700h-84v700zM-1 811q15 36 34.5 52.5t44.5 16.5q29 0 71 -21q30 -16 46 -16q24 0 39 33l43 -23q-16 -35 -35 -51.5t-43 -16.5q-25 0 -63 19q-18 9 -29.5 13.5t-22.5 4.5q-27 0 -43 -35z" />
    <glyph glyph-name="J" unicode="J" horiz-adv-x="486" 
d="M311 624v-425q0 -69 -33.5 -103t-103.5 -34q-78 0 -150 48v-78q29 -22 70.5 -34t80.5 -12q100 0 160 56.5t60 156.5v501h-297v-76h213z" />
    <glyph glyph-name="Jcircumflex" unicode="&#x134;" horiz-adv-x="486" 
d="M311 624v-425q0 -69 -33.5 -103t-103.5 -34q-78 0 -150 48v-78q29 -22 70.5 -34t80.5 -12q100 0 160 56.5t60 156.5v501h-297v-76h213zM271 828l-114 -77l-32 41l136 106h18l134 -107l-30 -40z" />
    <glyph glyph-name="K" unicode="K" horiz-adv-x="635" 
d="M96 700h84v-700h-84v700zM467 700l-251 -324v-19l291 -357h110l-304 373l256 327h-102z" />
    <glyph glyph-name="Kcommaaccent" unicode="&#x136;" horiz-adv-x="635" 
d="M96 700h84v-700h-84v700zM467 700l-251 -324v-19l291 -357h110l-304 373l256 327h-102zM375 -116q0 28 -8 41t-34 13t-35.5 -13t-9.5 -38q0 -22 7.5 -36t26.5 -16q0 -19 -9 -38.5t-23 -33.5l39 -13q46 50 46 134z" />
    <glyph glyph-name="L" unicode="L" horiz-adv-x="493" 
d="M96 700h84v-624h289v-76h-373v700z" />
    <glyph glyph-name="Lacute" unicode="&#x139;" horiz-adv-x="493" 
d="M96 700h84v-624h289v-76h-373v700zM265 851l-147 -103l-36 41l136 117z" />
    <glyph glyph-name="Lcaron" unicode="&#x13d;" horiz-adv-x="493" 
d="M96 700h84v-624h289v-76h-373v700zM442 646q0 28 -8 41t-34 13t-35.5 -13t-9.5 -38q0 -22 7.5 -36t26.5 -16q0 -19 -9 -38.5t-23 -33.5l39 -13q46 50 46 134z" />
    <glyph glyph-name="Lcommaaccent" unicode="&#x13b;" horiz-adv-x="493" 
d="M96 700h84v-624h289v-76h-373v700zM327 -116q0 28 -8 41t-34 13t-35.5 -13t-9.5 -38q0 -22 7.5 -36t26.5 -16q0 -19 -9 -38.5t-23 -33.5l39 -13q46 50 46 134z" />
    <glyph glyph-name="Ldot" unicode="&#x13f;" horiz-adv-x="493" 
d="M96 700h84v-624h289v-76h-373v700zM382.5 336.5q-9.5 -14.5 -40.5 -14.5q-29 1 -40 16.5t-11 42.5t11 42.5t40 15.5q30 0 40 -14.5t10 -43.5q0 -30 -9.5 -44.5z" />
    <glyph glyph-name="Lslash" unicode="&#x141;" horiz-adv-x="493" 
d="M469 76v-76h-373v226l-65 -37l-31 54l96 55v402h84v-353l117 67l31 -54l-148 -85v-199h289z" />
    <glyph glyph-name="M" unicode="M" horiz-adv-x="779" 
d="M396 104l193 387l79 -491h86l-122 712h-19l-227 -458l-226 458h-19l-116 -712h86l73 491l193 -387h19z" />
    <glyph glyph-name="N" unicode="N" horiz-adv-x="683" 
d="M115 712l388 -504v492h84v-713h-19l-388 500v-487h-84v712h19z" />
    <glyph glyph-name="Nacute" unicode="&#x143;" horiz-adv-x="683" 
d="M115 712l388 -504v492h84v-713h-19l-388 500v-487h-84v712h19zM461 851l-147 -103l-36 41l136 117z" />
    <glyph glyph-name="Ncaron" unicode="&#x147;" horiz-adv-x="683" 
d="M115 712l388 -504v492h84v-713h-19l-388 500v-487h-84v712h19zM478 858l-134 -107h-18l-136 106l32 41l114 -77l112 77z" />
    <glyph glyph-name="Ncommaaccent" unicode="&#x145;" horiz-adv-x="683" 
d="M115 712l388 -504v492h84v-713h-19l-388 500v-487h-84v712h19zM382 -116q0 28 -8 41t-34 13t-35.5 -13t-9.5 -38q0 -22 7.5 -36t26.5 -16q0 -19 -9 -38.5t-23 -33.5l39 -13q46 50 46 134z" />
    <glyph glyph-name="Eng" unicode="&#x14a;" horiz-adv-x="683" 
d="M587 700v-773q0 -63 -33.5 -98t-97.5 -35q-36 0 -72 11v74q26 -16 59 -16q32 0 49.5 16.5t17.5 47.5v95l-330 462v-484h-84v712h19l388 -542v530h84z" />
    <glyph glyph-name="Ntilde" unicode="&#xd1;" horiz-adv-x="683" 
d="M115 712l388 -504v492h84v-713h-19l-388 500v-487h-84v712h19zM195 811q15 36 34.5 52.5t44.5 16.5q29 0 71 -21q30 -16 46 -16q24 0 39 33l43 -23q-16 -35 -35 -51.5t-43 -16.5q-25 0 -63 19q-18 9 -29.5 13.5t-22.5 4.5q-27 0 -43 -35z" />
    <glyph glyph-name="O" unicode="O" horiz-adv-x="703" 
d="M569.5 611q68.5 -103 68.5 -261t-68 -261t-218 -103t-218.5 103.5t-68.5 260.5q0 158 69 261t218 103t217.5 -103zM235.5 594.5q-44.5 -43.5 -64 -109.5t-19.5 -135q0 -70 19.5 -135.5t64.5 -109t116 -43.5t115.5 43.5t64 109t19.5 135.5t-19.5 135.5t-64 109
t-115.5 43.5q-72 0 -116.5 -43.5z" />
    <glyph glyph-name="Oacute" unicode="&#xd3;" horiz-adv-x="703" 
d="M569.5 611q68.5 -103 68.5 -261t-68 -261t-218 -103t-218.5 103.5t-68.5 260.5q0 158 69 261t218 103t217.5 -103zM235.5 594.5q-44.5 -43.5 -64 -109.5t-19.5 -135q0 -70 19.5 -135.5t64.5 -109t116 -43.5t115.5 43.5t64 109t19.5 135.5t-19.5 135.5t-64 109
t-115.5 43.5q-72 0 -116.5 -43.5zM479 865l-147 -103l-36 41l136 117z" />
    <glyph glyph-name="Obreve" unicode="&#x14e;" horiz-adv-x="703" 
d="M569.5 611q68.5 -103 68.5 -261t-68 -261t-218 -103t-218.5 103.5t-68.5 260.5q0 158 69 261t218 103t217.5 -103zM235.5 594.5q-44.5 -43.5 -64 -109.5t-19.5 -135q0 -70 19.5 -135.5t64.5 -109t116 -43.5t115.5 43.5t64 109t19.5 135.5t-19.5 135.5t-64 109
t-115.5 43.5q-72 0 -116.5 -43.5zM269 891q8 -30 31.5 -47t51.5 -17t51.5 17t30.5 47l54 -14q-11 -53 -50 -82t-87 -29t-85.5 29t-48.5 82z" />
    <glyph glyph-name="Ocircumflex" unicode="&#xd4;" horiz-adv-x="703" 
d="M569.5 611q68.5 -103 68.5 -261t-68 -261t-218 -103t-218.5 103.5t-68.5 260.5q0 158 69 261t218 103t217.5 -103zM235.5 594.5q-44.5 -43.5 -64 -109.5t-19.5 -135q0 -70 19.5 -135.5t64.5 -109t116 -43.5t115.5 43.5t64 109t19.5 135.5t-19.5 135.5t-64 109
t-115.5 43.5q-72 0 -116.5 -43.5zM354 842l-114 -77l-32 41l136 106h18l134 -107l-30 -40z" />
    <glyph glyph-name="Odieresis" unicode="&#xd6;" horiz-adv-x="703" 
d="M569.5 611q68.5 -103 68.5 -261t-68 -261t-218 -103t-218.5 103.5t-68.5 260.5q0 158 69 261t218 103t217.5 -103zM235.5 594.5q-44.5 -43.5 -64 -109.5t-19.5 -135q0 -70 19.5 -135.5t64.5 -109t116 -43.5t115.5 43.5t64 109t19.5 135.5t-19.5 135.5t-64 109
t-115.5 43.5q-72 0 -116.5 -43.5zM222 807q-12 8 -12 34q0 24 13 33t36 9t36 -9t13 -33q0 -26 -12 -34t-37 -8t-37 8zM407 807q-12 8 -12 34q0 24 13 33t36 9t36.5 -9t13.5 -33q0 -26 -12.5 -34t-37.5 -8t-37 8z" />
    <glyph glyph-name="Ograve" unicode="&#xd2;" horiz-adv-x="703" 
d="M569.5 611q68.5 -103 68.5 -261t-68 -261t-218 -103t-218.5 103.5t-68.5 260.5q0 158 69 261t218 103t217.5 -103zM235.5 594.5q-44.5 -43.5 -64 -109.5t-19.5 -135q0 -70 19.5 -135.5t64.5 -109t116 -43.5t115.5 43.5t64 109t19.5 135.5t-19.5 135.5t-64 109
t-115.5 43.5q-72 0 -116.5 -43.5zM283 922l136 -117l-36 -41l-148 102z" />
    <glyph glyph-name="Ohungarumlaut" unicode="&#x150;" horiz-adv-x="703" 
d="M569.5 611q68.5 -103 68.5 -261t-68 -261t-218 -103t-218.5 103.5t-68.5 260.5q0 158 69 261t218 103t217.5 -103zM235.5 594.5q-44.5 -43.5 -64 -109.5t-19.5 -135q0 -70 19.5 -135.5t64.5 -109t116 -43.5t115.5 43.5t64 109t19.5 135.5t-19.5 135.5t-64 109
t-115.5 43.5q-72 0 -116.5 -43.5zM382 890l-88 -126l-48 27l73 135zM522 890l-88 -126l-48 27l73 135z" />
    <glyph glyph-name="Omacron" unicode="&#x14c;" horiz-adv-x="703" 
d="M569.5 611q68.5 -103 68.5 -261t-68 -261t-218 -103t-218.5 103.5t-68.5 260.5q0 158 69 261t218 103t217.5 -103zM235.5 594.5q-44.5 -43.5 -64 -109.5t-19.5 -135q0 -70 19.5 -135.5t64.5 -109t116 -43.5t115.5 43.5t64 109t19.5 135.5t-19.5 135.5t-64 109
t-115.5 43.5q-72 0 -116.5 -43.5zM211 886v-62h281v62h-281z" />
    <glyph glyph-name="Oslash" unicode="&#xd8;" horiz-adv-x="703" 
d="M617 510.5q21 -73.5 21 -160.5q0 -158 -68 -261t-218 -103q-88 0 -152 40l-42 -72l-54 32l47 81q-44 50 -65 123.5t-21 159.5q0 158 69 261t218 103q88 0 152 -40l42 73l54 -31l-48 -83q44 -49 65 -122.5zM196 145l267 459q-44 34 -111 34q-72 0 -116.5 -43.5t-64 -109.5
t-19.5 -135q0 -132 44 -205zM467.5 105.5q44.5 43.5 64 109t19.5 135.5q0 132 -44 205l-267 -459q44 -34 112 -34q71 0 115.5 43.5z" />
    <glyph glyph-name="Oslashacute" unicode="&#x1fe;" horiz-adv-x="703" 
d="M617 510.5q21 -73.5 21 -160.5q0 -158 -68 -261t-218 -103q-88 0 -152 40l-42 -72l-54 32l47 81q-44 50 -65 123.5t-21 159.5q0 158 69 261t218 103q88 0 152 -40l42 73l54 -31l-48 -83q44 -49 65 -122.5zM196 145l267 459q-44 34 -111 34q-72 0 -116.5 -43.5t-64 -109.5
t-19.5 -135q0 -132 44 -205zM467.5 105.5q44.5 43.5 64 109t19.5 135.5q0 132 -44 205l-267 -459q44 -34 112 -34q71 0 115.5 43.5zM479 865l-147 -103l-36 41l136 117z" />
    <glyph glyph-name="Otilde" unicode="&#xd5;" horiz-adv-x="703" 
d="M569.5 611q68.5 -103 68.5 -261t-68 -261t-218 -103t-218.5 103.5t-68.5 260.5q0 158 69 261t218 103t217.5 -103zM235.5 594.5q-44.5 -43.5 -64 -109.5t-19.5 -135q0 -70 19.5 -135.5t64.5 -109t116 -43.5t115.5 43.5t64 109t19.5 135.5t-19.5 135.5t-64 109
t-115.5 43.5q-72 0 -116.5 -43.5zM213 825q15 36 34.5 52.5t44.5 16.5q29 0 71 -21q30 -16 46 -16q24 0 39 33l43 -23q-16 -35 -35 -51.5t-43 -16.5q-25 0 -63 19q-18 9 -29.5 13.5t-22.5 4.5q-27 0 -43 -35z" />
    <glyph glyph-name="OE" unicode="&#x152;" horiz-adv-x="883" 
d="M837 76v-76h-360v24q-25 -17 -57.5 -27.5t-64.5 -10.5q-151 0 -220.5 102t-69.5 262t69.5 262t220.5 102q32 0 64.5 -10.5t57.5 -27.5v24h350v-76h-266v-218h244v-76h-244v-254h276zM419.5 74q32.5 12 57.5 32v488q-25 20 -57.5 32t-64.5 12q-73 0 -118.5 -42.5
t-65 -107.5t-19.5 -138t19.5 -138t65 -107.5t118.5 -42.5q32 0 64.5 12z" />
    <glyph glyph-name="P" unicode="P" horiz-adv-x="567" 
d="M96 0h84v269h91q113 0 181.5 53.5t68.5 162.5q0 106 -69.5 160.5t-180.5 54.5h-175v-700zM271 625q75 0 117.5 -35.5t42.5 -104.5q0 -72 -42.5 -106t-117.5 -34h-91v280h91z" />
    <glyph glyph-name="Thorn" unicode="&#xde;" horiz-adv-x="567" 
d="M451.5 510.5q69.5 -54.5 69.5 -160.5q0 -109 -68.5 -162.5t-181.5 -53.5h-91v-134h-84v700h84v-135h91q111 0 180.5 -54.5zM388.5 244q42.5 34 42.5 106q0 69 -42.5 104.5t-117.5 35.5h-91v-280h91q75 0 117.5 34z" />
    <glyph glyph-name="Q" unicode="Q" horiz-adv-x="674" 
d="M568.5 611q68.5 -103 68.5 -261q0 -125 -43.5 -217t-137.5 -127l184 -103l-43 -78l-272 165q-137 10 -199 110t-62 250q0 158 69 261t218 103t217.5 -103zM234.5 594.5q-44.5 -43.5 -64 -109.5t-19.5 -135q0 -70 19.5 -135t64.5 -107.5t116 -42.5t115.5 43t64 107.5
t19.5 134.5t-19.5 135.5t-64 109t-115.5 43.5q-72 0 -116.5 -43.5z" />
    <glyph glyph-name="R" unicode="R" horiz-adv-x="612" 
d="M225 338v24h65q70 0 110.5 33.5t40.5 101.5q0 66 -41 96t-110 30h-110v-623h-84v700h194q107 0 174 -49.5t67 -153.5q0 -86 -47 -137t-127 -66l214 -294h-104z" />
    <glyph glyph-name="Racute" unicode="&#x154;" horiz-adv-x="612" 
d="M225 338v24h65q70 0 110.5 33.5t40.5 101.5q0 66 -41 96t-110 30h-110v-623h-84v700h194q107 0 174 -49.5t67 -153.5q0 -86 -47 -137t-127 -66l214 -294h-104zM417 851l-147 -103l-36 41l136 117z" />
    <glyph glyph-name="Rcaron" unicode="&#x158;" horiz-adv-x="612" 
d="M225 338v24h65q70 0 110.5 33.5t40.5 101.5q0 66 -41 96t-110 30h-110v-623h-84v700h194q107 0 174 -49.5t67 -153.5q0 -86 -47 -137t-127 -66l214 -294h-104zM434 858l-134 -107h-18l-136 106l32 41l114 -77l112 77z" />
    <glyph glyph-name="Rcommaaccent" unicode="&#x156;" horiz-adv-x="612" 
d="M225 338v24h65q70 0 110.5 33.5t40.5 101.5q0 66 -41 96t-110 30h-110v-623h-84v700h194q107 0 174 -49.5t67 -153.5q0 -86 -47 -137t-127 -66l214 -294h-104zM346 -116q0 28 -8 41t-34 13t-35.5 -13t-9.5 -38q0 -22 7.5 -36t26.5 -16q0 -19 -9 -38.5t-23 -33.5l39 -13
q46 50 46 134z" />
    <glyph glyph-name="S" unicode="S" horiz-adv-x="543" 
d="M177 470.5q19 -24.5 46 -39t80 -36.5q86 -36 138 -86t52 -123q0 -59 -31 -104.5t-83 -70.5t-113 -25q-66 0 -115.5 11.5t-90.5 35.5v91q81 -59 177 -59q70 0 116.5 31t46.5 90q0 38 -20 63.5t-48 40.5t-81 37q-89 37 -136 84t-47 121q0 87 58 134.5t149 47.5
q44 0 87 -11.5t79 -32.5l1 -84q-72 48 -162 50q-52 0 -87 -28.5t-35 -75.5q0 -37 19 -61.5z" />
    <glyph glyph-name="Sacute" unicode="&#x15a;" horiz-adv-x="543" 
d="M177 470.5q19 -24.5 46 -39t80 -36.5q86 -36 138 -86t52 -123q0 -59 -31 -104.5t-83 -70.5t-113 -25q-66 0 -115.5 11.5t-90.5 35.5v91q81 -59 177 -59q70 0 116.5 31t46.5 90q0 38 -20 63.5t-48 40.5t-81 37q-89 37 -136 84t-47 121q0 87 58 134.5t149 47.5
q44 0 87 -11.5t79 -32.5l1 -84q-72 48 -162 50q-52 0 -87 -28.5t-35 -75.5q0 -37 19 -61.5zM392 865l-147 -103l-36 41l136 117z" />
    <glyph glyph-name="Scaron" unicode="&#x160;" horiz-adv-x="543" 
d="M177 470.5q19 -24.5 46 -39t80 -36.5q86 -36 138 -86t52 -123q0 -59 -31 -104.5t-83 -70.5t-113 -25q-66 0 -115.5 11.5t-90.5 35.5v91q81 -59 177 -59q70 0 116.5 31t46.5 90q0 38 -20 63.5t-48 40.5t-81 37q-89 37 -136 84t-47 121q0 87 58 134.5t149 47.5
q44 0 87 -11.5t79 -32.5l1 -84q-72 48 -162 50q-52 0 -87 -28.5t-35 -75.5q0 -37 19 -61.5zM409 872l-134 -107h-18l-136 106l32 41l114 -77l112 77z" />
    <glyph glyph-name="Scedilla" unicode="&#x15e;" horiz-adv-x="543" 
d="M465 87q-28 -44 -75 -70t-104 -30l-14 -34q37 -5 55.5 -26.5t18.5 -50.5q0 -34 -24 -59.5t-65 -25.5q-46 0 -84 30l20 45q8 -9 24 -15.5t31 -6.5q14 1 23 7.5t12 16.5q2 10 2 13q0 21 -22.5 29.5t-48.5 9.5l26 66q-56 2 -99.5 13.5t-80.5 33.5v91q81 -59 177 -59
q70 0 116.5 31t46.5 90q0 38 -20 63.5t-48 40.5t-81 37q-89 37 -136 84t-47 121q0 87 58 134.5t149 47.5q44 0 87 -11.5t79 -32.5l1 -84q-72 48 -162 50q-52 0 -87 -28.5t-35 -75.5q0 -37 19 -61.5t46 -39t80 -36.5q86 -36 138 -86t52 -123q0 -55 -28 -99z" />
    <glyph glyph-name="Scircumflex" unicode="&#x15c;" horiz-adv-x="543" 
d="M177 470.5q19 -24.5 46 -39t80 -36.5q86 -36 138 -86t52 -123q0 -59 -31 -104.5t-83 -70.5t-113 -25q-66 0 -115.5 11.5t-90.5 35.5v91q81 -59 177 -59q70 0 116.5 31t46.5 90q0 38 -20 63.5t-48 40.5t-81 37q-89 37 -136 84t-47 121q0 87 58 134.5t149 47.5
q44 0 87 -11.5t79 -32.5l1 -84q-72 48 -162 50q-52 0 -87 -28.5t-35 -75.5q0 -37 19 -61.5zM267 842l-114 -77l-32 41l136 106h18l134 -107l-30 -40z" />
    <glyph glyph-name="Scommaaccent" unicode="&#x218;" horiz-adv-x="543" 
d="M177 470.5q19 -24.5 46 -39t80 -36.5q86 -36 138 -86t52 -123q0 -59 -31 -104.5t-83 -70.5t-113 -25q-66 0 -115.5 11.5t-90.5 35.5v91q81 -59 177 -59q70 0 116.5 31t46.5 90q0 38 -20 63.5t-48 40.5t-81 37q-89 37 -136 84t-47 121q0 87 58 134.5t149 47.5
q44 0 87 -11.5t79 -32.5l1 -84q-72 48 -162 50q-52 0 -87 -28.5t-35 -75.5q0 -37 19 -61.5zM310 -116q0 28 -8 41t-34 13t-35.5 -13t-9.5 -38q0 -22 7.5 -36t26.5 -16q0 -19 -9 -38.5t-23 -33.5l39 -13q46 50 46 134z" />
    <glyph glyph-name="T" unicode="T" horiz-adv-x="520" 
d="M218 625h-189v75h462v-75h-189v-625h-84v625z" />
    <glyph glyph-name="Tbar" unicode="&#x166;" horiz-adv-x="520" 
d="M302 625v-214h110v-62h-110v-349h-84v349h-110v62h110v214h-189v75h462v-75h-189z" />
    <glyph glyph-name="Tcaron" unicode="&#x164;" horiz-adv-x="520" 
d="M218 625h-189v75h462v-75h-189v-625h-84v625zM404 858l-134 -107h-18l-136 106l32 41l114 -77l112 77z" />
    <glyph glyph-name="uni0162" unicode="&#x162;" horiz-adv-x="520" 
d="M218 625h-189v75h462v-75h-189v-625h-84v625zM304 -116q0 28 -8 41t-34 13t-35.5 -13t-9.5 -38q0 -22 7.5 -36t26.5 -16q0 -19 -9 -38.5t-23 -33.5l39 -13q46 50 46 134z" />
    <glyph glyph-name="uni021A" unicode="&#x21a;" horiz-adv-x="520" 
d="M218 625h-189v75h462v-75h-189v-625h-84v625zM304 -116q0 28 -8 41t-34 13t-35.5 -13t-9.5 -38q0 -22 7.5 -36t26.5 -16q0 -19 -9 -38.5t-23 -33.5l39 -13q46 50 46 134z" />
    <glyph glyph-name="U" unicode="U" horiz-adv-x="673" 
d="M583 700h-84v-432q0 -87 -39.5 -146.5t-122.5 -59.5q-84 0 -123.5 59.5t-39.5 146.5v432h-84v-432q0 -128 60 -205t187 -77q82 0 137.5 37.5t82 101.5t26.5 143v432z" />
    <glyph glyph-name="Uacute" unicode="&#xda;" horiz-adv-x="673" 
d="M583 700h-84v-432q0 -87 -39.5 -146.5t-122.5 -59.5q-84 0 -123.5 59.5t-39.5 146.5v432h-84v-432q0 -128 60 -205t187 -77q82 0 137.5 37.5t82 101.5t26.5 143v432zM464 851l-147 -103l-36 41l136 117z" />
    <glyph glyph-name="Ucircumflex" unicode="&#xdb;" horiz-adv-x="673" 
d="M583 700h-84v-432q0 -87 -39.5 -146.5t-122.5 -59.5q-84 0 -123.5 59.5t-39.5 146.5v432h-84v-432q0 -128 60 -205t187 -77q82 0 137.5 37.5t82 101.5t26.5 143v432zM339 828l-114 -77l-32 41l136 106h18l134 -107l-30 -40z" />
    <glyph glyph-name="Udieresis" unicode="&#xdc;" horiz-adv-x="673" 
d="M583 700h-84v-432q0 -87 -39.5 -146.5t-122.5 -59.5q-84 0 -123.5 59.5t-39.5 146.5v432h-84v-432q0 -128 60 -205t187 -77q82 0 137.5 37.5t82 101.5t26.5 143v432zM207 793q-12 8 -12 34q0 24 13 33t36 9t36 -9t13 -33q0 -26 -12 -34t-37 -8t-37 8zM392 793
q-12 8 -12 34q0 24 13 33t36 9t36.5 -9t13.5 -33q0 -26 -12.5 -34t-37.5 -8t-37 8z" />
    <glyph glyph-name="Ugrave" unicode="&#xd9;" horiz-adv-x="673" 
d="M583 700h-84v-432q0 -87 -39.5 -146.5t-122.5 -59.5q-84 0 -123.5 59.5t-39.5 146.5v432h-84v-432q0 -128 60 -205t187 -77q82 0 137.5 37.5t82 101.5t26.5 143v432zM268 908l136 -117l-36 -41l-148 102z" />
    <glyph glyph-name="Uhungarumlaut" unicode="&#x170;" horiz-adv-x="673" 
d="M583 700h-84v-432q0 -87 -39.5 -146.5t-122.5 -59.5q-84 0 -123.5 59.5t-39.5 146.5v432h-84v-432q0 -128 60 -205t187 -77q82 0 137.5 37.5t82 101.5t26.5 143v432zM367 876l-88 -126l-48 27l73 135zM507 876l-88 -126l-48 27l73 135z" />
    <glyph glyph-name="Umacron" unicode="&#x16a;" horiz-adv-x="673" 
d="M583 700h-84v-432q0 -87 -39.5 -146.5t-122.5 -59.5q-84 0 -123.5 59.5t-39.5 146.5v432h-84v-432q0 -128 60 -205t187 -77q82 0 137.5 37.5t82 101.5t26.5 143v432zM196 872v-62h281v62h-281z" />
    <glyph glyph-name="Uogonek" unicode="&#x172;" horiz-adv-x="673" 
d="M583 700v-432q0 -82 -28 -146.5t-85 -100.5q-54 -35 -77 -69.5t-23 -65.5q0 -15 7.5 -24.5t23.5 -9.5q11 0 24 5t22 11l9 -54q-14 -11 -34.5 -18t-39.5 -7q-36 0 -53 22t-17 58q0 58 55 118q-10 -1 -30 -1q-127 0 -187 77t-60 205v432h84v-432q0 -87 39.5 -146.5
t123.5 -59.5q83 0 122.5 59.5t39.5 146.5v432h84z" />
    <glyph glyph-name="Uring" unicode="&#x16e;" horiz-adv-x="673" 
d="M583 700h-84v-432q0 -87 -39.5 -146.5t-122.5 -59.5q-84 0 -123.5 59.5t-39.5 146.5v432h-84v-432q0 -128 60 -205t187 -77q82 0 137.5 37.5t82 101.5t26.5 143v432zM415.5 755q-31.5 -27 -77.5 -27t-79.5 25.5t-33.5 72.5t32.5 73.5t77.5 26.5t78.5 -26.5t33.5 -73.5
q0 -44 -31.5 -71zM376.5 868.5q-17.5 14.5 -41.5 14.5q-23 0 -40 -15t-17 -42q0 -26 17.5 -40t40.5 -14q24 0 41 14t17 40q0 28 -17.5 42.5z" />
    <glyph glyph-name="Utilde" unicode="&#x168;" horiz-adv-x="673" 
d="M583 700h-84v-432q0 -87 -39.5 -146.5t-122.5 -59.5q-84 0 -123.5 59.5t-39.5 146.5v432h-84v-432q0 -128 60 -205t187 -77q82 0 137.5 37.5t82 101.5t26.5 143v432zM198 811q15 36 34.5 52.5t44.5 16.5q29 0 71 -21q30 -16 46 -16q24 0 39 33l43 -23q-16 -35 -35 -51.5
t-43 -16.5q-25 0 -63 19q-18 9 -29.5 13.5t-22.5 4.5q-27 0 -43 -35z" />
    <glyph glyph-name="V" unicode="V" horiz-adv-x="664" 
d="M320 -13l-296 713h91l214 -531l215 531h96l-301 -713h-19z" />
    <glyph glyph-name="W" unicode="W" horiz-adv-x="944" 
d="M255 -13l-227 713h89l156 -511l185 478h28l186 -478l155 511h89l-226 -713h-20l-198 508l-198 -508h-19z" />
    <glyph glyph-name="Wacute" unicode="&#x1e82;" horiz-adv-x="944" 
d="M255 -13l-227 713h89l156 -511l185 478h28l186 -478l155 511h89l-226 -713h-20l-198 508l-198 -508h-19zM599 851l-147 -103l-36 41l136 117z" />
    <glyph glyph-name="Wcircumflex" unicode="&#x174;" horiz-adv-x="944" 
d="M255 -13l-227 713h89l156 -511l185 478h28l186 -478l155 511h89l-226 -713h-20l-198 508l-198 -508h-19zM474 828l-114 -77l-32 41l136 106h18l134 -107l-30 -40z" />
    <glyph glyph-name="Wdieresis" unicode="&#x1e84;" horiz-adv-x="944" 
d="M255 -13l-227 713h89l156 -511l185 478h28l186 -478l155 511h89l-226 -713h-20l-198 508l-198 -508h-19zM342 793q-12 8 -12 34q0 24 13 33t36 9t36 -9t13 -33q0 -26 -12 -34t-37 -8t-37 8zM527 793q-12 8 -12 34q0 24 13 33t36 9t36.5 -9t13.5 -33q0 -26 -12.5 -34
t-37.5 -8t-37 8z" />
    <glyph glyph-name="Wgrave" unicode="&#x1e80;" horiz-adv-x="944" 
d="M255 -13l-227 713h89l156 -511l185 478h28l186 -478l155 511h89l-226 -713h-20l-198 508l-198 -508h-19zM403 908l136 -117l-36 -41l-148 102z" />
    <glyph glyph-name="X" unicode="X" horiz-adv-x="637" 
d="M613 0h-98l-197 300l-197 -300h-98l246 375l-212 325h98l163 -249l163 249h98l-212 -325z" />
    <glyph glyph-name="Y" unicode="Y" horiz-adv-x="637" 
d="M613 700h-97l-197 -310l-197 310h-98l253 -387v-313h84v313z" />
    <glyph glyph-name="Yacute" unicode="&#xdd;" horiz-adv-x="637" 
d="M613 700h-97l-197 -310l-197 310h-98l253 -387v-313h84v313zM446 851l-147 -103l-36 41l136 117z" />
    <glyph glyph-name="Ycircumflex" unicode="&#x176;" horiz-adv-x="637" 
d="M613 700h-97l-197 -310l-197 310h-98l253 -387v-313h84v313zM321 828l-114 -77l-32 41l136 106h18l134 -107l-30 -40z" />
    <glyph glyph-name="Ydieresis" unicode="&#x178;" horiz-adv-x="637" 
d="M613 700h-97l-197 -310l-197 310h-98l253 -387v-313h84v313zM189 793q-12 8 -12 34q0 24 13 33t36 9t36 -9t13 -33q0 -26 -12 -34t-37 -8t-37 8zM374 793q-12 8 -12 34q0 24 13 33t36 9t36.5 -9t13.5 -33q0 -26 -12.5 -34t-37.5 -8t-37 8z" />
    <glyph glyph-name="Ygrave" unicode="&#x1ef2;" horiz-adv-x="637" 
d="M613 700h-97l-197 -310l-197 310h-98l253 -387v-313h84v313zM250 908l136 -117l-36 -41l-148 102z" />
    <glyph glyph-name="Z" unicode="Z" horiz-adv-x="591" 
d="M536 700h-458v-76h326l-364 -607v-17h507v75h-376l365 606v19z" />
    <glyph glyph-name="Zacute" unicode="&#x179;" horiz-adv-x="591" 
d="M536 700h-458v-76h326l-364 -607v-17h507v75h-376l365 606v19zM427 851l-147 -103l-36 41l136 117z" />
    <glyph glyph-name="Zcaron" unicode="&#x17d;" horiz-adv-x="591" 
d="M536 700h-458v-76h326l-364 -607v-17h507v75h-376l365 606v19zM444 858l-134 -107h-18l-136 106l32 41l114 -77l112 77z" />
    <glyph glyph-name="Zdotaccent" unicode="&#x17b;" horiz-adv-x="591" 
d="M536 700h-458v-76h326l-364 -607v-17h507v75h-376l365 606v19zM259 789.5q-13 8.5 -13 37.5q0 26 14.5 36t39.5 10q26 0 40 -10t14 -36q0 -29 -13 -37.5t-41 -8.5t-41 8.5z" />
    <glyph glyph-name="a" unicode="a" horiz-adv-x="506" 
d="M352 324q-34 2 -53 2q-33 0 -73 -5q-79 -12 -129.5 -55.5t-50.5 -120.5q0 -44 21 -80t59 -57.5t89 -21.5q40 0 75.5 19.5t61.5 53.5l9 -59h68v343q0 81 -52 128t-134 47q-41 -1 -76.5 -10t-78.5 -30l-2 -76q68 51 159 48q49 -1 78 -31t29 -79v-16zM314 93.5
q-37 -37.5 -94 -37.5q-38 0 -64.5 26t-26.5 68q0 56 42 81t100 29q12 1 36 1q32 0 45 -1v-67q-1 -62 -38 -99.5z" />
    <glyph glyph-name="aacute" unicode="&#xe1;" horiz-adv-x="506" 
d="M352 324q-34 2 -53 2q-33 0 -73 -5q-79 -12 -129.5 -55.5t-50.5 -120.5q0 -44 21 -80t59 -57.5t89 -21.5q40 0 75.5 19.5t61.5 53.5l9 -59h68v343q0 81 -52 128t-134 47q-41 -1 -76.5 -10t-78.5 -30l-2 -76q68 51 159 48q49 -1 78 -31t29 -79v-16zM314 93.5
q-37 -37.5 -94 -37.5q-38 0 -64.5 26t-26.5 68q0 56 42 81t100 29q12 1 36 1q32 0 45 -1v-67q-1 -62 -38 -99.5zM382 669l-147 -103l-36 41l136 117z" />
    <glyph glyph-name="abreve" unicode="&#x103;" horiz-adv-x="506" 
d="M352 324q-34 2 -53 2q-33 0 -73 -5q-79 -12 -129.5 -55.5t-50.5 -120.5q0 -44 21 -80t59 -57.5t89 -21.5q40 0 75.5 19.5t61.5 53.5l9 -59h68v343q0 81 -52 128t-134 47q-41 -1 -76.5 -10t-78.5 -30l-2 -76q68 51 159 48q49 -1 78 -31t29 -79v-16zM314 93.5
q-37 -37.5 -94 -37.5q-38 0 -64.5 26t-26.5 68q0 56 42 81t100 29q12 1 36 1q32 0 45 -1v-67q-1 -62 -38 -99.5zM172 695q8 -30 31.5 -47t51.5 -17t51.5 17t30.5 47l54 -14q-11 -53 -50 -82t-87 -29t-85.5 29t-48.5 82z" />
    <glyph glyph-name="acircumflex" unicode="&#xe2;" horiz-adv-x="506" 
d="M352 324q-34 2 -53 2q-33 0 -73 -5q-79 -12 -129.5 -55.5t-50.5 -120.5q0 -44 21 -80t59 -57.5t89 -21.5q40 0 75.5 19.5t61.5 53.5l9 -59h68v343q0 81 -52 128t-134 47q-41 -1 -76.5 -10t-78.5 -30l-2 -76q68 51 159 48q49 -1 78 -31t29 -79v-16zM314 93.5
q-37 -37.5 -94 -37.5q-38 0 -64.5 26t-26.5 68q0 56 42 81t100 29q12 1 36 1q32 0 45 -1v-67q-1 -62 -38 -99.5zM257 646l-114 -77l-32 41l136 106h18l134 -107l-30 -40z" />
    <glyph glyph-name="adieresis" unicode="&#xe4;" horiz-adv-x="506" 
d="M352 324q-34 2 -53 2q-33 0 -73 -5q-79 -12 -129.5 -55.5t-50.5 -120.5q0 -44 21 -80t59 -57.5t89 -21.5q40 0 75.5 19.5t61.5 53.5l9 -59h68v343q0 81 -52 128t-134 47q-41 -1 -76.5 -10t-78.5 -30l-2 -76q68 51 159 48q49 -1 78 -31t29 -79v-16zM314 93.5
q-37 -37.5 -94 -37.5q-38 0 -64.5 26t-26.5 68q0 56 42 81t100 29q12 1 36 1q32 0 45 -1v-67q-1 -62 -38 -99.5zM125 611q-12 8 -12 34q0 24 13 33t36 9t36 -9t13 -33q0 -26 -12 -34t-37 -8t-37 8zM310 611q-12 8 -12 34q0 24 13 33t36 9t36.5 -9t13.5 -33q0 -26 -12.5 -34
t-37.5 -8t-37 8z" />
    <glyph glyph-name="agrave" unicode="&#xe0;" horiz-adv-x="506" 
d="M352 324q-34 2 -53 2q-33 0 -73 -5q-79 -12 -129.5 -55.5t-50.5 -120.5q0 -44 21 -80t59 -57.5t89 -21.5q40 0 75.5 19.5t61.5 53.5l9 -59h68v343q0 81 -52 128t-134 47q-41 -1 -76.5 -10t-78.5 -30l-2 -76q68 51 159 48q49 -1 78 -31t29 -79v-16zM314 93.5
q-37 -37.5 -94 -37.5q-38 0 -64.5 26t-26.5 68q0 56 42 81t100 29q12 1 36 1q32 0 45 -1v-67q-1 -62 -38 -99.5zM186 726l136 -117l-36 -41l-148 102z" />
    <glyph glyph-name="amacron" unicode="&#x101;" horiz-adv-x="506" 
d="M352 324q-34 2 -53 2q-33 0 -73 -5q-79 -12 -129.5 -55.5t-50.5 -120.5q0 -44 21 -80t59 -57.5t89 -21.5q40 0 75.5 19.5t61.5 53.5l9 -59h68v343q0 81 -52 128t-134 47q-41 -1 -76.5 -10t-78.5 -30l-2 -76q68 51 159 48q49 -1 78 -31t29 -79v-16zM314 93.5
q-37 -37.5 -94 -37.5q-38 0 -64.5 26t-26.5 68q0 56 42 81t100 29q12 1 36 1q32 0 45 -1v-67q-1 -62 -38 -99.5zM114 680v-62h281v62h-281z" />
    <glyph glyph-name="aogonek" unicode="&#x105;" horiz-adv-x="506" 
d="M440 -186q-14 -11 -34.5 -18t-39.5 -7q-36 0 -53 22t-17 58q0 31 15.5 64.5t49.5 66.5l-9 59q-26 -34 -61.5 -53.5t-75.5 -19.5q-51 0 -89 21.5t-59 57.5t-21 80q0 77 50.5 120.5t129.5 55.5q40 5 73 5q19 0 53 -2v16q0 49 -29 79t-78 31q-91 3 -159 -48l2 76
q43 21 78.5 30t76.5 10q82 0 134 -47t52 -128v-343h-9q-24 -22 -45 -55t-21 -59q0 -15 7.5 -24.5t23.5 -9.5q11 0 24 4.5t22 11.5zM352 260q-13 1 -45 1q-24 0 -36 -1q-58 -4 -100 -29t-42 -81q0 -42 26.5 -68t64.5 -26q57 0 94 37.5t38 99.5v67z" />
    <glyph glyph-name="aring" unicode="&#xe5;" horiz-adv-x="506" 
d="M352 324q-34 2 -53 2q-33 0 -73 -5q-79 -12 -129.5 -55.5t-50.5 -120.5q0 -44 21 -80t59 -57.5t89 -21.5q40 0 75.5 19.5t61.5 53.5l9 -59h68v343q0 81 -52 128t-134 47q-41 -1 -76.5 -10t-78.5 -30l-2 -76q68 51 159 48q49 -1 78 -31t29 -79v-16zM314 93.5
q-37 -37.5 -94 -37.5q-38 0 -64.5 26t-26.5 68q0 56 42 81t100 29q12 1 36 1q32 0 45 -1v-67q-1 -62 -38 -99.5zM333.5 573q-31.5 -27 -77.5 -27t-79.5 25.5t-33.5 72.5t32.5 73.5t77.5 26.5t78.5 -26.5t33.5 -73.5q0 -44 -31.5 -71zM294.5 686.5q-17.5 14.5 -41.5 14.5
q-23 0 -40 -15t-17 -42q0 -26 17.5 -40t40.5 -14q24 0 41 14t17 40q0 28 -17.5 42.5z" />
    <glyph glyph-name="aringacute" unicode="&#x1fb;" horiz-adv-x="506" 
d="M367 786l-132 -41l-20 38l125 57zM333.5 570.5q-28.5 -24.5 -70.5 -24.5q-44 0 -73.5 24.5t-29.5 63.5q0 40 28.5 65t71.5 25q44 0 73 -25t29 -65q0 -39 -28.5 -63.5zM294 667.5q-15 13.5 -34 13.5t-33 -13.5t-14 -33.5q0 -19 14.5 -31.5t33.5 -12.5t33.5 12.5t14.5 31.5
q0 20 -15 33.5zM352 324q-34 2 -53 2q-33 0 -73 -5q-79 -12 -129.5 -55.5t-50.5 -120.5q0 -44 21 -80t59 -57.5t89 -21.5q40 0 75.5 19.5t61.5 53.5l9 -59h68v343q0 81 -52 128t-134 47q-41 -1 -76.5 -10t-78.5 -30l-2 -76q68 51 159 48q49 -1 78 -31t29 -79v-16zM314 93.5
q-37 -37.5 -94 -37.5q-38 0 -64.5 26t-26.5 68q0 56 42 81t100 29q12 1 36 1q32 0 45 -1v-67q-1 -62 -38 -99.5z" />
    <glyph glyph-name="atilde" unicode="&#xe3;" horiz-adv-x="506" 
d="M352 324q-34 2 -53 2q-33 0 -73 -5q-79 -12 -129.5 -55.5t-50.5 -120.5q0 -44 21 -80t59 -57.5t89 -21.5q40 0 75.5 19.5t61.5 53.5l9 -59h68v343q0 81 -52 128t-134 47q-41 -1 -76.5 -10t-78.5 -30l-2 -76q68 51 159 48q49 -1 78 -31t29 -79v-16zM314 93.5
q-37 -37.5 -94 -37.5q-38 0 -64.5 26t-26.5 68q0 56 42 81t100 29q12 1 36 1q32 0 45 -1v-67q-1 -62 -38 -99.5zM116 629q15 36 34.5 52.5t44.5 16.5q29 0 71 -21q30 -16 46 -16q24 0 39 33l43 -23q-16 -35 -35 -51.5t-43 -16.5q-25 0 -63 19q-18 9 -29.5 13.5t-22.5 4.5
q-27 0 -43 -35z" />
    <glyph glyph-name="ae" unicode="&#xe6;" horiz-adv-x="783" 
d="M725 246h-303q6 -190 137 -190q72 0 148 59l-1 -81q-65 -48 -148 -48q-62 0 -107 26.5t-72 75.5q-29 -48 -73.5 -75t-97.5 -27q-48 0 -85 21.5t-57 57.5t-20 80q0 68 48.5 111t121.5 55q29 5 69 5q21 0 57 -2v26q0 52 -31 81t-90 29q-72 0 -135 -48l2 76q43 21 76 30.5
t68 9.5q53 0 94.5 -20t65.5 -57q55 77 157 77q91 0 136 -59t45 -151q0 -29 -5 -62zM653 317q-1 60 -24.5 95t-80.5 35q-56 0 -83.5 -34t-38.5 -96h227zM342 250q-13 1 -45 1q-24 0 -36 -1q-132 -9 -132 -104q0 -40 22.5 -65t63.5 -25q34 0 63.5 17.5t46.5 49t17 70.5v57z
" />
    <glyph glyph-name="aeacute" unicode="&#x1fd;" horiz-adv-x="783" 
d="M725 246h-303q6 -190 137 -190q72 0 148 59l-1 -81q-65 -48 -148 -48q-62 0 -107 26.5t-72 75.5q-29 -48 -73.5 -75t-97.5 -27q-48 0 -85 21.5t-57 57.5t-20 80q0 68 48.5 111t121.5 55q29 5 69 5q21 0 57 -2v26q0 52 -31 81t-90 29q-72 0 -135 -48l2 76q43 21 76 30.5
t68 9.5q53 0 94.5 -20t65.5 -57q55 77 157 77q91 0 136 -59t45 -151q0 -29 -5 -62zM653 317q-1 60 -24.5 95t-80.5 35q-56 0 -83.5 -34t-38.5 -96h227zM342 250q-13 1 -45 1q-24 0 -36 -1q-132 -9 -132 -104q0 -40 22.5 -65t63.5 -25q34 0 63.5 17.5t46.5 49t17 70.5v57z
M518 669l-147 -103l-36 41l136 117z" />
    <glyph glyph-name="b" unicode="b" horiz-adv-x="569" 
d="M80 700h77v-259q55 77 143 77q71 0 118.5 -37t70.5 -97.5t23 -131.5q0 -64 -21 -124.5t-69 -101t-125 -40.5q-85 0 -140 77v-63h-77v700zM396 113.5q34 60.5 34 138.5q0 47 -13.5 92.5t-44.5 75.5t-79 30q-69 0 -102.5 -60t-33.5 -138t33.5 -138.5t102.5 -60.5t103 60.5z
" />
    <glyph glyph-name="c" unicode="c" horiz-adv-x="455" 
d="M84 385.5q27 60.5 80 96.5t127 36q59 0 106 -24l2 -81q-17 16 -43.5 25t-54.5 9q-77 0 -119 -54.5t-42 -139.5q0 -83 38 -139.5t116 -56.5q31 0 63.5 9.5t59.5 25.5l-4 -80q-58 -26 -129 -26q-74 0 -125 36t-76.5 96t-25.5 134q0 73 27 133.5z" />
    <glyph glyph-name="cacute" unicode="&#x107;" horiz-adv-x="455" 
d="M84 385.5q27 60.5 80 96.5t127 36q59 0 106 -24l2 -81q-17 16 -43.5 25t-54.5 9q-77 0 -119 -54.5t-42 -139.5q0 -83 38 -139.5t116 -56.5q31 0 63.5 9.5t59.5 25.5l-4 -80q-58 -26 -129 -26q-74 0 -125 36t-76.5 96t-25.5 134q0 73 27 133.5zM394 669l-147 -103l-36 41
l136 117z" />
    <glyph glyph-name="ccaron" unicode="&#x10d;" horiz-adv-x="455" 
d="M84 385.5q27 60.5 80 96.5t127 36q59 0 106 -24l2 -81q-17 16 -43.5 25t-54.5 9q-77 0 -119 -54.5t-42 -139.5q0 -83 38 -139.5t116 -56.5q31 0 63.5 9.5t59.5 25.5l-4 -80q-58 -26 -129 -26q-74 0 -125 36t-76.5 96t-25.5 134q0 73 27 133.5zM411 676l-134 -107h-18
l-136 106l32 41l114 -77l112 77z" />
    <glyph glyph-name="ccedilla" unicode="&#xe7;" horiz-adv-x="455" 
d="M292 -14l-14 -33q37 -5 55.5 -26.5t18.5 -50.5q0 -34 -24 -59.5t-65 -25.5q-46 0 -84 30l20 45q8 -9 24 -15.5t31 -6.5q14 1 23 7.5t12 16.5q2 10 2 13q0 21 -22.5 29.5t-48.5 9.5l27 69q-93 13 -141.5 86t-48.5 177q0 73 27 133.5t80 96.5t127 36q59 0 106 -24l2 -81
q-17 16 -43.5 25t-54.5 9q-77 0 -119 -54.5t-42 -139.5q0 -83 38 -139.5t116 -56.5q31 0 63.5 9.5t59.5 25.5l-4 -80q-55 -24 -121 -26z" />
    <glyph glyph-name="ccircumflex" unicode="&#x109;" horiz-adv-x="455" 
d="M84 385.5q27 60.5 80 96.5t127 36q59 0 106 -24l2 -81q-17 16 -43.5 25t-54.5 9q-77 0 -119 -54.5t-42 -139.5q0 -83 38 -139.5t116 -56.5q31 0 63.5 9.5t59.5 25.5l-4 -80q-58 -26 -129 -26q-74 0 -125 36t-76.5 96t-25.5 134q0 73 27 133.5zM269 646l-114 -77l-32 41
l136 106h18l134 -107l-30 -40z" />
    <glyph glyph-name="cdotaccent" unicode="&#x10b;" horiz-adv-x="455" 
d="M84 385.5q27 60.5 80 96.5t127 36q59 0 106 -24l2 -81q-17 16 -43.5 25t-54.5 9q-77 0 -119 -54.5t-42 -139.5q0 -83 38 -139.5t116 -56.5q31 0 63.5 9.5t59.5 25.5l-4 -80q-58 -26 -129 -26q-74 0 -125 36t-76.5 96t-25.5 134q0 73 27 133.5zM226 607.5
q-13 8.5 -13 37.5q0 26 14.5 36t39.5 10q26 0 40 -10t14 -36q0 -29 -13 -37.5t-41 -8.5t-41 8.5z" />
    <glyph glyph-name="d" unicode="d" horiz-adv-x="569" 
d="M489 700h-77v-259q-25 36 -61.5 56.5t-81.5 20.5q-71 0 -119 -37t-70.5 -97.5t-22.5 -131.5q0 -65 20.5 -125t68.5 -100.5t125 -40.5q45 0 80.5 21t61.5 58l6 -65h70v700zM172.5 113.5q-33.5 60.5 -33.5 138.5q0 47 13.5 92.5t44 75.5t78.5 30q69 0 103 -60t34 -138
t-34 -138.5t-103 -60.5t-102.5 60.5z" />
    <glyph glyph-name="eth" unicode="&#xf0;" horiz-adv-x="562" 
d="M439.5 571q30.5 -52 41.5 -125t11 -185q0 -121 -50.5 -198t-166.5 -77q-77 0 -126 37t-70.5 94t-21.5 121q0 106 49 176t150 70q104 0 158 -80q-5 81 -31.5 129.5t-85.5 79.5l-96 -80l-33 39l76 64q-49 19 -135 38l5 60q118 -22 186 -51l83 70l34 -40l-66 -55
q58 -35 88.5 -87zM376.5 110q32.5 55 32.5 128t-33.5 125.5t-102.5 52.5t-101.5 -52t-32.5 -126t33.5 -128.5t102.5 -54.5t101.5 55z" />
    <glyph glyph-name="dcaron" unicode="&#x10f;" horiz-adv-x="661" 
d="M489 700h-77v-259q-25 36 -61.5 56.5t-81.5 20.5q-71 0 -119 -37t-70.5 -97.5t-22.5 -131.5q0 -65 20.5 -125t68.5 -100.5t125 -40.5q45 0 80.5 21t61.5 58l6 -65h70v700zM646 646q0 28 -8 41t-34 13t-35.5 -13t-9.5 -38q0 -22 7.5 -36t26.5 -16q0 -19 -9 -38.5
t-23 -33.5l39 -13q46 50 46 134zM172.5 113.5q-33.5 60.5 -33.5 138.5q0 47 13.5 92.5t44 75.5t78.5 30q69 0 103 -60t34 -138t-34 -138.5t-103 -60.5t-102.5 60.5z" />
    <glyph glyph-name="dcroat" unicode="&#x111;" horiz-adv-x="569" 
d="M566 564h-77v-564h-70l-6 65q-26 -37 -61.5 -58t-80.5 -21q-77 0 -125 40.5t-68.5 100.5t-20.5 125q0 71 22.5 131.5t70.5 97.5t119 37q45 0 81.5 -20.5t61.5 -56.5v123h-117v58h117v78h77v-78h77v-58zM378 113.5q34 60.5 34 138.5t-34 138t-103 60q-48 0 -78.5 -30
t-44 -75.5t-13.5 -92.5q0 -78 33.5 -138.5t102.5 -60.5t103 60.5z" />
    <glyph glyph-name="e" unicode="e" horiz-adv-x="518" 
d="M418.5 455.5q46.5 -62.5 46.5 -157.5q0 -28 -5 -61h-323q3 -79 37.5 -130t109.5 -51q44 0 82 14.5t76 44.5l-1 -81q-65 -48 -153 -48q-73 0 -125 33.5t-79 93t-27 136.5q0 119 56.5 194t162.5 75q96 0 142.5 -62.5zM388 308q-2 139 -113 139q-58 0 -90.5 -39t-43.5 -100
h247z" />
    <glyph glyph-name="eacute" unicode="&#xe9;" horiz-adv-x="518" 
d="M418.5 455.5q46.5 -62.5 46.5 -157.5q0 -28 -5 -61h-323q3 -79 37.5 -130t109.5 -51q44 0 82 14.5t76 44.5l-1 -81q-65 -48 -153 -48q-73 0 -125 33.5t-79 93t-27 136.5q0 119 56.5 194t162.5 75q96 0 142.5 -62.5zM388 308q-2 139 -113 139q-58 0 -90.5 -39t-43.5 -100
h247zM403 669l-147 -103l-36 41l136 117z" />
    <glyph glyph-name="ebreve" unicode="&#x115;" horiz-adv-x="518" 
d="M418.5 455.5q46.5 -62.5 46.5 -157.5q0 -28 -5 -61h-323q3 -79 37.5 -130t109.5 -51q44 0 82 14.5t76 44.5l-1 -81q-65 -48 -153 -48q-73 0 -125 33.5t-79 93t-27 136.5q0 119 56.5 194t162.5 75q96 0 142.5 -62.5zM388 308q-2 139 -113 139q-58 0 -90.5 -39t-43.5 -100
h247zM193 695q8 -30 31.5 -47t51.5 -17t51.5 17t30.5 47l54 -14q-11 -53 -50 -82t-87 -29t-85.5 29t-48.5 82z" />
    <glyph glyph-name="ecaron" unicode="&#x11b;" horiz-adv-x="518" 
d="M418.5 455.5q46.5 -62.5 46.5 -157.5q0 -28 -5 -61h-323q3 -79 37.5 -130t109.5 -51q44 0 82 14.5t76 44.5l-1 -81q-65 -48 -153 -48q-73 0 -125 33.5t-79 93t-27 136.5q0 119 56.5 194t162.5 75q96 0 142.5 -62.5zM388 308q-2 139 -113 139q-58 0 -90.5 -39t-43.5 -100
h247zM420 676l-134 -107h-18l-136 106l32 41l114 -77l112 77z" />
    <glyph glyph-name="ecircumflex" unicode="&#xea;" horiz-adv-x="518" 
d="M418.5 455.5q46.5 -62.5 46.5 -157.5q0 -28 -5 -61h-323q3 -79 37.5 -130t109.5 -51q44 0 82 14.5t76 44.5l-1 -81q-65 -48 -153 -48q-73 0 -125 33.5t-79 93t-27 136.5q0 119 56.5 194t162.5 75q96 0 142.5 -62.5zM388 308q-2 139 -113 139q-58 0 -90.5 -39t-43.5 -100
h247zM278 646l-114 -77l-32 41l136 106h18l134 -107l-30 -40z" />
    <glyph glyph-name="edieresis" unicode="&#xeb;" horiz-adv-x="518" 
d="M418.5 455.5q46.5 -62.5 46.5 -157.5q0 -28 -5 -61h-323q3 -79 37.5 -130t109.5 -51q44 0 82 14.5t76 44.5l-1 -81q-65 -48 -153 -48q-73 0 -125 33.5t-79 93t-27 136.5q0 119 56.5 194t162.5 75q96 0 142.5 -62.5zM388 308q-2 139 -113 139q-58 0 -90.5 -39t-43.5 -100
h247zM146 611q-12 8 -12 34q0 24 13 33t36 9t36 -9t13 -33q0 -26 -12 -34t-37 -8t-37 8zM331 611q-12 8 -12 34q0 24 13 33t36 9t36.5 -9t13.5 -33q0 -26 -12.5 -34t-37.5 -8t-37 8z" />
    <glyph glyph-name="edotaccent" unicode="&#x117;" horiz-adv-x="518" 
d="M418.5 455.5q46.5 -62.5 46.5 -157.5q0 -28 -5 -61h-323q3 -79 37.5 -130t109.5 -51q44 0 82 14.5t76 44.5l-1 -81q-65 -48 -153 -48q-73 0 -125 33.5t-79 93t-27 136.5q0 119 56.5 194t162.5 75q96 0 142.5 -62.5zM388 308q-2 139 -113 139q-58 0 -90.5 -39t-43.5 -100
h247zM235 607.5q-13 8.5 -13 37.5q0 26 14.5 36t39.5 10q26 0 40 -10t14 -36q0 -29 -13 -37.5t-41 -8.5t-41 8.5z" />
    <glyph glyph-name="egrave" unicode="&#xe8;" horiz-adv-x="518" 
d="M418.5 455.5q46.5 -62.5 46.5 -157.5q0 -28 -5 -61h-323q3 -79 37.5 -130t109.5 -51q44 0 82 14.5t76 44.5l-1 -81q-65 -48 -153 -48q-73 0 -125 33.5t-79 93t-27 136.5q0 119 56.5 194t162.5 75q96 0 142.5 -62.5zM388 308q-2 139 -113 139q-58 0 -90.5 -39t-43.5 -100
h247zM207 726l136 -117l-36 -41l-148 102z" />
    <glyph glyph-name="emacron" unicode="&#x113;" horiz-adv-x="518" 
d="M418.5 455.5q46.5 -62.5 46.5 -157.5q0 -28 -5 -61h-323q3 -79 37.5 -130t109.5 -51q44 0 82 14.5t76 44.5l-1 -81q-65 -48 -153 -48q-73 0 -125 33.5t-79 93t-27 136.5q0 119 56.5 194t162.5 75q96 0 142.5 -62.5zM388 308q-2 139 -113 139q-58 0 -90.5 -39t-43.5 -100
h247zM135 690v-62h281v62h-281z" />
    <glyph glyph-name="eogonek" unicode="&#x119;" horiz-adv-x="518" 
d="M460 237h-323q7 -181 150 -181q79 0 155 59l-1 -81q-52 -38 -82 -78.5t-30 -70.5q0 -15 7.5 -24t23.5 -9q11 0 24 5t22 11l9 -54q-14 -11 -34.5 -18t-39.5 -7q-35 0 -55 22.5t-20 53.5q0 29 15.5 62t43.5 61q-24 -2 -37 -2q-109 0 -170 73t-61 193q0 75 24.5 135t74 95.5
t120.5 35.5q96 0 142.5 -62t46.5 -157q0 -29 -5 -62zM388 308q-1 62 -26.5 100.5t-85.5 38.5q-59 0 -91.5 -38.5t-43.5 -100.5h247z" />
    <glyph glyph-name="f" unicode="f" horiz-adv-x="310" 
d="M198.5 627q15.5 18 39.5 18q21 1 37 -3t35 -15v77q-28 7 -44.5 9t-40.5 1q-51 -1 -85 -36.5t-34 -93.5v-80h-74v-70h74v-434h77v434h114v70h-114v80q0 25 15.5 43z" />
    <glyph glyph-name="g" unicode="g" horiz-adv-x="568" 
d="M412 445l7 59h69v-504q0 -101 -57 -156.5t-163 -55.5q-91 0 -156 39v84q33 -28 70.5 -39.5t85.5 -11.5q67 0 105 36.5t38 103.5v81q-56 -71 -146 -71q-75 0 -121.5 38t-66.5 95.5t-20 120.5q0 109 53.5 181.5t158.5 72.5q87 0 143 -73zM198.5 421q-30.5 -28 -44.5 -70.5
t-14 -86.5t14 -87t44.5 -71t76.5 -28q47 0 77.5 27.5t44.5 70t14 88.5q0 74 -34 129.5t-102 55.5q-46 0 -76.5 -28z" />
    <glyph glyph-name="gbreve" unicode="&#x11f;" horiz-adv-x="568" 
d="M412 445l7 59h69v-504q0 -101 -57 -156.5t-163 -55.5q-91 0 -156 39v84q33 -28 70.5 -39.5t85.5 -11.5q67 0 105 36.5t38 103.5v81q-56 -71 -146 -71q-75 0 -121.5 38t-66.5 95.5t-20 120.5q0 109 53.5 181.5t158.5 72.5q87 0 143 -73zM198.5 421q-30.5 -28 -44.5 -70.5
t-14 -86.5t14 -87t44.5 -71t76.5 -28q47 0 77.5 27.5t44.5 70t14 88.5q0 74 -34 129.5t-102 55.5q-46 0 -76.5 -28zM210 706q8 -30 31.5 -47t51.5 -17t51.5 17t30.5 47l54 -14q-11 -53 -50 -82t-87 -29t-85.5 29t-48.5 82z" />
    <glyph glyph-name="gcircumflex" unicode="&#x11d;" horiz-adv-x="568" 
d="M412 445l7 59h69v-504q0 -101 -57 -156.5t-163 -55.5q-91 0 -156 39v84q33 -28 70.5 -39.5t85.5 -11.5q67 0 105 36.5t38 103.5v81q-56 -71 -146 -71q-75 0 -121.5 38t-66.5 95.5t-20 120.5q0 109 53.5 181.5t158.5 72.5q87 0 143 -73zM198.5 421q-30.5 -28 -44.5 -70.5
t-14 -86.5t14 -87t44.5 -71t76.5 -28q47 0 77.5 27.5t44.5 70t14 88.5q0 74 -34 129.5t-102 55.5q-46 0 -76.5 -28zM295 657l-114 -77l-32 41l136 106h18l134 -107l-30 -40z" />
    <glyph glyph-name="gcommaaccent" unicode="&#x123;" horiz-adv-x="568" 
d="M232 615q0 -28 8 -41t34 -13t35.5 13t9.5 38q0 22 -7.5 36t-26.5 16q0 19 9 38.5t23 33.5l-39 13q-46 -50 -46 -134zM412 445l7 59h69v-504q0 -101 -57 -156.5t-163 -55.5q-91 0 -156 39v84q33 -28 70.5 -39.5t85.5 -11.5q67 0 105 36.5t38 103.5v81q-56 -71 -146 -71
q-75 0 -121.5 38t-66.5 95.5t-20 120.5q0 109 53.5 181.5t158.5 72.5q87 0 143 -73zM198.5 421q-30.5 -28 -44.5 -70.5t-14 -86.5t14 -87t44.5 -71t76.5 -28q47 0 77.5 27.5t44.5 70t14 88.5q0 74 -34 129.5t-102 55.5q-46 0 -76.5 -28z" />
    <glyph glyph-name="gdotaccent" unicode="&#x121;" horiz-adv-x="568" 
d="M412 445l7 59h69v-504q0 -101 -57 -156.5t-163 -55.5q-91 0 -156 39v84q33 -28 70.5 -39.5t85.5 -11.5q67 0 105 36.5t38 103.5v81q-56 -71 -146 -71q-75 0 -121.5 38t-66.5 95.5t-20 120.5q0 109 53.5 181.5t158.5 72.5q87 0 143 -73zM198.5 421q-30.5 -28 -44.5 -70.5
t-14 -86.5t14 -87t44.5 -71t76.5 -28q47 0 77.5 27.5t44.5 70t14 88.5q0 74 -34 129.5t-102 55.5q-46 0 -76.5 -28zM252 618.5q-13 8.5 -13 37.5q0 26 14.5 36t39.5 10q26 0 40 -10t14 -36q0 -29 -13 -37.5t-41 -8.5t-41 8.5z" />
    <glyph glyph-name="h" unicode="h" horiz-adv-x="546" 
d="M392 0h77v344q0 83 -43 128.5t-128 45.5q-43 0 -80 -18.5t-61 -51.5v252h-77v-700h77v289q0 68 33.5 114.5t97.5 46.5q42 -1 73 -27.5t31 -78.5v-344z" />
    <glyph glyph-name="hbar" unicode="&#x127;" horiz-adv-x="546" 
d="M426 472.5q43 -45.5 43 -128.5v-344h-77v344q0 52 -31 78.5t-73 27.5q-64 0 -97.5 -46.5t-33.5 -114.5v-289h-77v564h-77v58h77v78h77v-78h117v-58h-117v-116q24 33 61 51.5t80 18.5q85 0 128 -45.5z" />
    <glyph glyph-name="hcircumflex" unicode="&#x125;" horiz-adv-x="546" 
d="M392 0h77v344q0 83 -43 128.5t-128 45.5q-43 0 -80 -18.5t-61 -51.5v252h-77v-700h77v289q0 68 33.5 114.5t97.5 46.5q42 -1 73 -27.5t31 -78.5v-344zM121 828l-114 -77l-32 41l136 106h18l134 -107l-30 -40z" />
    <glyph glyph-name="i" unicode="i" horiz-adv-x="248" 
d="M161 603q-9 -14 -37 -14q-26 0 -36 15t-10 40q0 26 10 40.5t36 15.5q28 0 37 -14t9 -42q0 -27 -9 -41zM86 504h77v-504h-77v504z" />
    <glyph glyph-name="dotlessi" unicode="&#x131;" horiz-adv-x="248" 
d="M86 504h77v-504h-77v504z" />
    <glyph glyph-name="iacute" unicode="&#xed;" horiz-adv-x="248" 
d="M86 504h77v-504h-77v504zM252 655l-147 -103l-36 41l136 117z" />
    <glyph glyph-name="ibreve" unicode="&#x12d;" horiz-adv-x="248" 
d="M86 504h77v-504h-77v504zM42 681q8 -30 31.5 -47t51.5 -17t51.5 17t30.5 47l54 -14q-11 -53 -50 -82t-87 -29t-85.5 29t-48.5 82z" />
    <glyph glyph-name="icircumflex" unicode="&#xee;" horiz-adv-x="248" 
d="M241 576l-35 -34l-80 71l-80 -71l-35 34l106 116h18zM86 504h77v-504h-77v504z" />
    <glyph glyph-name="idieresis" unicode="&#xef;" horiz-adv-x="248" 
d="M15 577q-12 8 -12 34q0 24 13 33t36 9t36 -9t13 -33q0 -26 -12 -34t-37 -8t-37 8zM160 577q-12 8 -12 34q0 24 13 33t36 9t36.5 -9t13.5 -33q0 -26 -12.5 -34t-37.5 -8t-37 8zM86 504h77v-504h-77v504z" />
    <glyph glyph-name="i.loclTRK" horiz-adv-x="248" 
d="M86 504h77v-504h-77v504zM84 573.5q-13 8.5 -13 37.5q0 26 14.5 36t39.5 10q26 0 40 -10t14 -36q0 -29 -13 -37.5t-41 -8.5t-41 8.5z" />
    <glyph glyph-name="igrave" unicode="&#xec;" horiz-adv-x="248" 
d="M86 504h77v-504h-77v504zM56 712l136 -117l-36 -41l-148 102z" />
    <glyph glyph-name="ij" unicode="&#x133;" horiz-adv-x="486" 
d="M161 603q-9 -14 -37 -14q-26 0 -36 15t-10 40q0 26 10 40.5t36 15.5q28 0 37 -14t9 -42q0 -27 -9 -41zM86 504h77v-504h-77v504zM398 603q-9 -14 -37 -14q-46 0 -46 55q0 25 10 40t36 16q28 0 37 -14t9 -42q0 -27 -9 -41zM305.5 -120.5q-17.5 -16.5 -49.5 -16.5
q-33 0 -59 16v-74q36 -11 72 -11q64 0 97.5 35t33.5 98v577h-77v-577q0 -31 -17.5 -47.5z" />
    <glyph glyph-name="imacron" unicode="&#x12b;" horiz-adv-x="248" 
d="M4 620v-56h241v56h-241zM86 504h77v-504h-77v504z" />
    <glyph glyph-name="iogonek" unicode="&#x12f;" horiz-adv-x="248" 
d="M88 604q-10 15 -10 40q0 26 10 40.5t36 15.5q28 0 37 -14t9 -42q0 -27 -9 -41t-37 -14q-26 0 -36 15zM193 -186q-14 -11 -34.5 -18t-39.5 -7q-35 0 -52.5 22t-17.5 57q0 59 46 132h-9v504h77v-504h-9q-20 -25 -33.5 -55.5t-13.5 -55.5q0 -37 31 -37q11 0 24 4.5t22 11.5z
" />
    <glyph glyph-name="itilde" unicode="&#x129;" horiz-adv-x="248" 
d="M86 504h77v-504h-77v504zM-14 595q15 36 34.5 52.5t44.5 16.5q29 0 71 -21q30 -16 46 -16q24 0 39 33l43 -23q-16 -35 -35 -51.5t-43 -16.5q-25 0 -63 19q-18 9 -29.5 13.5t-22.5 4.5q-27 0 -43 -35z" />
    <glyph glyph-name="j" unicode="j" horiz-adv-x="239" 
d="M151 603q-9 -14 -37 -14q-46 0 -46 55q0 25 10 40t36 16q28 0 37 -14t9 -42q0 -27 -9 -41zM58.5 -120.5q-17.5 -16.5 -49.5 -16.5q-33 0 -59 16v-74q36 -11 72 -11q64 0 97.5 35t33.5 98v577h-77v-577q0 -31 -17.5 -47.5z" />
    <glyph glyph-name="uni0237" unicode="&#x237;" horiz-adv-x="239" 
d="M58.5 -120.5q-17.5 -16.5 -49.5 -16.5q-33 0 -59 16v-74q36 -11 72 -11q64 0 97.5 35t33.5 98v577h-77v-577q0 -31 -17.5 -47.5z" />
    <glyph glyph-name="jcircumflex" unicode="&#x135;" horiz-adv-x="239" 
d="M195 540l-80 71l-80 -71l-35 34l106 116h18l106 -116zM58.5 -120.5q-17.5 -16.5 -49.5 -16.5q-33 0 -59 16v-74q36 -11 72 -11q64 0 97.5 35t33.5 98v577h-77v-577q0 -31 -17.5 -47.5z" />
    <glyph glyph-name="k" unicode="k" horiz-adv-x="509" 
d="M80 0v700h77v-700h-77zM369 504h95l-204 -236l229 -268h-98l-214 252v27z" />
    <glyph glyph-name="kcommaaccent" unicode="&#x137;" horiz-adv-x="509" 
d="M80 0v700h77v-700h-77zM369 504h95l-204 -236l229 -268h-98l-214 252v27zM303 -116q0 28 -8 41t-34 13t-35.5 -13t-9.5 -38q0 -22 7.5 -36t26.5 -16q0 -19 -9 -38.5t-23 -33.5l39 -13q46 50 46 134z" />
    <glyph glyph-name="kgreenlandic" unicode="&#x138;" horiz-adv-x="509" 
d="M80 0v504h77v-504h-77zM369 504h95l-204 -236l229 -268h-98l-214 252v27z" />
    <glyph glyph-name="l" unicode="l" horiz-adv-x="237" 
d="M80 700h77v-700h-77v700z" />
    <glyph glyph-name="lacute" unicode="&#x13a;" horiz-adv-x="237" 
d="M80 700h77v-700h-77v700zM246 851l-147 -103l-36 41l136 117z" />
    <glyph glyph-name="lcaron" unicode="&#x13e;" horiz-adv-x="329" 
d="M80 700h77v-700h-77v700zM314 646q0 28 -8 41t-34 13t-35.5 -13t-9.5 -38q0 -22 7.5 -36t26.5 -16q0 -19 -9 -38.5t-23 -33.5l39 -13q46 50 46 134z" />
    <glyph glyph-name="lcommaaccent" unicode="&#x13c;" horiz-adv-x="237" 
d="M80 700h77v-700h-77v700zM163 -116q0 28 -8 41t-34 13t-35.5 -13t-9.5 -38q0 -22 7.5 -36t26.5 -16q0 -19 -9 -38.5t-23 -33.5l39 -13q46 50 46 134z" />
    <glyph glyph-name="ldot" unicode="&#x140;" horiz-adv-x="338" 
d="M80 700h77v-700h-77v700zM328.5 264.5q-9.5 -14.5 -40.5 -14.5q-29 1 -40 16.5t-11 42.5t11 42.5t40 15.5q30 0 40 -14.5t10 -43.5q0 -30 -9.5 -44.5z" />
    <glyph glyph-name="lslash" unicode="&#x142;" horiz-adv-x="279" 
d="M178 307v-307h-77v263l-71 -41l-25 44l96 56v378h77v-334l70 41l26 -45z" />
    <glyph glyph-name="m" unicode="m" horiz-adv-x="807" 
d="M80 504h70l6 -50q26 31 61.5 47.5t76.5 16.5q47 0 78.5 -19.5t51.5 -60.5q29 40 64 60t83 20q77 0 118 -44t41 -120v-354h-77v342q0 43 -25.5 75t-68.5 32q-54 0 -83.5 -43t-31.5 -100v-306h-77v341q-1 44 -24.5 75.5t-68.5 31.5q-58 0 -87.5 -43.5t-29.5 -105.5v-299
h-77v504z" />
    <glyph glyph-name="n" unicode="n" 
d="M80 504h70l6 -53q26 31 62.5 49t78.5 18q83 0 127 -46.5t44 -126.5v-345h-77v345q0 47 -28 76t-77 29q-59 0 -94 -43.5t-35 -104.5v-302h-77v504z" />
    <glyph glyph-name="nacute" unicode="&#x144;" 
d="M80 504h70l6 -53q26 31 62.5 49t78.5 18q83 0 127 -46.5t44 -126.5v-345h-77v345q0 47 -28 76t-77 29q-59 0 -94 -43.5t-35 -104.5v-302h-77v504zM405 678l-147 -103l-36 41l136 117z" />
    <glyph glyph-name="napostrophe" unicode="&#x149;" horiz-adv-x="601" 
d="M136 504h70l6 -53q26 31 62.5 49t78.5 18q83 0 127 -46.5t44 -126.5v-345h-77v345q0 47 -28 76t-77 29q-59 0 -94 -43.5t-35 -104.5v-302h-77v504zM93 541q0 28 -8 41t-34 13t-35.5 -13t-9.5 -38q0 -22 7.5 -36t26.5 -16q0 -19 -9 -38.5t-23 -33.5l39 -13q46 50 46 134z
" />
    <glyph glyph-name="ncaron" unicode="&#x148;" 
d="M80 504h70l6 -53q26 31 62.5 49t78.5 18q83 0 127 -46.5t44 -126.5v-345h-77v345q0 47 -28 76t-77 29q-59 0 -94 -43.5t-35 -104.5v-302h-77v504zM422 685l-134 -107h-18l-136 106l32 41l114 -77l112 77z" />
    <glyph glyph-name="ncommaaccent" unicode="&#x146;" 
d="M80 504h70l6 -53q26 31 62.5 49t78.5 18q83 0 127 -46.5t44 -126.5v-345h-77v345q0 47 -28 76t-77 29q-59 0 -94 -43.5t-35 -104.5v-302h-77v504zM318 -116q0 28 -8 41t-34 13t-35.5 -13t-9.5 -38q0 -22 7.5 -36t26.5 -16q0 -19 -9 -38.5t-23 -33.5l39 -13q46 50 46 134z
" />
    <glyph glyph-name="eng" unicode="&#x14b;" 
d="M424 471.5q44 -46.5 44 -126.5v-418q0 -63 -33.5 -98t-97.5 -35q-36 0 -72 11v74q26 -16 59 -16q32 0 49.5 16.5t17.5 47.5v418q0 47 -28 76t-77 29q-59 0 -94 -43.5t-35 -104.5v-302h-77v504h70l6 -53q26 31 62.5 49t78.5 18q83 0 127 -46.5z" />
    <glyph glyph-name="ntilde" unicode="&#xf1;" 
d="M80 504h70l6 -53q26 31 62.5 49t78.5 18q83 0 127 -46.5t44 -126.5v-345h-77v345q0 47 -28 76t-77 29q-59 0 -94 -43.5t-35 -104.5v-302h-77v504zM139 638q15 36 34.5 52.5t44.5 16.5q29 0 71 -21q30 -16 46 -16q24 0 39 33l43 -23q-16 -35 -35 -51.5t-43 -16.5
q-25 0 -63 19q-18 9 -29.5 13.5t-22.5 4.5q-27 0 -43 -35z" />
    <glyph glyph-name="o" unicode="o" horiz-adv-x="562" 
d="M411.5 478q50.5 -40 72 -100.5t21.5 -125.5t-21.5 -125.5t-72 -100.5t-130.5 -40t-130.5 40t-72 100.5t-21.5 125.5t21.5 125.5t72 100.5t130.5 40t130.5 -40zM172.5 388q-32.5 -60 -32.5 -136t33 -136t108 -60t108 60t33 136t-32.5 136t-108.5 60t-108.5 -60z" />
    <glyph glyph-name="oacute" unicode="&#xf3;" horiz-adv-x="562" 
d="M411.5 478q50.5 -40 72 -100.5t21.5 -125.5t-21.5 -125.5t-72 -100.5t-130.5 -40t-130.5 40t-72 100.5t-21.5 125.5t21.5 125.5t72 100.5t130.5 40t130.5 -40zM172.5 388q-32.5 -60 -32.5 -136t33 -136t108 -60t108 60t33 136t-32.5 136t-108.5 60t-108.5 -60zM408 655
l-147 -103l-36 41l136 117z" />
    <glyph glyph-name="obreve" unicode="&#x14f;" horiz-adv-x="542" 
d="M324 692q24 8 39.5 18t15.5 11q25 -7 33 -36q0 -2 -18.5 -17.5t-50 -28.5t-73.5 -13t-73.5 13t-50 28.5t-18.5 17.5q9 27 33 36q0 -1 15.5 -11t39.5 -18t54 -8t54 8zM111.5 471.5q54.5 64.5 159.5 64.5t159.5 -64.5t54.5 -208.5t-54.5 -208.5t-159.5 -64.5t-159.5 64.5
t-54.5 208.5t54.5 208.5zM375.5 430.5q-35.5 48.5 -104.5 48.5t-104.5 -48.5t-35.5 -167.5t35.5 -167.5t104.5 -48.5t104.5 48.5t35.5 167.5t-35.5 167.5z" />
    <glyph glyph-name="ocircumflex" unicode="&#xf4;" horiz-adv-x="562" 
d="M411.5 478q50.5 -40 72 -100.5t21.5 -125.5t-21.5 -125.5t-72 -100.5t-130.5 -40t-130.5 40t-72 100.5t-21.5 125.5t21.5 125.5t72 100.5t130.5 40t130.5 -40zM172.5 388q-32.5 -60 -32.5 -136t33 -136t108 -60t108 60t33 136t-32.5 136t-108.5 60t-108.5 -60zM283 632
l-114 -77l-32 41l136 106h18l134 -107l-30 -40z" />
    <glyph glyph-name="odieresis" unicode="&#xf6;" horiz-adv-x="562" 
d="M411.5 478q50.5 -40 72 -100.5t21.5 -125.5t-21.5 -125.5t-72 -100.5t-130.5 -40t-130.5 40t-72 100.5t-21.5 125.5t21.5 125.5t72 100.5t130.5 40t130.5 -40zM172.5 388q-32.5 -60 -32.5 -136t33 -136t108 -60t108 60t33 136t-32.5 136t-108.5 60t-108.5 -60zM151 597
q-12 8 -12 34q0 24 13 33t36 9t36 -9t13 -33q0 -26 -12 -34t-37 -8t-37 8zM336 597q-12 8 -12 34q0 24 13 33t36 9t36.5 -9t13.5 -33q0 -26 -12.5 -34t-37.5 -8t-37 8z" />
    <glyph glyph-name="ograve" unicode="&#xf2;" horiz-adv-x="562" 
d="M411.5 478q50.5 -40 72 -100.5t21.5 -125.5t-21.5 -125.5t-72 -100.5t-130.5 -40t-130.5 40t-72 100.5t-21.5 125.5t21.5 125.5t72 100.5t130.5 40t130.5 -40zM172.5 388q-32.5 -60 -32.5 -136t33 -136t108 -60t108 60t33 136t-32.5 136t-108.5 60t-108.5 -60zM212 712
l136 -117l-36 -41l-148 102z" />
    <glyph glyph-name="ohungarumlaut" unicode="&#x151;" horiz-adv-x="562" 
d="M411.5 478q50.5 -40 72 -100.5t21.5 -125.5t-21.5 -125.5t-72 -100.5t-130.5 -40t-130.5 40t-72 100.5t-21.5 125.5t21.5 125.5t72 100.5t130.5 40t130.5 -40zM172.5 388q-32.5 -60 -32.5 -136t33 -136t108 -60t108 60t33 136t-32.5 136t-108.5 60t-108.5 -60zM311 680
l-88 -126l-48 27l73 135zM451 680l-88 -126l-48 27l73 135z" />
    <glyph glyph-name="omacron" unicode="&#x14d;" horiz-adv-x="562" 
d="M411.5 478q50.5 -40 72 -100.5t21.5 -125.5t-21.5 -125.5t-72 -100.5t-130.5 -40t-130.5 40t-72 100.5t-21.5 125.5t21.5 125.5t72 100.5t130.5 40t130.5 -40zM172.5 388q-32.5 -60 -32.5 -136t33 -136t108 -60t108 60t33 136t-32.5 136t-108.5 60t-108.5 -60zM140 676
v-62h281v62h-281z" />
    <glyph glyph-name="oslash" unicode="&#xf8;" horiz-adv-x="562" 
d="M487.5 367.5q17.5 -55.5 17.5 -114.5q0 -65 -21.5 -125.5t-72 -101t-130.5 -40.5q-62 0 -110 27l-30 -52l-44 25l33 58q-38 38 -55.5 94t-17.5 115q0 65 21.5 125t72 100t130.5 40q62 0 109 -26l30 52l45 -26l-33 -57q38 -38 55.5 -93.5zM171 114l183 315q-29 19 -73 19
q-76 0 -108.5 -59.5t-32.5 -135.5q0 -92 31 -139zM389 117q33 60 33 136q0 91 -31 138l-183 -315q29 -19 73 -19q75 0 108 60z" />
    <glyph glyph-name="oslashacute" unicode="&#x1ff;" horiz-adv-x="562" 
d="M487.5 367.5q17.5 -55.5 17.5 -114.5q0 -65 -21.5 -125.5t-72 -101t-130.5 -40.5q-62 0 -110 27l-30 -52l-44 25l33 58q-38 38 -55.5 94t-17.5 115q0 65 21.5 125t72 100t130.5 40q62 0 109 -26l30 52l45 -26l-33 -57q38 -38 55.5 -93.5zM171 114l183 315q-29 19 -73 19
q-76 0 -108.5 -59.5t-32.5 -135.5q0 -92 31 -139zM389 117q33 60 33 136q0 91 -31 138l-183 -315q29 -19 73 -19q75 0 108 60zM408 657l-147 -103l-36 41l136 117z" />
    <glyph glyph-name="otilde" unicode="&#xf5;" horiz-adv-x="562" 
d="M411.5 478q50.5 -40 72 -100.5t21.5 -125.5t-21.5 -125.5t-72 -100.5t-130.5 -40t-130.5 40t-72 100.5t-21.5 125.5t21.5 125.5t72 100.5t130.5 40t130.5 -40zM172.5 388q-32.5 -60 -32.5 -136t33 -136t108 -60t108 60t33 136t-32.5 136t-108.5 60t-108.5 -60zM142 615
q15 36 34.5 52.5t44.5 16.5q29 0 71 -21q30 -16 46 -16q24 0 39 33l43 -23q-16 -35 -35 -51.5t-43 -16.5q-25 0 -63 19q-18 9 -29.5 13.5t-22.5 4.5q-27 0 -43 -35z" />
    <glyph glyph-name="oe" unicode="&#x153;" horiz-adv-x="833" 
d="M775 237h-303q3 -82 33 -131.5t103 -49.5t149 59l-1 -81q-65 -48 -148 -48q-60 0 -104 27.5t-72 86.5q-45 -114 -166 -114q-76 0 -122.5 40t-66.5 100.5t-20 125.5t20 125.5t66.5 100.5t122.5 40q123 0 167 -117q52 117 164 117q93 0 138 -62.5t45 -156.5q0 -29 -5 -62z
M363.5 115.5q28.5 59.5 28.5 136.5t-28.5 136.5t-97.5 59.5t-97.5 -59.5t-28.5 -136.5t28.5 -136.5t97.5 -59.5t97.5 59.5zM703 308q-1 62 -25 100.5t-80 38.5q-55 0 -83 -37.5t-39 -101.5h227z" />
    <glyph glyph-name="p" unicode="p" horiz-adv-x="569" 
d="M80 -196h77v259q55 -77 143 -77q71 0 118.5 37t70.5 97.5t23 131.5q0 64 -21 124.5t-69 101t-125 40.5q-85 0 -140 -77v63h-77v-700zM396 390.5q34 -60.5 34 -138.5q0 -47 -13.5 -92.5t-44.5 -76t-79 -30.5q-69 0 -102.5 60.5t-33.5 138.5t33.5 138.5t102.5 60.5
t103 -60.5z" />
    <glyph glyph-name="thorn" unicode="&#xfe;" horiz-adv-x="569" 
d="M80 -196h77v259q55 -77 143 -77q71 0 118.5 37t70.5 97.5t23 131.5q0 64 -21 124.5t-69 101t-125 40.5q-85 0 -140 -77v259h-77v-896zM396 390.5q34 -60.5 34 -138.5q0 -47 -13.5 -92.5t-44.5 -76t-79 -30.5q-69 0 -102.5 60.5t-33.5 138.5t33.5 138.5t102.5 60.5
t103 -60.5z" />
    <glyph glyph-name="q" unicode="q" horiz-adv-x="569" 
d="M489 -196h-77v259q-55 -77 -143 -77q-71 0 -118.5 37t-70.5 97.5t-23 131.5q0 64 21 124.5t69 101t125 40.5q45 0 80.5 -21t61.5 -58l5 65h70v-700zM173 390.5q-34 -60.5 -34 -138.5q0 -47 13.5 -92.5t44.5 -76t79 -30.5q69 0 102.5 60.5t33.5 138.5t-33.5 138.5
t-102.5 60.5t-103 -60.5z" />
    <glyph glyph-name="r" unicode="r" horiz-adv-x="367" 
d="M80 504h72l5 -53q25 32 63 49.5t82 17.5q26 0 47 -4v-75q-20 11 -58 11q-39 0 -69.5 -21t-47.5 -57t-17 -78v-294h-77v504z" />
    <glyph glyph-name="racute" unicode="&#x155;" horiz-adv-x="367" 
d="M80 504h72l5 -53q25 32 63 49.5t82 17.5q26 0 47 -4v-75q-20 11 -58 11q-39 0 -69.5 -21t-47.5 -57t-17 -78v-294h-77v504zM342 682l-147 -103l-36 41l136 117z" />
    <glyph glyph-name="rcaron" unicode="&#x159;" horiz-adv-x="367" 
d="M217 642l-94 -77l-32 41l116 106h18l114 -107l-30 -40zM80 504h72l5 -53q25 32 63 49.5t82 17.5q26 0 47 -4v-75q-20 11 -58 11q-39 0 -69.5 -21t-47.5 -57t-17 -78v-294h-77v504z" />
    <glyph glyph-name="rcommaaccent" unicode="&#x157;" horiz-adv-x="367" 
d="M80 504h72l5 -53q25 32 63 49.5t82 17.5q26 0 47 -4v-75q-20 11 -58 11q-39 0 -69.5 -21t-47.5 -57t-17 -78v-294h-77v504zM163 -116q0 28 -8 41t-34 13t-35.5 -13t-9.5 -38q0 -22 7.5 -36t26.5 -16q0 -19 -9 -38.5t-23 -33.5l39 -13q46 50 46 134z" />
    <glyph glyph-name="s" unicode="s" horiz-adv-x="446" 
d="M202 57q52 0 82.5 20t30.5 62q0 39 -24.5 56t-74.5 31q-75 22 -116 55t-41 98q0 68 44 103.5t117 35.5q33 0 67 -7t62 -20l4 -81q-56 36 -120 36q-46 0 -69 -18.5t-23 -49.5q0 -38 28.5 -56.5t78.5 -31.5q62 -16 106.5 -48.5t44.5 -101.5q0 -72 -54 -113t-140 -41
q-69 0 -145 30l-6 87q69 -46 148 -46z" />
    <glyph glyph-name="sacute" unicode="&#x15b;" horiz-adv-x="446" 
d="M202 57q52 0 82.5 20t30.5 62q0 39 -24.5 56t-74.5 31q-75 22 -116 55t-41 98q0 68 44 103.5t117 35.5q33 0 67 -7t62 -20l4 -81q-56 36 -120 36q-46 0 -69 -18.5t-23 -49.5q0 -38 28.5 -56.5t78.5 -31.5q62 -16 106.5 -48.5t44.5 -101.5q0 -72 -54 -113t-140 -41
q-69 0 -145 30l-6 87q69 -46 148 -46zM346 655l-147 -103l-36 41l136 117z" />
    <glyph glyph-name="scaron" unicode="&#x161;" horiz-adv-x="446" 
d="M202 57q52 0 82.5 20t30.5 62q0 39 -24.5 56t-74.5 31q-75 22 -116 55t-41 98q0 68 44 103.5t117 35.5q33 0 67 -7t62 -20l4 -81q-56 36 -120 36q-46 0 -69 -18.5t-23 -49.5q0 -38 28.5 -56.5t78.5 -31.5q62 -16 106.5 -48.5t44.5 -101.5q0 -72 -54 -113t-140 -41
q-69 0 -145 30l-6 87q69 -46 148 -46zM363 662l-134 -107h-18l-136 106l32 41l114 -77l112 77z" />
    <glyph glyph-name="scedilla" unicode="&#x15f;" horiz-adv-x="446" 
d="M352 32.5q-47 -40.5 -124 -45.5l-14 -34q37 -5 55.5 -26.5t18.5 -50.5q0 -34 -24 -59.5t-65 -25.5q-46 0 -84 30l20 45q8 -9 24 -15.5t31 -6.5q14 1 23 7.5t12 16.5q2 10 2 13q0 21 -22.5 29.5t-48.5 9.5l26 67q-61 4 -122 29l-6 87q69 -46 148 -46q52 0 82.5 20t30.5 62
q0 39 -24.5 56t-74.5 31q-75 22 -116 55t-41 98q0 68 44 103.5t117 35.5q33 0 67 -7t62 -20l4 -81q-56 36 -120 36q-46 0 -69 -18.5t-23 -49.5q0 -38 28.5 -56.5t78.5 -31.5q62 -16 106.5 -48.5t44.5 -101.5q0 -67 -47 -107.5z" />
    <glyph glyph-name="scircumflex" unicode="&#x15d;" horiz-adv-x="446" 
d="M202 57q52 0 82.5 20t30.5 62q0 39 -24.5 56t-74.5 31q-75 22 -116 55t-41 98q0 68 44 103.5t117 35.5q33 0 67 -7t62 -20l4 -81q-56 36 -120 36q-46 0 -69 -18.5t-23 -49.5q0 -38 28.5 -56.5t78.5 -31.5q62 -16 106.5 -48.5t44.5 -101.5q0 -72 -54 -113t-140 -41
q-69 0 -145 30l-6 87q69 -46 148 -46zM221 632l-114 -77l-32 41l136 106h18l134 -107l-30 -40z" />
    <glyph glyph-name="scommaaccent" unicode="&#x219;" horiz-adv-x="446" 
d="M202 57q52 0 82.5 20t30.5 62q0 39 -24.5 56t-74.5 31q-75 22 -116 55t-41 98q0 68 44 103.5t117 35.5q33 0 67 -7t62 -20l4 -81q-56 36 -120 36q-46 0 -69 -18.5t-23 -49.5q0 -38 28.5 -56.5t78.5 -31.5q62 -16 106.5 -48.5t44.5 -101.5q0 -72 -54 -113t-140 -41
q-69 0 -145 30l-6 87q69 -46 148 -46zM252 -116q0 28 -8 41t-34 13t-35.5 -13t-9.5 -38q0 -22 7.5 -36t26.5 -16q0 -19 -9 -38.5t-23 -33.5l39 -13q46 50 46 134z" />
    <glyph glyph-name="germandbls" unicode="&#xdf;" horiz-adv-x="553" 
d="M285 0q100 0 157 55.5t57 151.5q0 70 -35.5 117.5t-103.5 62.5q108 49 108 153q0 79 -53 126.5t-140 47.5q-91 0 -143 -66t-52 -194v-454h77v454q0 98 31 144.5t87 46.5q50 0 81 -29.5t31 -75.5q0 -59 -36.5 -88.5t-100.5 -40.5l-29 -5v-70l34 5q18 3 33 3
q61 0 94.5 -36.5t33.5 -103.5q0 -60 -34.5 -96.5t-94.5 -36.5q-37 0 -69 13l3 -77q28 -7 64 -7z" />
    <glyph glyph-name="longs" unicode="&#x17f;" horiz-adv-x="278" 
d="M198.5 627q15.5 18 39.5 18q21 1 37 -3t35 -15v77q-28 7 -44.5 9t-40.5 1q-51 -1 -85 -36.5t-34 -93.5v-80h-74v-70h74v-434h77v584q0 25 15.5 43z" />
    <glyph glyph-name="t" unicode="t" horiz-adv-x="334" 
d="M28 504h78v104l77 17v-121h112v-70h-112v-311q0 -68 64 -69q31 0 62 17l1 -74q-24 -7 -40 -9t-37 -2q-61 0 -94 37t-33 99v312h-78v70z" />
    <glyph glyph-name="tbar" unicode="&#x167;" horiz-adv-x="334" 
d="M310 -3q-24 -7 -40 -9t-37 -2q-61 0 -94 37t-33 99v120h-63v58h63v134h-78v70h78v104l77 17v-121h112v-70h-112v-134h96v-58h-96v-119q0 -68 64 -69q31 0 62 17z" />
    <glyph glyph-name="tcaron" unicode="&#x165;" horiz-adv-x="334" 
d="M318 664q0 26 -7.5 38t-31.5 12t-32.5 -12t-8.5 -35q0 -21 6.5 -34t24.5 -14q0 -17 -8.5 -35.5t-21.5 -31.5l36 -12q43 46 43 124zM28 504h78v104l77 17v-121h112v-70h-112v-311q0 -68 64 -69q31 0 62 17l1 -74q-24 -7 -40 -9t-37 -2q-61 0 -94 37t-33 99v312h-78v70z
" />
    <glyph glyph-name="uni0163" unicode="&#x163;" horiz-adv-x="334" 
d="M28 504h78v104l77 17v-121h112v-70h-112v-311q0 -68 64 -69q31 0 62 17l1 -74q-24 -7 -40 -9t-37 -2q-61 0 -94 37t-33 99v312h-78v70zM246 -116q0 28 -8 41t-34 13t-35.5 -13t-9.5 -38q0 -22 7.5 -36t26.5 -16q0 -19 -9 -38.5t-23 -33.5l39 -13q46 50 46 134z" />
    <glyph glyph-name="uni021B" unicode="&#x21b;" horiz-adv-x="334" 
d="M28 504h78v104l77 17v-121h112v-70h-112v-311q0 -68 64 -69q31 0 62 17l1 -74q-24 -7 -40 -9t-37 -2q-61 0 -94 37t-33 99v312h-78v70zM246 -116q0 28 -8 41t-34 13t-35.5 -13t-9.5 -38q0 -22 7.5 -36t26.5 -16q0 -19 -9 -38.5t-23 -33.5l39 -13q46 50 46 134z" />
    <glyph glyph-name="u" unicode="u" 
d="M465 0h-71l-6 53q-25 -31 -61.5 -49t-78.5 -18q-83 0 -127 46.5t-44 126.5v345h77v-345q0 -47 27.5 -75.5t76.5 -28.5q60 0 95 43.5t35 104.5v301h77v-504z" />
    <glyph glyph-name="uacute" unicode="&#xfa;" 
d="M465 0h-71l-6 53q-25 -31 -61.5 -49t-78.5 -18q-83 0 -127 46.5t-44 126.5v345h77v-345q0 -47 27.5 -75.5t76.5 -28.5q60 0 95 43.5t35 104.5v301h77v-504zM398 655l-147 -103l-36 41l136 117z" />
    <glyph glyph-name="ucircumflex" unicode="&#xfb;" 
d="M465 0h-71l-6 53q-25 -31 -61.5 -49t-78.5 -18q-83 0 -127 46.5t-44 126.5v345h77v-345q0 -47 27.5 -75.5t76.5 -28.5q60 0 95 43.5t35 104.5v301h77v-504zM273 632l-114 -77l-32 41l136 106h18l134 -107l-30 -40z" />
    <glyph glyph-name="udieresis" unicode="&#xfc;" 
d="M465 0h-71l-6 53q-25 -31 -61.5 -49t-78.5 -18q-83 0 -127 46.5t-44 126.5v345h77v-345q0 -47 27.5 -75.5t76.5 -28.5q60 0 95 43.5t35 104.5v301h77v-504zM141 597q-12 8 -12 34q0 24 13 33t36 9t36 -9t13 -33q0 -26 -12 -34t-37 -8t-37 8zM326 597q-12 8 -12 34
q0 24 13 33t36 9t36.5 -9t13.5 -33q0 -26 -12.5 -34t-37.5 -8t-37 8z" />
    <glyph glyph-name="ugrave" unicode="&#xf9;" 
d="M465 0h-71l-6 53q-25 -31 -61.5 -49t-78.5 -18q-83 0 -127 46.5t-44 126.5v345h77v-345q0 -47 27.5 -75.5t76.5 -28.5q60 0 95 43.5t35 104.5v301h77v-504zM202 712l136 -117l-36 -41l-148 102z" />
    <glyph glyph-name="uhungarumlaut" unicode="&#x171;" 
d="M465 0h-71l-6 53q-25 -31 -61.5 -49t-78.5 -18q-83 0 -127 46.5t-44 126.5v345h77v-345q0 -47 27.5 -75.5t76.5 -28.5q60 0 95 43.5t35 104.5v301h77v-504zM301 680l-88 -126l-48 27l73 135zM441 680l-88 -126l-48 27l73 135z" />
    <glyph glyph-name="umacron" unicode="&#x16b;" 
d="M465 0h-71l-6 53q-25 -31 -61.5 -49t-78.5 -18q-83 0 -127 46.5t-44 126.5v345h77v-345q0 -47 27.5 -75.5t76.5 -28.5q60 0 95 43.5t35 104.5v301h77v-504zM130 676v-62h281v62h-281z" />
    <glyph glyph-name="uogonek" unicode="&#x173;" 
d="M401.5 -54.5q-24.5 -32.5 -24.5 -59.5q0 -15 7.5 -24.5t23.5 -9.5q11 0 24 5t22 11l9 -54q-14 -11 -34.5 -18t-39.5 -7q-36 0 -53 22t-17 58q0 31 19.5 65t55.5 66l-6 53q-25 -31 -61.5 -49t-78.5 -18q-83 0 -127 46.5t-44 126.5v345h77v-345q0 -47 27.5 -75.5
t76.5 -28.5q60 0 95 43.5t35 104.5v301h77v-504h-12q-27 -22 -51.5 -54.5z" />
    <glyph glyph-name="uring" unicode="&#x16f;" 
d="M465 0h-71l-6 53q-25 -31 -61.5 -49t-78.5 -18q-83 0 -127 46.5t-44 126.5v345h77v-345q0 -47 27.5 -75.5t76.5 -28.5q60 0 95 43.5t35 104.5v301h77v-504zM349.5 559q-31.5 -27 -77.5 -27t-79.5 25.5t-33.5 72.5t32.5 73.5t77.5 26.5t78.5 -26.5t33.5 -73.5
q0 -44 -31.5 -71zM310.5 672.5q-17.5 14.5 -41.5 14.5q-23 0 -40 -15t-17 -42q0 -26 17.5 -40t40.5 -14q24 0 41 14t17 40q0 28 -17.5 42.5z" />
    <glyph glyph-name="utilde" unicode="&#x169;" 
d="M465 0h-71l-6 53q-25 -31 -61.5 -49t-78.5 -18q-83 0 -127 46.5t-44 126.5v345h77v-345q0 -47 27.5 -75.5t76.5 -28.5q60 0 95 43.5t35 104.5v301h77v-504zM132 615q15 36 34.5 52.5t44.5 16.5q29 0 71 -21q30 -16 46 -16q24 0 39 33l43 -23q-16 -35 -35 -51.5t-43 -16.5
q-25 0 -63 19q-18 9 -29.5 13.5t-22.5 4.5q-27 0 -43 -35z" />
    <glyph glyph-name="v" unicode="v" horiz-adv-x="511" 
d="M194 304l-83 200h-86l218 -518h25l218 518h-88l-84 -200l-60 -174z" />
    <glyph glyph-name="w" unicode="w" horiz-adv-x="776" 
d="M186 299l-73 205h-84l187 -518h23l149 355l149 -355h24l186 518h-83l-74 -205l-44 -151l-145 344h-25l-146 -344z" />
    <glyph glyph-name="wacute" unicode="&#x1e83;" horiz-adv-x="776" 
d="M186 299l-73 205h-84l187 -518h23l149 355l149 -355h24l186 518h-83l-74 -205l-44 -151l-145 344h-25l-146 -344zM516 655l-147 -103l-36 41l136 117z" />
    <glyph glyph-name="wcircumflex" unicode="&#x175;" horiz-adv-x="776" 
d="M186 299l-73 205h-84l187 -518h23l149 355l149 -355h24l186 518h-83l-74 -205l-44 -151l-145 344h-25l-146 -344zM391 632l-114 -77l-32 41l136 106h18l134 -107l-30 -40z" />
    <glyph glyph-name="wdieresis" unicode="&#x1e85;" horiz-adv-x="776" 
d="M186 299l-73 205h-84l187 -518h23l149 355l149 -355h24l186 518h-83l-74 -205l-44 -151l-145 344h-25l-146 -344zM259 597q-12 8 -12 34q0 24 13 33t36 9t36 -9t13 -33q0 -26 -12 -34t-37 -8t-37 8zM444 597q-12 8 -12 34q0 24 13 33t36 9t36.5 -9t13.5 -33
q0 -26 -12.5 -34t-37.5 -8t-37 8z" />
    <glyph glyph-name="wgrave" unicode="&#x1e81;" horiz-adv-x="776" 
d="M186 299l-73 205h-84l187 -518h23l149 355l149 -355h24l186 518h-83l-74 -205l-44 -151l-145 344h-25l-146 -344zM320 712l136 -117l-36 -41l-148 102z" />
    <glyph glyph-name="x" unicode="x" horiz-adv-x="500" 
d="M383 0h94l-178 270l152 234h-94l-107 -172l-105 172h-95l152 -234l-179 -270h94l133 213z" />
    <glyph glyph-name="y" unicode="y" horiz-adv-x="517" 
d="M408 504l-76 -202l-63 -182l-73 182l-85 202h-86l205 -478l-42 -112q-8 -24 -23 -35.5t-39 -11.5q-15 0 -33 5t-34 13v-70q15 -11 35 -16t38 -5q47 0 82 30.5t51 76.5l226 603h-83z" />
    <glyph glyph-name="yacute" unicode="&#xfd;" horiz-adv-x="517" 
d="M408 504l-76 -202l-63 -182l-73 182l-85 202h-86l205 -478l-42 -112q-8 -24 -23 -35.5t-39 -11.5q-15 0 -33 5t-34 13v-70q15 -11 35 -16t38 -5q47 0 82 30.5t51 76.5l226 603h-83zM387 665l-147 -103l-36 41l136 117z" />
    <glyph glyph-name="ycircumflex" unicode="&#x177;" horiz-adv-x="517" 
d="M408 504l-76 -202l-63 -182l-73 182l-85 202h-86l205 -478l-42 -112q-8 -24 -23 -35.5t-39 -11.5q-15 0 -33 5t-34 13v-70q15 -11 35 -16t38 -5q47 0 82 30.5t51 76.5l226 603h-83zM262 642l-114 -77l-32 41l136 106h18l134 -107l-30 -40z" />
    <glyph glyph-name="ydieresis" unicode="&#xff;" horiz-adv-x="517" 
d="M408 504l-76 -202l-63 -182l-73 182l-85 202h-86l205 -478l-42 -112q-8 -24 -23 -35.5t-39 -11.5q-15 0 -33 5t-34 13v-70q15 -11 35 -16t38 -5q47 0 82 30.5t51 76.5l226 603h-83zM130 607q-12 8 -12 34q0 24 13 33t36 9t36 -9t13 -33q0 -26 -12 -34t-37 -8t-37 8z
M315 607q-12 8 -12 34q0 24 13 33t36 9t36.5 -9t13.5 -33q0 -26 -12.5 -34t-37.5 -8t-37 8z" />
    <glyph glyph-name="ygrave" unicode="&#x1ef3;" horiz-adv-x="517" 
d="M408 504l-76 -202l-63 -182l-73 182l-85 202h-86l205 -478l-42 -112q-8 -24 -23 -35.5t-39 -11.5q-15 0 -33 5t-34 13v-70q15 -11 35 -16t38 -5q47 0 82 30.5t51 76.5l226 603h-83zM191 722l136 -117l-36 -41l-148 102z" />
    <glyph glyph-name="z" unicode="z" horiz-adv-x="461" 
d="M407 504v-23l-252 -413h260v-68h-375v27l253 409h-231v68h345z" />
    <glyph glyph-name="zacute" unicode="&#x17a;" horiz-adv-x="461" 
d="M407 504v-23l-252 -413h260v-68h-375v27l253 409h-231v68h345zM355 655l-147 -103l-36 41l136 117z" />
    <glyph glyph-name="zcaron" unicode="&#x17e;" horiz-adv-x="461" 
d="M407 504v-23l-252 -413h260v-68h-375v27l253 409h-231v68h345zM372 662l-134 -107h-18l-136 106l32 41l114 -77l112 77z" />
    <glyph glyph-name="zdotaccent" unicode="&#x17c;" horiz-adv-x="461" 
d="M407 504v-23l-252 -413h260v-68h-375v27l253 409h-231v68h345zM187 593.5q-13 8.5 -13 37.5q0 26 14.5 36t39.5 10q26 0 40 -10t14 -36q0 -29 -13 -37.5t-41 -8.5t-41 8.5z" />
    <glyph glyph-name="ordfeminine" unicode="&#xaa;" horiz-adv-x="361" 
d="M249 507q-10 1 -32 1q-23 0 -47 -3q-50 -7 -82 -34.5t-32 -76.5q0 -42 29.5 -71t77.5 -29q25 0 47.5 12.5t38.5 33.5l6 -37h43v216q0 51 -33 81t-85 30q-26 -1 -48 -7t-49 -19l-2 -47q41 30 95 30q34 0 53.5 -19t19.5 -51v-10zM225 362q-23 -24 -59 -24q-25 0 -41.5 17
t-16.5 44q0 34 26.5 49.5t63.5 18.5q9 1 27 1q17 0 24 -1v-42q-1 -39 -24 -63zM298 201h-237v43h237v-43z" />
    <glyph glyph-name="ordmasculine" unicode="&#xba;" horiz-adv-x="377" 
d="M295.5 346q33.5 51 33.5 117t-33.5 117t-107.5 51t-107.5 -51t-33.5 -117t33.5 -117t107.5 -51t107.5 51zM256.5 549q20.5 -38 20.5 -86t-20.5 -86t-68.5 -38t-68.5 38t-20.5 86t20.5 86t68.5 38t68.5 -38zM307 244v-43h-237v43h237z" />
    <glyph glyph-name="uni0410" unicode="&#x410;" horiz-adv-x="652" 
d="M109 0h-91l296 712h19l301 -712h-96l-60 148h-309zM323 530l-124 -307h248z" />
    <glyph glyph-name="uni0411" unicode="&#x411;" horiz-adv-x="569" 
d="M96 700h361v-76h-277v-193h92q112 0 180.5 -53t68.5 -163q0 -106 -69.5 -160.5t-179.5 -54.5h-176v700zM272 75q75 0 117.5 35.5t42.5 104.5q0 72 -42.5 106.5t-117.5 34.5h-92v-281h92z" />
    <glyph glyph-name="uni0412" unicode="&#x412;" horiz-adv-x="582" 
d="M490 311.5q32 -45.5 32 -113.5q0 -104 -63.5 -151t-172.5 -47h-190v700h180q93 0 153 -44.5t60 -135.5q0 -50 -24.5 -87t-70.5 -58q64 -18 96 -63.5zM180 406h96q55 0 88 27.5t33 81.5q0 109 -121 109h-96v-218zM180 75h106q70 0 106 30.5t36 97.5q0 128 -152 128h-96
v-256z" />
    <glyph glyph-name="uni0413" unicode="&#x413;" horiz-adv-x="469" 
d="M96 700h349v-76h-265v-624h-84v700z" />
    <glyph glyph-name="uni0414" unicode="&#x414;" horiz-adv-x="691" 
d="M605 75l-250 637h-19l-250 -637h-56v-204h80l4 129h463l3 -129h81v204h-56zM346 524l169 -449h-339z" />
    <glyph glyph-name="uni0415" unicode="&#x415;" horiz-adv-x="522" 
d="M96 700h370v-76h-286v-218h264v-76h-264v-255h296v-75h-380v700z" />
    <glyph glyph-name="uni0401" unicode="&#x401;" horiz-adv-x="522" 
d="M96 700h370v-76h-286v-218h264v-76h-264v-255h296v-75h-380v700zM151 793q-12 8 -12 34q0 24 13 33t36 9t36 -9t13 -33q0 -26 -12 -34t-37 -8t-37 8zM336 793q-12 8 -12 34q0 24 13 33t36 9t36.5 -9t13.5 -33q0 -26 -12.5 -34t-37.5 -8t-37 8z" />
    <glyph glyph-name="uni0416" unicode="&#x416;" horiz-adv-x="909" 
d="M394 380l-227 320h-101l231 -325l-278 -375h108l267 361v19zM497 0v700h-84v-700h84zM515 380l227 320h101l-232 -325l279 -375h-108l-267 361v19z" />
    <glyph glyph-name="uni0417" unicode="&#x417;" horiz-adv-x="534" 
d="M154 408v-75h97q61 0 98.5 -34.5t37.5 -92.5q0 -68 -47.5 -106t-121.5 -38q-93 0 -177 66l-1 -91q44 -29 93 -40t109 -11q65 0 118 28t83.5 78.5t30.5 113.5q0 67 -38.5 112.5t-104.5 65.5q48 15 76 57.5t28 100.5q0 51 -26.5 90t-72 60.5t-102.5 21.5q-41 0 -82.5 -12
t-77.5 -34l-1 -80q70 50 149 51q58 0 92 -32.5t34 -81.5t-35 -83t-85 -34h-74z" />
    <glyph glyph-name="uni0418" unicode="&#x418;" horiz-adv-x="683" 
d="M568 712l-388 -514v502h-84v-713h18l389 515v-502h84v712h-19z" />
    <glyph glyph-name="uni0419" unicode="&#x419;" horiz-adv-x="682" 
d="M363 809q-70 0 -141 30l5 -73q57 -29 136 -29t136 29l5 73q-70 -30 -141 -30zM568 712l-388 -514v502h-84v-713h18l389 515v-502h84v712h-19z" />
    <glyph glyph-name="uni041A" unicode="&#x41a;" horiz-adv-x="634" 
d="M96 700h84v-700h-84v700zM466 700l-250 -324v-19l291 -357h109l-303 373l256 327h-103z" />
    <glyph glyph-name="uni041B" unicode="&#x41b;" horiz-adv-x="634" 
d="M304 712l-286 -712h91l204 530l207 -530h96l-293 712h-19z" />
    <glyph glyph-name="uni041C" unicode="&#x41c;" horiz-adv-x="765" 
d="M389 104l193 387l79 -491h86l-122 712h-19l-227 -458l-226 458h-19l-116 -712h86l73 491l193 -387h19z" />
    <glyph glyph-name="uni041D" unicode="&#x41d;" horiz-adv-x="661" 
d="M96 700h84v-297h301v297h84v-700h-84v328h-301v-328h-84v700z" />
    <glyph glyph-name="uni041E" unicode="&#x41e;" horiz-adv-x="703" 
d="M569.5 611q68.5 -103 68.5 -261t-68 -261t-218 -103t-218.5 103.5t-68.5 260.5q0 158 69 261t218 103t217.5 -103zM235.5 594.5q-44.5 -43.5 -64 -109.5t-19.5 -135q0 -70 19.5 -135.5t64.5 -109t116 -43.5t115.5 43.5t64 109t19.5 135.5t-19.5 135.5t-64 109
t-115.5 43.5q-72 0 -116.5 -43.5z" />
    <glyph glyph-name="uni041F" unicode="&#x41f;" horiz-adv-x="652" 
d="M96 700h460v-700h-84v625h-292v-625h-84v700z" />
    <glyph glyph-name="uni0420" unicode="&#x420;" horiz-adv-x="567" 
d="M96 0h84v269h91q113 0 181.5 53.5t68.5 162.5q0 106 -69.5 160.5t-180.5 54.5h-175v-700zM271 625q75 0 117.5 -35.5t42.5 -104.5q0 -72 -42.5 -106t-117.5 -34h-91v280h91z" />
    <glyph glyph-name="uni0421" unicode="&#x421;" horiz-adv-x="533" 
d="M421.5 631q25.5 -7 55.5 -29v87q-54 25 -122 25q-151 0 -220.5 -102t-69.5 -262t69.5 -262t220.5 -102q37 0 74 9t68 26v85q-62 -44 -142 -44q-73 0 -118.5 42.5t-65 107.5t-19.5 138t19.5 138t65.5 107.5t119 42.5q40 0 65.5 -7z" />
    <glyph glyph-name="uni0422" unicode="&#x422;" horiz-adv-x="520" 
d="M218 625h-189v75h462v-75h-189v-625h-84v625z" />
    <glyph glyph-name="uni0423" unicode="&#x423;" horiz-adv-x="559" 
d="M445 700l-153 -408l-178 408h-93l231 -516q-23 -56 -53 -85.5t-83 -29.5q-15 0 -23 1v-83q82 -4 130.5 25.5t74.5 77t61 140.5l177 470h-91z" />
    <glyph glyph-name="uni0424" unicode="&#x424;" horiz-adv-x="816" 
d="M88.5 524q39.5 73 111 114t166.5 49v82h84v-82q95 -8 166.5 -49t111 -114t39.5 -174q0 -100 -39.5 -173.5t-111 -114.5t-166.5 -49v-82h-84v82q-95 8 -166.5 49t-111 114.5t-39.5 173.5q0 101 39.5 174zM198 532q-61 -68 -61 -182q0 -113 61 -181t168 -79v521
q-107 -11 -168 -79zM618 169q61 68 61 181q0 114 -61 182t-168 79v-521q107 11 168 79z" />
    <glyph glyph-name="uni0425" unicode="&#x425;" horiz-adv-x="637" 
d="M613 0h-98l-197 300l-197 -300h-98l246 375l-212 325h98l163 -249l163 249h98l-212 -325z" />
    <glyph glyph-name="uni0427" unicode="&#x427;" horiz-adv-x="603" 
d="M423 281q-58 -34 -130 -34q-70 0 -123 28.5t-82 81t-29 124.5v219h84v-220q0 -72 43.5 -113.5t116.5 -42.5q31 0 63.5 10.5t56.5 29.5v336h84v-700h-84v281z" />
    <glyph glyph-name="uni0426" unicode="&#x426;" horiz-adv-x="654" 
d="M96 700h84v-624h291v624h84v-624h53v-204h-80l-4 128h-428v700z" />
    <glyph glyph-name="uni0428" unicode="&#x428;" horiz-adv-x="916" 
d="M96 700h84v-624h236v624h84v-624h236v624h84v-700h-724v700z" />
    <glyph glyph-name="uni0429" unicode="&#x429;" horiz-adv-x="920" 
d="M874 -128h-80l-4 128h-694v700h84v-624h236v624h84v-624h236v624h84v-624h54v-204z" />
    <glyph glyph-name="uni042F" unicode="&#x42f;" horiz-adv-x="617" 
d="M392 343v20h-65q-70 0 -110.5 33.5t-40.5 101.5q0 66 41 96t110 30h110v-624h84v700h-194q-108 0 -174.5 -49t-66.5 -153q0 -86 47 -137t127 -66l-214 -295h104z" />
    <glyph glyph-name="uni042C" unicode="&#x42c;" horiz-adv-x="567" 
d="M96 0v700h84v-268h92q112 0 180.5 -53.5t68.5 -162.5q0 -106 -69.5 -161t-179.5 -55h-176zM389.5 111.5q42.5 35.5 42.5 104.5q0 71 -42.5 105.5t-117.5 34.5h-92v-280h92q75 0 117.5 35.5z" />
    <glyph glyph-name="uni042A" unicode="&#x42a;" horiz-adv-x="650" 
d="M26 700h237v-268h92q112 0 180.5 -53.5t68.5 -162.5q0 -106 -69 -161t-180 -55h-176v625h-153v75zM355 76q75 0 117.5 35.5t42.5 104.5q0 71 -42.5 105.5t-117.5 34.5h-92v-280h92z" />
    <glyph glyph-name="uni042B" unicode="&#x42b;" horiz-adv-x="772" 
d="M96 0v700h84v-268h92q112 0 180.5 -53.5t68.5 -162.5q0 -106 -69.5 -161t-179.5 -55h-176zM389.5 111.5q42.5 35.5 42.5 104.5q0 71 -42.5 105.5t-117.5 34.5h-92v-280h92q75 0 117.5 35.5zM592 700h84v-700h-84v700z" />
    <glyph glyph-name="uni042D" unicode="&#x42d;" horiz-adv-x="533" 
d="M398.5 612q69.5 -102 69.5 -262t-69.5 -262t-220.5 -102q-37 0 -74 9t-68 26v85q62 -44 142 -44q97 0 145.5 72.5t56.5 177.5h-220v76h220q-8 105 -57 177.5t-146 72.5q-40 0 -65.5 -7t-55.5 -29v87q54 25 122 25q151 0 220.5 -102z" />
    <glyph glyph-name="uni042E" unicode="&#x42e;" horiz-adv-x="921" 
d="M788 611q68 -103 68 -261q0 -156 -67.5 -260t-216.5 -104q-141 0 -208.5 93.5t-74.5 237.5h-109v-317h-84v700h84v-307h109q9 141 77 231t206 90q148 0 216 -103zM453.5 594.5q-44.5 -43.5 -64 -109t-19.5 -135.5t19.5 -135.5t64 -109t115.5 -43.5t115.5 43.5t64 109.5
t19.5 135q0 70 -19.5 135.5t-64 109t-115.5 43.5t-115.5 -43.5z" />
    <glyph glyph-name="uni0430" unicode="&#x430;" horiz-adv-x="506" 
d="M352 324q-34 2 -53 2q-33 0 -73 -5q-79 -12 -129.5 -55.5t-50.5 -120.5q0 -44 21 -80t59 -57.5t89 -21.5q40 0 75.5 19.5t61.5 53.5l9 -59h68v343q0 81 -52 128t-134 47q-41 -1 -76.5 -10t-78.5 -30l-2 -76q68 51 159 48q49 -1 78 -31t29 -79v-16zM314 93.5
q-37 -37.5 -94 -37.5q-38 0 -64.5 26t-26.5 68q0 56 42 81t100 29q12 1 36 1q32 0 45 -1v-67q-1 -62 -38 -99.5z" />
    <glyph glyph-name="uni0431" unicode="&#x431;" horiz-adv-x="562" 
d="M395 703.5q-31 -8.5 -79 -14.5l-26 -3q-94 -13 -142 -68t-63 -140t-15 -217q0 -121 50.5 -198t166.5 -77q77 0 126 37t70.5 94t21.5 121q0 106 -49 176t-150 70q-104 0 -158 -80q10 72 23.5 112t42.5 63.5t84 32.5l27 4q46 7 76 14.5t58 23.5l-6 80q-27 -22 -58 -30.5z
M390.5 364q32.5 -52 32.5 -126t-33.5 -128.5t-102.5 -54.5t-101.5 55t-32.5 128t33.5 125.5t102.5 52.5t101.5 -52z" />
    <glyph glyph-name="uni0432" unicode="&#x432;" horiz-adv-x="553" 
d="M131.5 51.5q51.5 -65.5 151.5 -65.5t158 58.5t58 155.5q0 71 -36 121.5t-103 65.5q54 25 81 63t27 94q0 80 -51.5 125t-131.5 45q-103 0 -154 -69t-51 -194v-231q0 -103 51.5 -168.5zM157 481q0 67 30.5 115.5t92.5 48.5q52 0 79.5 -28.5t27.5 -80.5q0 -57 -37 -85.5
t-100 -39.5l-93 -16v86zM255 341q17 3 31 3q60 0 95 -40t35 -107q0 -61 -34.5 -100.5t-94.5 -39.5q-62 0 -96 44t-34 108v116z" />
    <glyph glyph-name="uni0433" unicode="&#x433;" horiz-adv-x="446" 
d="M238 57q-45 0 -74.5 19.5t-29.5 62.5q0 36 26 55.5t75 34.5q51 17 82 32t51.5 43t20.5 73q0 70 -50 105.5t-124 35.5q-32 0 -66.5 -8t-62.5 -22l-1 -81q60 38 130 38q44 0 68 -17.5t24 -47.5q0 -27 -15.5 -44t-34.5 -25.5t-58 -21.5q-47 -16 -76.5 -31t-51 -44.5
t-21.5 -76.5q0 -71 52 -111t135 -40q78 0 157 33l2 83q-64 -45 -158 -45z" />
    <glyph glyph-name="uni0434" unicode="&#x434;" horiz-adv-x="568" 
d="M412 445l7 59h69v-504q0 -101 -57 -156.5t-163 -55.5q-91 0 -156 39v84q33 -28 70.5 -39.5t85.5 -11.5q67 0 105 36.5t38 103.5v81q-56 -71 -146 -71q-75 0 -121.5 38t-66.5 95.5t-20 120.5q0 109 53.5 181.5t158.5 72.5q87 0 143 -73zM198.5 421q-30.5 -28 -44.5 -70.5
t-14 -86.5t14 -87t44.5 -71t76.5 -28q47 0 77.5 27.5t44.5 70t14 88.5q0 74 -34 129.5t-102 55.5q-46 0 -76.5 -28z" />
    <glyph glyph-name="uni0435" unicode="&#x435;" horiz-adv-x="518" 
d="M418.5 455.5q46.5 -62.5 46.5 -157.5q0 -28 -5 -61h-323q3 -79 37.5 -130t109.5 -51q44 0 82 14.5t76 44.5l-1 -81q-65 -48 -153 -48q-73 0 -125 33.5t-79 93t-27 136.5q0 119 56.5 194t162.5 75q96 0 142.5 -62.5zM388 308q-2 139 -113 139q-58 0 -90.5 -39t-43.5 -100
h247z" />
    <glyph glyph-name="uni0451" unicode="&#x451;" horiz-adv-x="518" 
d="M418.5 455.5q46.5 -62.5 46.5 -157.5q0 -28 -5 -61h-323q3 -79 37.5 -130t109.5 -51q44 0 82 14.5t76 44.5l-1 -81q-65 -48 -153 -48q-73 0 -125 33.5t-79 93t-27 136.5q0 119 56.5 194t162.5 75q96 0 142.5 -62.5zM388 308q-2 139 -113 139q-58 0 -90.5 -39t-43.5 -100
h247zM146 611q-12 8 -12 34q0 24 13 33t36 9t36 -9t13 -33q0 -26 -12 -34t-37 -8t-37 8zM331 611q-12 8 -12 34q0 24 13 33t36 9t36.5 -9t13.5 -33q0 -26 -12.5 -34t-37.5 -8t-37 8z" />
    <glyph glyph-name="uni0436" unicode="&#x436;" horiz-adv-x="741" 
d="M409 700v-700h-77v700h77zM119 0h-99l209 268l-183 236h95l171 -223v-30zM601 504h95l-183 -236l208 -268h-98l-194 251v30z" />
    <glyph glyph-name="uni0437" unicode="&#x437;" horiz-adv-x="472" 
d="M185 137q68 0 104.5 -35t36.5 -102q0 -64 -42.5 -101.5t-109.5 -37.5q-38 0 -74.5 14t-62.5 36v-91q72 -31 148 -31q103 0 167 55.5t64 155.5q0 65 -33.5 115.5t-93.5 62.5q52 24 78 61t26 94t-26 99t-71.5 64t-101.5 22q-37 0 -75 -9.5t-67 -28.5v-82q27 20 64 34.5
t71 14.5q53 0 86.5 -33.5t33.5 -85.5q1 -54 -33 -86t-89 -32h-74v-73h74z" />
    <glyph glyph-name="uni0438" unicode="&#x438;" 
d="M465 0h-70l-6 53q-26 -31 -62.5 -49t-78.5 -18q-83 0 -127 46.5t-44 126.5v345h77v-345q0 -47 28 -76t77 -29q60 0 94.5 43.5t34.5 104.5v302h77v-504z" />
    <glyph glyph-name="uni0439" unicode="&#x439;" 
d="M272 650q-65 0 -122 24l4 -70q51 -23 118 -23t118 23l2 69q-58 -23 -120 -23zM465 0h-70l-6 53q-26 -31 -62.5 -49t-78.5 -18q-83 0 -127 46.5t-44 126.5v345h77v-345q0 -47 28 -76t77 -29q60 0 94.5 43.5t34.5 104.5v302h77v-504z" />
    <glyph glyph-name="uni043A" unicode="&#x43a;" horiz-adv-x="509" 
d="M80 0v700h77v-700h-77zM369 504h95l-204 -236l229 -268h-98l-214 252v27z" />
    <glyph glyph-name="uni043B" unicode="&#x43b;" horiz-adv-x="501" 
d="M190 200l-84 -200h-86l218 518h25l218 -518h-88l-83 200l-60 174z" />
    <glyph glyph-name="uni043C" unicode="&#x43c;" horiz-adv-x="684" 
d="M153 236l-51 -236h-82l114 518h23l185 -350l186 350h23l113 -518h-81l-51 236l-18 108l-161 -306h-22l-160 306z" />
    <glyph glyph-name="uni043D" unicode="&#x43d;" horiz-adv-x="548" 
d="M468 0h-77v228h-234v-228h-77v504h77v-205h234v205h77v-504z" />
    <glyph glyph-name="uni043E" unicode="&#x43e;" horiz-adv-x="562" 
d="M411.5 478q50.5 -40 72 -100.5t21.5 -125.5t-21.5 -125.5t-72 -100.5t-130.5 -40t-130.5 40t-72 100.5t-21.5 125.5t21.5 125.5t72 100.5t130.5 40t130.5 -40zM172.5 388q-32.5 -60 -32.5 -136t33 -136t108 -60t108 60t33 136t-32.5 136t-108.5 60t-108.5 -60z" />
    <glyph glyph-name="uni043F" unicode="&#x43f;" 
d="M80 504h70l6 -53q26 31 62.5 49t78.5 18q83 0 127 -46.5t44 -126.5v-345h-77v345q0 47 -28 76t-77 29q-59 0 -94 -43.5t-35 -104.5v-302h-77v504z" />
    <glyph glyph-name="uni0440" unicode="&#x440;" horiz-adv-x="569" 
d="M80 -196h77v259q55 -77 143 -77q71 0 118.5 37t70.5 97.5t23 131.5q0 64 -21 124.5t-69 101t-125 40.5q-85 0 -140 -77v63h-77v-700zM396 390.5q34 -60.5 34 -138.5q0 -47 -13.5 -92.5t-44.5 -76t-79 -30.5q-69 0 -102.5 60.5t-33.5 138.5t33.5 138.5t102.5 60.5
t103 -60.5z" />
    <glyph glyph-name="uni0441" unicode="&#x441;" horiz-adv-x="455" 
d="M84 385.5q27 60.5 80 96.5t127 36q59 0 106 -24l2 -81q-17 16 -43.5 25t-54.5 9q-77 0 -119 -54.5t-42 -139.5q0 -83 38 -139.5t116 -56.5q31 0 63.5 9.5t59.5 25.5l-4 -80q-58 -26 -129 -26q-74 0 -125 36t-76.5 96t-25.5 134q0 73 27 133.5z" />
    <glyph glyph-name="uni0442" unicode="&#x442;" horiz-adv-x="807" 
d="M80 504h70l6 -50q26 31 61.5 47.5t76.5 16.5q47 0 78.5 -19.5t51.5 -60.5q29 40 64 60t83 20q77 0 118 -44t41 -120v-354h-77v342q0 43 -25.5 75t-68.5 32q-54 0 -83.5 -43t-31.5 -100v-306h-77v341q-1 44 -24.5 75.5t-68.5 31.5q-58 0 -87.5 -43.5t-29.5 -105.5v-299
h-77v504z" />
    <glyph glyph-name="uni0443" unicode="&#x443;" horiz-adv-x="517" 
d="M408 504l-76 -202l-63 -182l-73 182l-85 202h-86l205 -478l-42 -112q-8 -24 -23 -35.5t-39 -11.5q-15 0 -33 5t-34 13v-70q15 -11 35 -16t38 -5q47 0 82 30.5t51 76.5l226 603h-83z" />
    <glyph glyph-name="uni0444" unicode="&#x444;" horiz-adv-x="701" 
d="M312 -13q-139 10 -197 85.5t-58 179.5q0 103 58 178.5t197 85.5v184h77v-184q139 -10 197 -85.5t58 -178.5q0 -104 -58 -179.5t-197 -85.5v-193h-77v193zM177.5 381q-38.5 -55 -38.5 -129t38.5 -129t134.5 -65v388q-96 -10 -134.5 -65zM524 123q38 55 38 129t-38 129
t-135 65v-388q97 10 135 65z" />
    <glyph glyph-name="uni0445" unicode="&#x445;" horiz-adv-x="500" 
d="M383 0h94l-178 270l152 234h-94l-107 -172l-105 172h-95l152 -234l-179 -270h94l133 213z" />
    <glyph glyph-name="uni0447" unicode="&#x447;" horiz-adv-x="511" 
d="M354 189q-24 -17 -56 -26.5t-67 -9.5q-83 0 -131 46t-48 128v177h77v-177q0 -54 34.5 -80t85.5 -26q29 0 57 11t48 30v242h77v-504h-77v189z" />
    <glyph glyph-name="uni0446" unicode="&#x446;" horiz-adv-x="575" 
d="M465 504h-77v-305q0 -60 -35.5 -102.5t-94.5 -42.5q-49 0 -76.5 28.5t-27.5 76.5v345h-77v-345q0 -80 44 -126.5t127 -46.5q46 0 85 21t64 58q5 -29 21 -49t44 -26l7 -127h65v173q-29 0 -49 20.5t-20 48.5v399z" />
    <glyph glyph-name="uni0448" unicode="&#x448;" horiz-adv-x="807" 
d="M727 0h-70l-6 49q-26 -31 -61.5 -47t-76.5 -16q-47 0 -78.5 19.5t-51.5 59.5q-29 -39 -64.5 -59t-82.5 -20q-77 0 -118 44t-41 119v355h77v-343q0 -43 25.5 -75t68.5 -32q54 0 83.5 43t31.5 101v306h77v-342q1 -44 24.5 -75t68.5 -31q58 0 87.5 43t29.5 105v300h77v-504z
" />
    <glyph glyph-name="uni0449" unicode="&#x449;" horiz-adv-x="837" 
d="M726 105q0 -28 20 -48.5t50 -20.5v-173h-66l-7 127q-26 6 -42 25t-22 46q-26 -36 -64 -55.5t-83 -19.5q-46 0 -77.5 19.5t-51.5 59.5q-29 -39 -64.5 -59t-83.5 -20q-79 0 -118.5 44.5t-39.5 122.5v351h77v-343q-1 -43 24.5 -75t68.5 -32q55 0 84.5 43t31.5 101v306h77
v-342q1 -44 24.5 -75t67.5 -31q59 0 88 43t29 105v300h77v-399z" />
    <glyph glyph-name="uni044F" unicode="&#x44f;" horiz-adv-x="511" 
d="M431 0h-77v433h-100q-41 0 -68 -19t-27 -59q0 -41 29.5 -61.5t72.5 -20.5h57v-26l-183 -247h-94l163 214q-58 9 -93 46t-35 95q0 75 50 112t127 37h178v-504z" />
    <glyph glyph-name="uni044C" unicode="&#x44c;" horiz-adv-x="525" 
d="M77 192q0 -94 50.5 -150t144.5 -56q71 0 114.5 30t62.5 76t19 95q0 89 -49 145t-138 56q-38 0 -70.5 -14.5t-56.5 -41.5v172h-77v-312zM182.5 284q30.5 38 86.5 38q57 0 86.5 -37.5t29.5 -95.5t-30 -95.5t-86 -37.5q-55 0 -86 38.5t-31 94.5q0 57 30.5 95z" />
    <glyph glyph-name="uni044A" unicode="&#x44a;" horiz-adv-x="579" 
d="M5 504v-70h126l-1 -242q0 -94 51 -150t145 -56q71 0 114.5 30t62.5 76t19 95q0 89 -49 145t-138 56q-75 0 -128 -56v172h-202zM236.5 284q30.5 38 86.5 38q57 0 86.5 -37.5t29.5 -95.5t-30 -95.5t-86 -37.5q-55 0 -86 38.5t-31 94.5q0 57 30.5 95z" />
    <glyph glyph-name="uni044B" unicode="&#x44b;" horiz-adv-x="691" 
d="M77 192q0 -94 50.5 -150t144.5 -56q71 0 114.5 30t62.5 76t19 95q0 89 -49 145t-138 56q-38 0 -70.5 -14.5t-56.5 -41.5v172h-77v-312zM534 504h77v-504h-77v504zM182.5 284q30.5 38 86.5 38q57 0 86.5 -37.5t29.5 -95.5t-30 -95.5t-86 -37.5q-55 0 -86 38.5t-31 94.5
q0 57 30.5 95z" />
    <glyph glyph-name="uni044D" unicode="&#x44d;" horiz-adv-x="455" 
d="M291 482q53 -36 80 -96.5t27 -133.5q0 -74 -25.5 -134t-76.5 -96t-125 -36q-58 0 -109 18l-4 77q51 -24 103 -24q69 0 107 45t45 115h-187v70h187q-8 72 -49 116t-110 44q-28 0 -54.5 -9t-43.5 -25l2 81q47 24 106 24q74 0 127 -36z" />
    <glyph glyph-name="uni044E" unicode="&#x44e;" horiz-adv-x="745" 
d="M80 700h77v-399h87q12 92 65 154.5t156 62.5q80 0 130 -40t71.5 -100.5t21.5 -125.5t-21.5 -125.5t-71.5 -100.5t-130 -40q-111 0 -164.5 72.5t-58.5 172.5h-85v-231h-77v700zM358 385.5q-32 -58.5 -32 -133.5t32 -134t107 -59q74 0 106.5 59t32.5 134q0 74 -32.5 133
t-106.5 59q-75 0 -107 -58.5z" />
    <glyph glyph-name="uni0394" unicode="&#x394;" horiz-adv-x="652" 
d="M634 0h-616l296 712h19zM508 75l-185 455l-184 -455h369z" />
    <glyph glyph-name="uni03A9" unicode="&#x3a9;" horiz-adv-x="766" 
d="M707 76v-76h-266v15q56 69 86 120.5t42.5 105.5t12.5 128q0 63 -19.5 124.5t-64 103t-115.5 41.5t-115.5 -41.5t-64 -103t-19.5 -124.5q0 -74 12.5 -128t42.5 -105.5t86 -120.5v-15h-266v76h130q-92 103 -92 303q0 87 28.5 163t92.5 124t165 48t165 -48t92.5 -124
t28.5 -163q0 -200 -92 -303h130z" />
    <glyph glyph-name="uni03BC" unicode="&#x3bc;" 
d="M465 504v-504h-71l-6 53q-26 -33 -57.5 -50t-72.5 -17q-35 0 -66.5 13.5t-52.5 44.5l6 -240h-68v700h77v-345q0 -47 27 -75.5t76 -28.5q61 0 96 43t35 105v301h77z" />
    <glyph glyph-name="pi" unicode="&#x3c0;" horiz-adv-x="608" 
d="M451 434v-301q0 -68 64 -69l-14 -68q-61 0 -94 37t-33 99v302h-195v-434h-77v434h-74v70h497v-70h-74z" />
    <glyph glyph-name="zero" unicode="0" horiz-adv-x="627" 
d="M439.5 677q55.5 -37 88.5 -118.5t33 -208.5t-33 -208.5t-88.5 -118.5t-125.5 -37q-110 0 -179 88.5t-69 275.5t69 275.5t179 88.5q70 0 125.5 -37zM200 560.5q-42 -76.5 -42 -210.5q0 -133 42 -210t114 -77q47 0 82 34.5t54 99.5t19 153q0 134 -42 210.5t-113 76.5
q-72 0 -114 -76.5z" />
    <glyph glyph-name="one" unicode="1" horiz-adv-x="352" 
d="M33 527l135 68v-595h84v714h-16l-203 -102v-85z" />
    <glyph glyph-name="two" unicode="2" horiz-adv-x="520" 
d="M43 0h418v76h-272l176 257q32 47 52 98t20 100q0 53 -27 94.5t-72 65t-97 23.5q-43 0 -86.5 -15.5t-81.5 -43.5l-3 -93q32 31 75 51.5t83 20.5q52 0 86 -35t34 -83q0 -65 -59 -150l-246 -351v-15z" />
    <glyph glyph-name="three" unicode="3" horiz-adv-x="525" 
d="M299 625l-148 -244l7 -16q21 3 41 3q73 0 120.5 -37.5t47.5 -107.5t-45 -114t-115 -44q-44 0 -90 15.5t-77 42.5v-97q73 -40 169 -40q72 0 129 28t90.5 81t33.5 126q0 95 -51.5 150t-136.5 59l160 258v12h-381v-75h246z" />
    <glyph glyph-name="four" unicode="4" horiz-adv-x="562" 
d="M366 147h-332v18l250 535h91l-224 -477h215v295h84v-295h74v-76h-74v-147h-84v147z" />
    <glyph glyph-name="five" unicode="5" horiz-adv-x="536" 
d="M174 448q26 10 77 10q66 0 117.5 -29t80.5 -80.5t29 -116.5q0 -75 -32.5 -130.5t-90.5 -85.5t-132 -30q-100 0 -172 41l3 99q30 -28 75.5 -45t89.5 -17q74 0 121 46t47 122q0 71 -46.5 108t-120.5 37q-65 0 -114 -24l-17 11l3 336h339v-75h-257v-177z" />
    <glyph glyph-name="six" unicode="6" horiz-adv-x="589" 
d="M126.5 66q-61.5 80 -61.5 232q0 188 70 302t210 114q71 0 134 -39l-3 -86q-57 47 -129 47q-62 0 -103 -38.5t-61 -98.5t-23 -127q26 45 70 67t91 22q67 0 116 -29t75.5 -80.5t26.5 -117.5q0 -72 -28.5 -128.5t-81.5 -88t-123 -31.5q-118 0 -179.5 80zM429 314
q-19 34 -49.5 51.5t-64.5 17.5q-70 0 -110 -45t-40 -118q0 -66 37 -111t101 -46q70 0 107.5 48t37.5 123q0 46 -19 80z" />
    <glyph glyph-name="seven" unicode="7" horiz-adv-x="501" 
d="M345 625l-231 -625h89l260 700h-428v-75h310z" />
    <glyph glyph-name="eight" unicode="8" horiz-adv-x="613" 
d="M420 691q50 -23 77.5 -65.5t27.5 -98.5q0 -54 -28.5 -94t-80.5 -55q66 -22 100.5 -70.5t34.5 -117.5q0 -62 -33 -108.5t-89 -71t-123 -24.5t-123 24.5t-88.5 71t-32.5 108.5q0 70 34 118t101 70q-52 16 -80.5 55.5t-28.5 93.5q0 56 27.5 98.5t77 65.5t113.5 23t114 -23z
M210.5 602q-33.5 -33 -33.5 -79t33.5 -79t95.5 -33q63 0 96.5 33t33.5 79t-33.5 79t-96.5 33q-62 0 -95.5 -33zM198.5 297.5q-42.5 -35.5 -42.5 -96.5t42.5 -97.5t107.5 -36.5t108 36.5t43 97.5t-42.5 96.5t-108.5 35.5q-65 0 -107.5 -35.5z" />
    <glyph glyph-name="nine" unicode="9" horiz-adv-x="583" 
d="M458.5 624q58.5 -90 58.5 -239q0 -187 -68.5 -293t-213.5 -106q-76 0 -139 33v93q25 -23 64.5 -37t78.5 -14q99 0 143.5 80.5t50.5 191.5q-27 -38 -74 -63t-104 -25q-55 0 -102 27t-75 77.5t-28 118.5q0 71 26.5 126.5t78.5 87.5t125 32q120 0 178.5 -90zM178.5 364
q37.5 -42 100.5 -42q64 0 101 44.5t37 113.5q-1 65 -39.5 108.5t-99.5 43.5q-63 0 -100 -46.5t-37 -113.5q0 -66 37.5 -108z" />
    <glyph glyph-name="zero.denom" horiz-adv-x="326" 
d="M251.5 305.5q-34.5 43.5 -88.5 43.5t-88.5 -43.5t-34.5 -133.5t34.5 -133.5t88.5 -43.5t88.5 43.5t34.5 133.5t-34.5 133.5zM219 71.5q-21 -36.5 -56 -36.5t-56 36.5t-21 100.5t21 100.5t56 36.5t56 -36.5t21 -100.5t-21 -100.5z" />
    <glyph glyph-name="one.denom" horiz-adv-x="193" 
d="M25 259l68 34v-293h44v352h-10l-102 -51v-42z" />
    <glyph glyph-name="two.denom" horiz-adv-x="279" 
d="M241 40v-40h-209v8l126 167q12 16 20.5 36t8.5 38q0 25 -17 42.5t-43 17.5q-20 0 -41.5 -10.5t-37.5 -25.5l2 47q39 29 83 29q41 0 70.5 -25.5t29.5 -66.5q0 -24 -9.5 -50.5t-25.5 -47.5l-89 -119h132z" />
    <glyph glyph-name="three.denom" horiz-adv-x="282" 
d="M163 307l-74 -119l3 -8q7 1 21 1q37 0 60.5 -18.5t23.5 -53.5q0 -32 -23 -53t-59 -21q-21 0 -43.5 8t-38.5 21v-49q37 -20 85 -20q54 0 89.5 31t35.5 82q0 48 -25.5 75t-67.5 29l80 126v6h-190v-37h123z" />
    <glyph glyph-name="four.denom" horiz-adv-x="302" 
d="M271 114v-40h-35v-74h-44v74h-166v9l125 266h46l-111 -235h106v147h44v-147h35z" />
    <glyph glyph-name="five.denom" horiz-adv-x="278" 
d="M211.5 191q31.5 -32 31.5 -82q0 -52 -35.5 -83t-89.5 -31q-48 0 -85 20v49q16 -13 38.5 -21t43.5 -8q35 0 60 21.5t25 52.5q0 36 -24 55t-61 19q-30 0 -57 -12l-8 5l1 168h170v-37h-129v-89q11 5 39 5q49 0 80.5 -32z" />
    <glyph glyph-name="six.denom" horiz-adv-x="308" 
d="M69 36q-30 41 -30 122q0 86 34.5 138.5t103.5 52.5q36 0 68 -19l-2 -44q-29 23 -63 23q-47 0 -69.5 -33.5t-25.5 -87.5q28 46 85 46q48 0 77 -33t29 -84q0 -54 -32.5 -88t-87.5 -34q-57 0 -87 41zM211 173.5q-19 20.5 -49 20.5q-32 0 -52.5 -22.5t-20.5 -57.5t18.5 -57
t50.5 -22q35 0 53.5 23t18.5 59t-19 56.5z" />
    <glyph glyph-name="seven.denom" horiz-adv-x="267" 
d="M241 349l-130 -349h-45l115 309h-154v40h214z" />
    <glyph glyph-name="eight.denom" horiz-adv-x="320" 
d="M82 324q-30 -25 -30 -66q0 -27 14 -46.5t40 -27.5q-32 -10 -49.5 -34t-17.5 -57q0 -46 34.5 -72t86.5 -26t86.5 26t34.5 72q0 33 -17.5 57t-49.5 34q26 8 40 27.5t14 46.5q0 41 -30 66t-78 25t-78 -25zM112.5 217q-16.5 16 -16.5 39q0 22 16.5 37.5t47.5 15.5t47.5 -15.5
t16.5 -37.5q0 -23 -16.5 -39t-47.5 -16t-47.5 16zM106 52q-21 17 -21 47q0 29 21.5 46.5t53.5 17.5t53.5 -17.5t21.5 -46.5q0 -30 -21 -47t-54 -17t-54 17z" />
    <glyph glyph-name="nine.denom" horiz-adv-x="305" 
d="M236.5 304.5q29.5 -44.5 29.5 -121.5q0 -85 -35 -136.5t-106 -51.5q-41 0 -70 19v46q12 -12 31.5 -18.5t39.5 -6.5q48 0 71.5 36.5t26.5 88.5q-11 -21 -33.5 -33t-52.5 -12q-43 0 -74.5 32t-31.5 84q0 51 30 84.5t84 33.5q61 0 90.5 -44.5zM96.5 176q18.5 -21 49.5 -21
q32 0 51 22t19 55t-19.5 55t-50.5 22t-49.5 -22.5t-18.5 -55.5q0 -34 18.5 -55z" />
    <glyph glyph-name="zero.num" horiz-adv-x="326" 
d="M251.5 656.5q-34.5 43.5 -88.5 43.5t-88.5 -43.5t-34.5 -133.5t34.5 -133.5t88.5 -43.5t88.5 43.5t34.5 133.5t-34.5 133.5zM219 422.5q-21 -36.5 -56 -36.5t-56 36.5t-21 100.5t21 100.5t56 36.5t56 -36.5t21 -100.5t-21 -100.5z" />
    <glyph glyph-name="one.num" horiz-adv-x="193" 
d="M25 610l68 34v-293h44v352h-10l-102 -51v-42z" />
    <glyph glyph-name="two.num" horiz-adv-x="279" 
d="M241 391v-40h-209v8l126 167q12 16 20.5 36t8.5 38q0 25 -17 42.5t-43 17.5q-20 0 -41.5 -10.5t-37.5 -25.5l2 47q39 29 83 29q41 0 70.5 -25.5t29.5 -66.5q0 -24 -9.5 -50.5t-25.5 -47.5l-89 -119h132z" />
    <glyph glyph-name="three.num" horiz-adv-x="282" 
d="M163 658l-74 -119l3 -8q7 1 21 1q37 0 60.5 -18.5t23.5 -53.5q0 -32 -23 -53t-59 -21q-21 0 -43.5 8t-38.5 21v-49q37 -20 85 -20q54 0 89.5 31t35.5 82q0 48 -25.5 75t-67.5 29l80 126v6h-190v-37h123z" />
    <glyph glyph-name="four.num" horiz-adv-x="302" 
d="M271 465v-40h-35v-74h-44v74h-166v9l125 266h46l-111 -235h106v147h44v-147h35z" />
    <glyph glyph-name="five.num" horiz-adv-x="278" 
d="M211.5 542q31.5 -32 31.5 -82q0 -52 -35.5 -83t-89.5 -31q-48 0 -85 20v49q16 -13 38.5 -21t43.5 -8q35 0 60 21.5t25 52.5q0 36 -24 55t-61 19q-30 0 -57 -12l-8 5l1 168h170v-37h-129v-89q11 5 39 5q49 0 80.5 -32z" />
    <glyph glyph-name="six.num" horiz-adv-x="308" 
d="M69 387q-30 41 -30 122q0 86 34.5 138.5t103.5 52.5q36 0 68 -19l-2 -44q-29 23 -63 23q-47 0 -69.5 -33.5t-25.5 -87.5q28 46 85 46q48 0 77 -33t29 -84q0 -54 -32.5 -88t-87.5 -34q-57 0 -87 41zM211 524.5q-19 20.5 -49 20.5q-32 0 -52.5 -22.5t-20.5 -57.5t18.5 -57
t50.5 -22q35 0 53.5 23t18.5 59t-19 56.5z" />
    <glyph glyph-name="seven.num" horiz-adv-x="267" 
d="M241 700l-130 -349h-45l115 309h-154v40h214z" />
    <glyph glyph-name="eight.num" horiz-adv-x="320" 
d="M82 675q-30 -25 -30 -66q0 -27 14 -46.5t40 -27.5q-32 -10 -49.5 -34t-17.5 -57q0 -46 34.5 -72t86.5 -26t86.5 26t34.5 72q0 33 -17.5 57t-49.5 34q26 8 40 27.5t14 46.5q0 41 -30 66t-78 25t-78 -25zM112.5 568q-16.5 16 -16.5 39q0 22 16.5 37.5t47.5 15.5t47.5 -15.5
t16.5 -37.5q0 -23 -16.5 -39t-47.5 -16t-47.5 16zM106 403q-21 17 -21 47q0 29 21.5 46.5t53.5 17.5t53.5 -17.5t21.5 -46.5q0 -30 -21 -47t-54 -17t-54 17z" />
    <glyph glyph-name="nine.num" horiz-adv-x="305" 
d="M236.5 660.5q29.5 -44.5 29.5 -121.5q0 -85 -35 -136.5t-106 -51.5q-41 0 -70 19v46q12 -12 31.5 -18.5t39.5 -6.5q48 0 71.5 36.5t26.5 88.5q-11 -21 -33.5 -33t-52.5 -12q-43 0 -74.5 32t-31.5 84q0 51 30 84.5t84 33.5q61 0 90.5 -44.5zM96.5 532q18.5 -21 49.5 -21
q32 0 51 22t19 55t-19.5 55t-50.5 22t-49.5 -22.5t-18.5 -55.5q0 -34 18.5 -55z" />
    <glyph glyph-name="onehalf" unicode="&#xbd;" horiz-adv-x="639" 
d="M496 697l-388 -702h-51l387 702h52zM25 610l68 34v-293h44v352h-10l-102 -51v-42zM601 40v-40h-209v8l126 167q12 16 20.5 36t8.5 38q0 25 -17 42.5t-43 17.5q-20 0 -41.5 -10.5t-37.5 -25.5l2 47q39 29 83 29q41 0 70.5 -25.5t29.5 -66.5q0 -24 -9.5 -50.5t-25.5 -47.5
l-89 -119h132z" />
    <glyph glyph-name="uni2153" unicode="&#x2153;" horiz-adv-x="653" 
d="M25 610l68 34v-293h44v352h-10l-102 -51v-42zM496 697l-388 -702h-51l387 702h52zM534 307l-74 -119l3 -8q7 1 21 1q37 0 60.5 -18.5t23.5 -53.5q0 -32 -23 -53t-59 -21q-21 0 -43.5 8t-38.5 21v-49q37 -20 85 -20q54 0 89.5 31t35.5 82q0 48 -25.5 75t-67.5 29l80 126v6
h-190v-37h123z" />
    <glyph glyph-name="uni2154" unicode="&#x2154;" horiz-adv-x="733" 
d="M241 391v-40h-209v8l126 167q12 16 20.5 36t8.5 38q0 25 -17 42.5t-43 17.5q-20 0 -41.5 -10.5t-37.5 -25.5l2 47q39 29 83 29q41 0 70.5 -25.5t29.5 -66.5q0 -24 -9.5 -50.5t-25.5 -47.5l-89 -119h132zM584 697l-388 -702h-51l387 702h52zM614 307l-74 -119l3 -8
q7 1 21 1q37 0 60.5 -18.5t23.5 -53.5q0 -32 -23 -53t-59 -21q-21 0 -43.5 8t-38.5 21v-49q37 -20 85 -20q54 0 89.5 31t35.5 82q0 48 -25.5 75t-67.5 29l80 126v6h-190v-37h123z" />
    <glyph glyph-name="onequarter" unicode="&#xbc;" horiz-adv-x="667" 
d="M526 697l-388 -702h-51l387 702h52zM25 610l68 34v-293h44v352h-10l-102 -51v-42zM636 114v-40h-35v-74h-44v74h-166v9l125 266h46l-111 -235h106v147h44v-147h35z" />
    <glyph glyph-name="threequarters" unicode="&#xbe;" horiz-adv-x="685" 
d="M163 658l-74 -119l3 -8q7 1 21 1q37 0 60.5 -18.5t23.5 -53.5q0 -32 -23 -53t-59 -21q-21 0 -43.5 8t-38.5 21v-49q37 -20 85 -20q54 0 89.5 31t35.5 82q0 48 -25.5 75t-67.5 29l80 126v6h-190v-37h123zM554 697l-388 -702h-51l387 702h52zM654 114v-40h-35v-74h-44v74
h-166v9l125 266h46l-111 -235h106v147h44v-147h35z" />
    <glyph glyph-name="oneeighth" unicode="&#x215b;" horiz-adv-x="641" 
d="M496 697l-388 -702h-51l387 702h52zM25 610l68 34v-293h44v352h-10l-102 -51v-42zM403 324q-30 -25 -30 -66q0 -27 14 -46.5t40 -27.5q-32 -10 -49.5 -34t-17.5 -57q0 -46 34.5 -72t86.5 -26t86.5 26t34.5 72q0 33 -17.5 57t-49.5 34q26 8 40 27.5t14 46.5q0 41 -30 66
t-78 25t-78 -25zM433.5 217q-16.5 16 -16.5 39q0 22 16.5 37.5t47.5 15.5t47.5 -15.5t16.5 -37.5q0 -23 -16.5 -39t-47.5 -16t-47.5 16zM427 52q-21 17 -21 47q0 29 21.5 46.5t53.5 17.5t53.5 -17.5t21.5 -46.5q0 -30 -21 -47t-54 -17t-54 17z" />
    <glyph glyph-name="threeeighths" unicode="&#x215c;" horiz-adv-x="709" 
d="M471 324q-30 -25 -30 -66q0 -27 14 -46.5t40 -27.5q-32 -10 -49.5 -34t-17.5 -57q0 -46 34.5 -72t86.5 -26t86.5 26t34.5 72q0 33 -17.5 57t-49.5 34q26 8 40 27.5t14 46.5q0 41 -30 66t-78 25t-78 -25zM501.5 217q-16.5 16 -16.5 39q0 22 16.5 37.5t47.5 15.5
t47.5 -15.5t16.5 -37.5q0 -23 -16.5 -39t-47.5 -16t-47.5 16zM495 52q-21 17 -21 47q0 29 21.5 46.5t53.5 17.5t53.5 -17.5t21.5 -46.5q0 -30 -21 -47t-54 -17t-54 17zM163 658l-74 -119l3 -8q7 1 21 1q37 0 60.5 -18.5t23.5 -53.5q0 -32 -23 -53t-59 -21q-21 0 -43.5 8
t-38.5 21v-49q37 -20 85 -20q54 0 89.5 31t35.5 82q0 48 -25.5 75t-67.5 29l80 126v6h-190v-37h123zM554 697l-388 -702h-51l387 702h52z" />
    <glyph glyph-name="fiveeighths" unicode="&#x215d;" horiz-adv-x="691" 
d="M211.5 542q31.5 -32 31.5 -82q0 -52 -35.5 -83t-89.5 -31q-48 0 -85 20v49q16 -13 38.5 -21t43.5 -8q35 0 60 21.5t25 52.5q0 36 -24 55t-61 19q-30 0 -57 -12l-8 5l1 168h170v-37h-129v-89q11 5 39 5q49 0 80.5 -32zM453 324q-30 -25 -30 -66q0 -27 14 -46.5t40 -27.5
q-32 -10 -49.5 -34t-17.5 -57q0 -46 34.5 -72t86.5 -26t86.5 26t34.5 72q0 33 -17.5 57t-49.5 34q26 8 40 27.5t14 46.5q0 41 -30 66t-78 25t-78 -25zM483.5 217q-16.5 16 -16.5 39q0 22 16.5 37.5t47.5 15.5t47.5 -15.5t16.5 -37.5q0 -23 -16.5 -39t-47.5 -16t-47.5 16z
M477 52q-21 17 -21 47q0 29 21.5 46.5t53.5 17.5t53.5 -17.5t21.5 -46.5q0 -30 -21 -47t-54 -17t-54 17zM556 697l-388 -702h-51l387 702h52z" />
    <glyph glyph-name="seveneighths" unicode="&#x215e;" horiz-adv-x="651" 
d="M496 697l-388 -702h-51l387 702h52zM413 324q-30 -25 -30 -66q0 -27 14 -46.5t40 -27.5q-32 -10 -49.5 -34t-17.5 -57q0 -46 34.5 -72t86.5 -26t86.5 26t34.5 72q0 33 -17.5 57t-49.5 34q26 8 40 27.5t14 46.5q0 41 -30 66t-78 25t-78 -25zM443.5 217q-16.5 16 -16.5 39
q0 22 16.5 37.5t47.5 15.5t47.5 -15.5t16.5 -37.5q0 -23 -16.5 -39t-47.5 -16t-47.5 16zM437 52q-21 17 -21 47q0 29 21.5 46.5t53.5 17.5t53.5 -17.5t21.5 -46.5q0 -30 -21 -47t-54 -17t-54 17zM241 700l-130 -349h-45l115 309h-154v40h214z" />
    <glyph glyph-name="fraction.001" horiz-adv-x="131" 
d="M284 697l-388 -702h-51l387 702h52z" />
    <glyph glyph-name="uni2080" unicode="&#x2080;" horiz-adv-x="326" 
d="M251.5 205.5q-34.5 43.5 -88.5 43.5t-88.5 -43.5t-34.5 -133.5t34.5 -133.5t88.5 -43.5t88.5 43.5t34.5 133.5t-34.5 133.5zM219 -28.5q-21 -36.5 -56 -36.5t-56 36.5t-21 100.5t21 100.5t56 36.5t56 -36.5t21 -100.5t-21 -100.5z" />
    <glyph glyph-name="uni2081" unicode="&#x2081;" horiz-adv-x="193" 
d="M25 154l68 34v-293h44v352h-10l-102 -51v-42z" />
    <glyph glyph-name="uni2082" unicode="&#x2082;" horiz-adv-x="279" 
d="M241 -60v-40h-209v8l126 167q12 16 20.5 36t8.5 38q0 25 -17 42.5t-43 17.5q-20 0 -41.5 -10.5t-37.5 -25.5l2 47q39 29 83 29q41 0 70.5 -25.5t29.5 -66.5q0 -24 -9.5 -50.5t-25.5 -47.5l-89 -119h132z" />
    <glyph glyph-name="uni2083" unicode="&#x2083;" horiz-adv-x="282" 
d="M163 207l-74 -119l3 -8q7 1 21 1q37 0 60.5 -18.5t23.5 -53.5q0 -32 -23 -53t-59 -21q-21 0 -43.5 8t-38.5 21v-49q37 -20 85 -20q54 0 89.5 31t35.5 82q0 48 -25.5 75t-67.5 29l80 126v6h-190v-37h123z" />
    <glyph glyph-name="uni2084" unicode="&#x2084;" horiz-adv-x="302" 
d="M271 14v-40h-35v-74h-44v74h-166v9l125 266h46l-111 -235h106v147h44v-147h35z" />
    <glyph glyph-name="uni2085" unicode="&#x2085;" horiz-adv-x="278" 
d="M211.5 91q31.5 -32 31.5 -82q0 -52 -35.5 -83t-89.5 -31q-48 0 -85 20v49q16 -13 38.5 -21t43.5 -8q35 0 60 21.5t25 52.5q0 36 -24 55t-61 19q-30 0 -57 -12l-8 5l1 168h170v-37h-129v-89q11 5 39 5q49 0 80.5 -32z" />
    <glyph glyph-name="uni2086" unicode="&#x2086;" horiz-adv-x="308" 
d="M69 -64q-30 41 -30 122q0 86 34.5 138.5t103.5 52.5q36 0 68 -19l-2 -44q-29 23 -63 23q-47 0 -69.5 -33.5t-25.5 -87.5q28 46 85 46q48 0 77 -33t29 -84q0 -54 -32.5 -88t-87.5 -34q-57 0 -87 41zM211 73.5q-19 20.5 -49 20.5q-32 0 -52.5 -22.5t-20.5 -57.5t18.5 -57
t50.5 -22q35 0 53.5 23t18.5 59t-19 56.5z" />
    <glyph glyph-name="uni2087" unicode="&#x2087;" horiz-adv-x="267" 
d="M241 249l-130 -349h-45l115 309h-154v40h214z" />
    <glyph glyph-name="uni2088" unicode="&#x2088;" horiz-adv-x="320" 
d="M82 224q-30 -25 -30 -66q0 -27 14 -46.5t40 -27.5q-32 -10 -49.5 -34t-17.5 -57q0 -46 34.5 -72t86.5 -26t86.5 26t34.5 72q0 33 -17.5 57t-49.5 34q26 8 40 27.5t14 46.5q0 41 -30 66t-78 25t-78 -25zM112.5 117q-16.5 16 -16.5 39q0 22 16.5 37.5t47.5 15.5t47.5 -15.5
t16.5 -37.5q0 -23 -16.5 -39t-47.5 -16t-47.5 16zM106 -48q-21 17 -21 47q0 29 21.5 46.5t53.5 17.5t53.5 -17.5t21.5 -46.5q0 -30 -21 -47t-54 -17t-54 17z" />
    <glyph glyph-name="uni2089" unicode="&#x2089;" horiz-adv-x="305" 
d="M236.5 204.5q29.5 -44.5 29.5 -121.5q0 -85 -35 -136.5t-106 -51.5q-41 0 -70 19v46q12 -12 31.5 -18.5t39.5 -6.5q48 0 71.5 36.5t26.5 88.5q-11 -21 -33.5 -33t-52.5 -12q-43 0 -74.5 32t-31.5 84q0 51 30 84.5t84 33.5q61 0 90.5 -44.5zM96.5 76q18.5 -21 49.5 -21
q32 0 51 22t19 55t-19.5 55t-50.5 22t-49.5 -22.5t-18.5 -55.5q0 -34 18.5 -55z" />
    <glyph glyph-name="uni00B9" unicode="&#xb9;" horiz-adv-x="193" 
d="M25 605l68 34v-293h44v352h-10l-102 -51v-42z" />
    <glyph glyph-name="uni00B2" unicode="&#xb2;" horiz-adv-x="279" 
d="M241 386v-40h-209v8l126 167q12 16 20.5 36t8.5 38q0 25 -17 42.5t-43 17.5q-20 0 -41.5 -10.5t-37.5 -25.5l2 47q39 29 83 29q41 0 70.5 -25.5t29.5 -66.5q0 -24 -9.5 -50.5t-25.5 -47.5l-89 -119h132z" />
    <glyph glyph-name="uni00B3" unicode="&#xb3;" horiz-adv-x="282" 
d="M163 658l-74 -119l3 -8q7 1 21 1q37 0 60.5 -18.5t23.5 -53.5q0 -32 -23 -53t-59 -21q-21 0 -43.5 8t-38.5 21v-49q37 -20 85 -20q54 0 89.5 31t35.5 82q0 48 -25.5 75t-67.5 29l80 126v6h-190v-37h123z" />
    <glyph glyph-name="asterisk" unicode="*" horiz-adv-x="365" 
d="M231 580l49 -67l-45 -33l-53 72l-52 -72l-45 33l49 67l-76 24l17 54l79 -27v83h56v-83l80 27l17 -54z" />
    <glyph glyph-name="backslash" unicode="\" horiz-adv-x="495" 
d="M72 714l423 -728h-73l-422 728h72z" />
    <glyph glyph-name="periodcentered" unicode="&#xb7;" horiz-adv-x="245" 
d="M163.5 207.5q-9.5 -14.5 -40.5 -14.5q-29 1 -40 16.5t-11 42.5t11 42.5t40 15.5q30 0 40 -14.5t10 -43.5q0 -30 -9.5 -44.5z" />
    <glyph glyph-name="bullet" unicode="&#x2022;" horiz-adv-x="420" 
d="M141 132.5q-32 18.5 -50.5 50.5t-18.5 69t18.5 69t50.5 50.5t69 18.5t69 -18.5t50.5 -50.5t18.5 -69t-18.5 -69t-50.5 -50.5t-69 -18.5t-69 18.5z" />
    <glyph glyph-name="colon" unicode=":" horiz-adv-x="251" 
d="M166.5 391.5q-9.5 -14.5 -40.5 -14.5q-51 0 -51 59q0 27 11 42.5t40 15.5q30 0 40 -14.5t10 -43.5q0 -30 -9.5 -44.5zM166.5 14.5q-9.5 -14.5 -40.5 -14.5q-29 1 -40 16.5t-11 42.5t11 42.5t40 15.5q30 0 40 -14.5t10 -43.5q0 -30 -9.5 -44.5z" />
    <glyph glyph-name="comma" unicode="," horiz-adv-x="237" 
d="M165 57q0 32 -9.5 47t-39.5 15t-41 -15t-11 -44q0 -26 8.5 -41.5t31.5 -18.5q0 -22 -10.5 -44.5t-26.5 -38.5l45 -14q53 57 53 154z" />
    <glyph glyph-name="ellipsis" unicode="&#x2026;" horiz-adv-x="615" 
d="M163.5 14.5q-9.5 -14.5 -40.5 -14.5q-29 1 -40 16.5t-11 42.5t11 42.5t40 15.5q30 0 40 -14.5t10 -43.5q0 -30 -9.5 -44.5zM348.5 14.5q-9.5 -14.5 -40.5 -14.5q-29 1 -40 16.5t-11 42.5t11 42.5t40 15.5q30 0 40 -14.5t10 -43.5q0 -30 -9.5 -44.5zM533.5 14.5
q-9.5 -14.5 -40.5 -14.5q-29 1 -40 16.5t-11 42.5t11 42.5t40 15.5q30 0 40 -14.5t10 -43.5q0 -30 -9.5 -44.5z" />
    <glyph glyph-name="exclam" unicode="!" horiz-adv-x="280" 
d="M182 291l3 409h-90l3 -408l6 -121h73zM180.5 14.5q-9.5 -14.5 -39.5 -14.5q-29 1 -40 16.5t-11 42.5t11 42.5t39 15.5q31 0 40.5 -14t9.5 -44t-9.5 -44.5z" />
    <glyph glyph-name="exclamdown" unicode="&#xa1;" horiz-adv-x="280" 
d="M180.5 401q-9.5 -14 -40.5 -14q-28 0 -39 15.5t-11 42.5t11 42.5t40 16.5q30 0 39.5 -14.5t9.5 -44.5t-9.5 -44zM104 333l-6 -121l-3 -408h90l-3 409l-5 120h-73z" />
    <glyph glyph-name="numbersign" unicode="#" horiz-adv-x="628" 
d="M477 428l-21 -156h96l-10 -76h-97l-27 -196h-81l27 196h-147l-27 -196h-80l27 196h-97l10 76h98l21 156h-96l10 76h97l27 196h81l-27 -196h147l27 196h80l-27 -196h97l-10 -76h-98zM397 428h-147l-22 -156h147z" />
    <glyph glyph-name="period" unicode="." horiz-adv-x="245" 
d="M163.5 14.5q-9.5 -14.5 -40.5 -14.5q-29 1 -40 16.5t-11 42.5t11 42.5t40 15.5q30 0 40 -14.5t10 -43.5q0 -30 -9.5 -44.5z" />
    <glyph glyph-name="question" unicode="?" horiz-adv-x="451" 
d="M221 199q0 22 3 40t9 31q13 26 30 46.5t48 53.5q47 48 70.5 86.5t23.5 94.5q0 51 -27.5 88t-71.5 56t-94 19q-46 0 -94.5 -13.5t-78.5 -39.5v-83q30 26 75.5 41.5t89.5 15.5q54 0 83.5 -25.5t25.5 -78.5q-2 -31 -19.5 -57t-53.5 -65q-36 -38 -57 -66t-32 -64
q-5 -16 -5 -43l1 -34q1 -11 1 -30h73v27zM225.5 14q-9.5 -14 -40.5 -14q-28 0 -39 15.5t-11 42.5q0 28 10.5 43.5t39.5 15.5q30 0 40 -14.5t10 -44.5t-9.5 -44z" />
    <glyph glyph-name="questiondown" unicode="&#xbf;" horiz-adv-x="451" 
d="M225.5 490q9.5 14 40.5 14q28 0 39 -15.5t11 -42.5q0 -28 -10.5 -43.5t-39.5 -15.5q-30 0 -40 14.5t-10 44.5t9.5 44zM230 305q0 -22 -3 -40t-9 -31q-13 -26 -30 -46.5t-48 -53.5q-47 -48 -70.5 -86.5t-23.5 -94.5q0 -51 27.5 -88t71.5 -56t94 -19q46 0 94.5 13.5
t78.5 39.5v83q-30 -26 -75.5 -41.5t-89.5 -15.5q-54 0 -83.5 25.5t-25.5 78.5q2 31 19.5 57t53.5 65q36 38 57 66t32 64q5 16 5 43l-1 34q-1 11 -1 30h-73v-27z" />
    <glyph glyph-name="quotedbl" unicode="&#x22;" horiz-adv-x="324" 
d="M129 460h-64v240h64v-240zM259 460h-64v240h64v-240z" />
    <glyph glyph-name="quotesingle" unicode="'" horiz-adv-x="194" 
d="M129 460h-64v240h64v-240z" />
    <glyph glyph-name="semicolon" unicode=";" horiz-adv-x="255" 
d="M165.5 391q-9.5 -14 -39.5 -14q-29 0 -40 15.5t-11 42.5t11 42.5t39 16.5q31 0 40.5 -14.5t9.5 -44.5t-9.5 -44zM176 58q0 30 -10 44.5t-41 14.5q-29 -1 -40 -16.5t-11 -42.5q0 -55 40 -61q-9 -54 -37 -82l46 -14q53 57 53 157z" />
    <glyph glyph-name="slash" unicode="/" horiz-adv-x="495" 
d="M73 -14h-73l423 728h72z" />
    <glyph glyph-name="underscore" unicode="_" horiz-adv-x="449" 
d="M0 -14v-62h449v62h-449z" />
    <glyph glyph-name="braceleft" unicode="{" horiz-adv-x="271" 
d="M159.5 330q-16.5 -29 -40.5 -46q24 -17 40.5 -46t16.5 -60v-260q0 -25 15.5 -43t39.5 -18l2 -59q-61 0 -97.5 36t-36.5 95v259q0 27 -17.5 49t-47.5 22v50q30 0 47.5 22t17.5 49v262q0 59 36.5 95t97.5 36l-2 -59q-24 0 -39.5 -18t-15.5 -43v-263q0 -31 -16.5 -60z" />
    <glyph glyph-name="braceright" unicode="}" horiz-adv-x="271" 
d="M95 653q0 25 -15.5 43t-39.5 18l-2 59q61 0 97.5 -36t36.5 -95v-262q0 -27 17.5 -49t47.5 -22v-50q-30 0 -47.5 -22t-17.5 -49v-259q0 -59 -36.5 -95t-97.5 -36l2 59q24 0 39.5 18t15.5 43v260q0 31 16.5 60t40.5 46q-24 17 -40.5 46t-16.5 60v263z" />
    <glyph glyph-name="bracketleft" unicode="[" horiz-adv-x="263" 
d="M173 -143h55v-59h-132v975h132v-59h-55v-857z" />
    <glyph glyph-name="bracketright" unicode="]" horiz-adv-x="263" 
d="M35 714v59h132v-975h-132v59h55v857h-55z" />
    <glyph glyph-name="parenleft" unicode="(" horiz-adv-x="266" 
d="M232 -202h-70q-51 118 -77.5 228.5t-26.5 229.5t26.5 229.5t77.5 228.5h70q-101 -213 -101 -458t101 -458z" />
    <glyph glyph-name="parenright" unicode=")" horiz-adv-x="268" 
d="M35 -202h70q51 119 78 229t27 229t-27 229t-78 229h-70q101 -213 101 -458t-101 -458z" />
    <glyph glyph-name="emdash" unicode="&#x2014;" horiz-adv-x="476" 
d="M0 290v-72h476v72h-476z" />
    <glyph glyph-name="endash" unicode="&#x2013;" horiz-adv-x="382" 
d="M0 290v-72h382v72h-382z" />
    <glyph glyph-name="hyphen" unicode="-" horiz-adv-x="281" 
d="M0 290v-72h281v72h-281z" />
    <glyph glyph-name="guillemotleft" unicode="&#xab;" horiz-adv-x="392" 
d="M119 252l77 -114l-41 -32l-106 136v18l107 134l40 -30zM259 252l77 -114l-41 -32l-106 136v18l107 134l40 -30z" />
    <glyph glyph-name="guillemotright" unicode="&#xbb;" horiz-adv-x="392" 
d="M96 394l107 -134v-18l-106 -136l-41 32l77 114l-77 112zM236 394l107 -134v-18l-106 -136l-41 32l77 114l-77 112z" />
    <glyph glyph-name="guilsinglleft" unicode="&#x2039;" horiz-adv-x="252" 
d="M119 252l77 -114l-41 -32l-106 136v18l107 134l40 -30z" />
    <glyph glyph-name="guilsinglright" unicode="&#x203a;" horiz-adv-x="252" 
d="M96 394l107 -134v-18l-106 -136l-41 32l77 114l-77 112z" />
    <glyph glyph-name="quotedblbase" unicode="&#x201e;" horiz-adv-x="379" 
d="M166 58q0 30 -10 44.5t-41 14.5q-29 -1 -40 -16.5t-11 -42.5q0 -55 40 -61q-12 -57 -37 -82l46 -14q53 58 53 157zM307 58q0 30 -10 44.5t-41 14.5q-29 -1 -40 -16.5t-11 -42.5q0 -55 40 -61q-12 -57 -37 -82l46 -14q53 57 53 157z" />
    <glyph glyph-name="quotedblleft" unicode="&#x201c;" horiz-adv-x="354" 
d="M62 627q0 -29 9.5 -43.5t38.5 -14.5q31 0 42.5 15t11.5 43q0 55 -40 61q9 54 37 82l-46 14q-53 -57 -53 -157zM203 627q0 -29 9.5 -43.5t38.5 -14.5q31 0 42 15t11 43q0 26 -8.5 42t-31.5 19q12 57 37 82l-45 14q-53 -57 -53 -157z" />
    <glyph glyph-name="quotedblright" unicode="&#x201d;" horiz-adv-x="379" 
d="M166 726q0 30 -10 44.5t-41 14.5q-29 -1 -40 -16.5t-11 -42.5q0 -55 40 -61q-12 -57 -37 -82l46 -14q53 58 53 157zM307 726q0 30 -10 44.5t-41 14.5q-29 -1 -40 -16.5t-11 -42.5q0 -55 40 -61q-12 -57 -37 -82l46 -14q53 57 53 157z" />
    <glyph glyph-name="quoteleft" unicode="&#x2018;" horiz-adv-x="214" 
d="M62 627q0 -29 9.5 -43.5t38.5 -14.5q31 0 42.5 15t11.5 43q0 55 -40 61q9 54 37 82l-46 14q-53 -57 -53 -157z" />
    <glyph glyph-name="quoteright" unicode="&#x2019;" horiz-adv-x="214" 
d="M152 726q0 29 -9.5 43.5t-38.5 14.5q-31 0 -42.5 -15t-11.5 -43q0 -55 40 -61q-9 -54 -37 -82l46 -14q53 57 53 157z" />
    <glyph glyph-name="quotesinglbase" unicode="&#x201a;" horiz-adv-x="236" 
d="M165 57q0 32 -9.5 47t-39.5 15t-41 -15t-11 -44q0 -26 8.5 -41.5t31.5 -18.5q0 -22 -10.5 -44.5t-26.5 -38.5l45 -14q53 57 53 154z" />
    <glyph glyph-name="cent" unicode="&#xa2;" horiz-adv-x="455" 
d="M413 12q-46 -21 -111 -26v-75h-59v78q-91 14 -138.5 87t-47.5 176q0 99 49 172t137 90v79h59v-75q50 -2 95 -24l2 -81q-17 16 -43 25t-54 9v-390q64 3 115 35zM165.5 134q25.5 -51 77.5 -69v372q-50 -18 -76.5 -67.5t-26.5 -116.5q0 -68 25.5 -119z" />
    <glyph glyph-name="currency" unicode="&#xa4;" horiz-adv-x="531" 
d="M433 255q0 -52 -30 -96l65 -65l-41 -41l-65 64q-43 -30 -97 -30q-52 0 -96 30l-65 -64l-41 41l64 65q-30 42 -30 95q0 55 31 98l-65 65l41 41l65 -65q44 30 96 30q54 0 96 -30l66 65l41 -41l-65 -66q30 -42 30 -96zM265 148q45 0 76 31q32 32 32 77q0 21 -8 40.5
t-24 35.5q-15 15 -34.5 23t-40.5 8q-45 0 -77 -32q-31 -31 -31 -76t31 -76t76 -31z" />
    <glyph glyph-name="dollar" unicode="$" horiz-adv-x="543" 
d="M303 394q85 -36 136 -84.5t51 -119.5q0 -27 -7 -54q-15 -58 -64.5 -97t-115.5 -49v-86h-59v84q-59 1 -104 12.5t-83 33.5v92q42 -31 87 -45.5t100 -14.5v263q-87 37 -133 83.5t-46 120.5q0 80 50 125.5t129 52.5v75h59v-75q77 -8 135 -43l1 -83q-61 40 -136 48v-239z
M178 464.5q23 -25.5 66 -45.5v212q-42 -9 -65.5 -35.5t-23.5 -64.5q0 -41 23 -66.5zM303 75q77 23 91 84q2 9 2 26q0 44 -24 70.5t-69 48.5v-229z" />
    <glyph glyph-name="Euro" unicode="&#x20ac;" horiz-adv-x="601" 
d="M119 313l-1 37l1 34h-69v59h75q18 123 87 197t197 74q69 0 122 -25v-87q-31 22 -56.5 29.5t-64.5 7.5q-84 0 -131.5 -55t-64.5 -141h227v-59h-234q-1 -12 -1 -34q0 -24 1 -37h234v-59h-226q17 -85 64.5 -138.5t129.5 -53.5q78 0 142 44v-85q-31 -17 -68 -26t-74 -9
q-127 0 -196 73t-88 195h-75v59h69z" />
    <glyph glyph-name="uni20BD" unicode="&#x20bd;" horiz-adv-x="632" 
d="M161 336h-111v-59h111v-71h-111v-60h111v-146h84v146h159v60h-159v62h92q112 0 180.5 53.5t68.5 162.5q0 106 -69.5 161t-179.5 55h-176v-364zM337 624q74 0 117 -35.5t43 -104.5q0 -71 -43 -105.5t-117 -34.5h-92v280h92z" />
    <glyph glyph-name="sterling" unicode="&#xa3;" horiz-adv-x="565" 
d="M509 75v-75h-452v23q59 36 87.5 88t28.5 116q0 44 -14 95h-88v66h70q-14 54 -14 103q0 104 59.5 163.5t157.5 59.5q73 0 139 -39v-84q-27 19 -60.5 29t-67.5 10q-67 0 -102.5 -38.5t-35.5 -110.5q0 -41 9 -93h197v-66h-186q2 -8 9.5 -46.5t7.5 -72.5q0 -67 -40 -128h295z
" />
    <glyph glyph-name="yen" unicode="&#xa5;" horiz-adv-x="614" 
d="M238 353l-204 347h98l172 -310l179 310h97l-210 -347h129v-59h-153v-63h153v-60h-153v-171h-84v171h-154v60h154v63h-154v59h130z" />
    <glyph glyph-name="approxequal" unicode="&#x2248;" horiz-adv-x="549" 
d="M160 317.5q-16 -7.5 -24 -15.5t-10 -11l-48 47q0 3 14 18.5t40.5 29t63.5 13.5q25 0 44 -7t43 -20q20 -12 35.5 -18t34.5 -6q20 0 35.5 7.5t23.5 15.5t10 11l49 -46q0 -3 -14 -18.5t-40 -29.5t-64 -14q-26 0 -45.5 7t-42.5 21q-22 12 -36.5 17.5t-32.5 5.5
q-20 0 -36 -7.5zM160 167.5q-16 -7.5 -24 -15.5t-10 -11l-48 47q0 3 14 18.5t40.5 29t63.5 13.5q25 0 44 -7t43 -20q20 -12 35.5 -18t34.5 -6q20 0 35.5 7.5t23.5 15.5t10 11l49 -46q0 -3 -14 -18.5t-40 -29.5t-64 -14q-26 0 -45.5 7t-42.5 21q-22 12 -36.5 17.5t-32.5 5.5
q-20 0 -36 -7.5z" />
    <glyph glyph-name="asciitilde" unicode="~" horiz-adv-x="561" 
d="M163 229q-16 -8 -24.5 -16t-10.5 -11l-50 48q0 3 14.5 19t41.5 30t66 14q25 0 43 -7t46 -21q21 -13 37 -19t35 -6q21 0 36.5 8t24 16t10.5 11l51 -47q0 -3 -14.5 -19.5t-41.5 -30.5t-66 -14q-26 0 -45 7.5t-45 21.5q-23 12 -37.5 18t-33.5 6q-21 0 -37 -8z" />
    <glyph glyph-name="divide" unicode="&#xf7;" horiz-adv-x="382" 
d="M0 290v-72h382v72h-382zM231.5 350.5q-9.5 -14.5 -40.5 -14.5q-29 1 -40 16.5t-11 42.5t11 42.5t40 15.5q30 0 40 -14.5t10 -43.5q0 -30 -9.5 -44.5zM231.5 69.5q-9.5 -14.5 -40.5 -14.5q-29 1 -40 16.5t-11 42.5t11 42.5t40 15.5q30 0 40 -14.5t10 -43.5
q0 -30 -9.5 -44.5z" />
    <glyph glyph-name="equal" unicode="=" horiz-adv-x="522" 
d="M79 407v-75h364v75h-364zM79 242v-75h364v75h-364z" />
    <glyph glyph-name="greater" unicode="&#x3e;" horiz-adv-x="424" 
d="M357 252l-281 -175v86l167 100l-167 101v88l281 -175v-25z" />
    <glyph glyph-name="greaterequal" unicode="&#x2265;" horiz-adv-x="424" 
d="M357 318l-281 -175v86l167 100l-167 101v88l281 -175v-25zM76 104v-72h281v72h-281z" />
    <glyph glyph-name="infinity" unicode="&#x221e;" horiz-adv-x="832" 
d="M684.5 482q41.5 -22 64.5 -62t23 -91t-23 -91t-64.5 -62t-94.5 -22q-66 0 -108.5 35t-65.5 75q-23 -40 -65.5 -75t-108.5 -35q-53 0 -94.5 22t-64.5 62t-23 91t23 91t64.5 62t94.5 22q66 0 109 -35.5t65 -75.5q25 40 68.5 75.5t105.5 35.5q53 0 94.5 -22zM305 247
q28 20 43.5 43.5t20.5 38.5q-5 15 -20.5 38.5t-43.5 43.5t-65 20q-49 0 -77 -27.5t-28 -74.5t28 -74.5t77 -27.5q37 0 65 20zM669 254.5q28 27.5 28 74.5t-28 74.5t-77 27.5q-37 0 -65 -20t-43.5 -43.5t-20.5 -38.5q5 -15 20.5 -38.5t43.5 -43.5t65 -20q49 0 77 27.5z" />
    <glyph glyph-name="integral" unicode="&#x222b;" horiz-adv-x="310" 
d="M265.5 713q16.5 -2 44.5 -9v-77q-19 11 -35 15t-37 3q-24 0 -39.5 -18t-15.5 -43v-650q0 -58 -34 -94t-85 -36q-26 0 -42 2t-43 8v77q19 -11 35 -15t37 -3q24 0 39.5 18t15.5 43v650q0 58 34 93.5t85 36.5q24 1 40.5 -1z" />
    <glyph glyph-name="less" unicode="&#x3c;" horiz-adv-x="424" 
d="M348 452v-88l-167 -101l167 -100v-86l-281 175v25z" />
    <glyph glyph-name="lessequal" unicode="&#x2264;" horiz-adv-x="424" 
d="M357 518v-88l-167 -101l167 -100v-86l-281 175v25zM76 32h281v72h-281v-72z" />
    <glyph glyph-name="logicalnot" unicode="&#xac;" horiz-adv-x="600" 
d="M503 109h-75v152h-348v76h423v-228z" />
    <glyph glyph-name="minus" unicode="&#x2212;" horiz-adv-x="524" 
d="M80 337v-76h364v76h-364z" />
    <glyph glyph-name="multiply" unicode="&#xd7;" horiz-adv-x="524" 
d="M316 299l102 -102l-54 -54l-102 102l-102 -102l-54 54l102 102l-102 102l54 54l102 -102l102 102l54 -54z" />
    <glyph glyph-name="notequal" unicode="&#x2260;" horiz-adv-x="522" 
d="M300 332l-25 -90h168v-75h-189l-29 -103h-59l29 103h-116v75h137l25 90h-162v75h183l29 103h59l-29 -103h122v-75h-143z" />
    <glyph glyph-name="partialdiff" unicode="&#x2202;" horiz-adv-x="562" 
d="M110 659q144 -35 214 -94t90 -161q-54 80 -158 80q-101 0 -150 -70t-49 -176q0 -64 21.5 -121t70.5 -94t126 -37q116 0 166.5 77t50.5 198q0 139 -30.5 230t-112.5 152t-235 91zM375.5 363.5q33.5 -52.5 33.5 -125.5t-32.5 -128t-101.5 -55t-102.5 54.5t-33.5 128.5
t32.5 126t101.5 52t102.5 -52.5z" />
    <glyph glyph-name="percent" unicode="%" horiz-adv-x="730" 
d="M83.5 655.5q-36.5 -48.5 -36.5 -124.5t36.5 -124t103.5 -48t103.5 47.5t36.5 124.5q0 76 -37 124.5t-103 48.5q-67 0 -103.5 -48.5zM606 700l-407 -700h-75l407 700h75zM241.5 613q15.5 -36 15.5 -82q0 -48 -16.5 -82.5t-53.5 -34.5q-36 0 -53 34t-17 83q0 51 16 84.5
t54 33.5q39 0 54.5 -36zM441.5 292.5q-36.5 -48.5 -36.5 -124.5t36.5 -124.5t102.5 -48.5q67 0 103.5 47.5t36.5 125.5q0 76 -36.5 124.5t-103.5 48.5q-66 0 -102.5 -48.5zM598.5 249q15.5 -36 15.5 -81q0 -49 -16 -83.5t-54 -34.5q-36 0 -53 34t-17 84t16 83.5t54 33.5
q39 0 54.5 -36z" />
    <glyph glyph-name="perthousand" unicode="&#x2030;" horiz-adv-x="1074" 
d="M83.5 655.5q-36.5 -48.5 -36.5 -124.5t36.5 -124t103.5 -48t103.5 47.5t36.5 124.5q0 76 -37 124.5t-103 48.5q-67 0 -103.5 -48.5zM606 700l-407 -700h-75l407 700h75zM241.5 613q15.5 -36 15.5 -82q0 -48 -16.5 -82.5t-53.5 -34.5q-36 0 -53 34t-17 83q0 51 16 84.5
t54 33.5q39 0 54.5 -36zM441.5 292.5q-36.5 -48.5 -36.5 -124.5t36.5 -124.5t102.5 -48.5q67 0 103.5 47.5t36.5 125.5q0 76 -36.5 124.5t-103.5 48.5q-66 0 -102.5 -48.5zM785.5 292.5q-36.5 -48.5 -36.5 -124.5t36.5 -124.5t102.5 -48.5q67 0 103.5 47.5t36.5 125.5
q0 76 -36.5 124.5t-103.5 48.5q-66 0 -102.5 -48.5zM598.5 249q15.5 -36 15.5 -81q0 -49 -16 -83.5t-54 -34.5q-36 0 -53 34t-17 84t16 83.5t54 33.5q39 0 54.5 -36zM942.5 249q15.5 -36 15.5 -81q0 -49 -16 -83.5t-54 -34.5q-36 0 -53 34t-17 84t16 83.5t54 33.5
q39 0 54.5 -36z" />
    <glyph glyph-name="plus" unicode="+" horiz-adv-x="524" 
d="M302 215h142v75h-142v142h-79v-142h-143v-75h143v-143h79v143z" />
    <glyph glyph-name="plusminus" unicode="&#xb1;" horiz-adv-x="524" 
d="M302 313h142v75h-142v142h-79v-142h-143v-75h143v-143h79v143zM80 75v-75h364v75h-364z" />
    <glyph glyph-name="product" unicode="&#x220f;" horiz-adv-x="652" 
d="M96 700h460v-896h-84v821h-292v-821h-84v896z" />
    <glyph glyph-name="radical" unicode="&#x221a;" horiz-adv-x="600" 
d="M307 -23h67l237 707l-67 22l-206 -609l-144 345l-150 -66l26 -65l82 35z" />
    <glyph glyph-name="summation" unicode="&#x2211;" horiz-adv-x="584" 
d="M45 657v43h495v-76h-382l191 -356l-207 -386h404v-78h-518v48l226 417z" />
    <glyph glyph-name="arrowup" unicode="&#x2191;" horiz-adv-x="497" 
d="M431 356l-148 148v-422h-69v422l-147 -148l-44 45l225 225l226 -225z" />
    <glyph glyph-name="uni2197" unicode="&#x2197;" horiz-adv-x="513" 
d="M378 227v209l-298 -298l-49 49l299 298l-209 -1l1 63h318l1 -319z" />
    <glyph glyph-name="arrowright" unicode="&#x2192;" horiz-adv-x="622" 
d="M326 161l148 148h-422v69h422l-148 147l45 44l225 -225l-225 -226z" />
    <glyph glyph-name="uni2198" unicode="&#x2198;" horiz-adv-x="509" 
d="M126 214h209l-298 298l49 49l298 -299l-1 209l63 -1v-318l-319 -1z" />
    <glyph glyph-name="arrowdown" unicode="&#x2193;" horiz-adv-x="497" 
d="M60 337l148 -148v422h69v-422l147 148l44 -45l-225 -225l-226 225z" />
    <glyph glyph-name="uni2199" unicode="&#x2199;" horiz-adv-x="509" 
d="M113 466v-209l298 298l49 -49l-299 -298l209 1l-1 -63h-318l-1 319z" />
    <glyph glyph-name="arrowleft" unicode="&#x2190;" horiz-adv-x="622" 
d="M309 525l-148 -148h422v-69h-422l148 -147l-45 -44l-225 225l225 226z" />
    <glyph glyph-name="uni2196" unicode="&#x2196;" horiz-adv-x="513" 
d="M367 484h-209l298 -298l-49 -49l-298 299l1 -209l-63 1v318l319 1z" />
    <glyph glyph-name="lozenge" unicode="&#x25ca;" horiz-adv-x="549" 
d="M258 696h32l214 -344l-214 -345h-32l-212 345zM140 351l134 -226l138 226l-138 226z" />
    <glyph glyph-name="bar" unicode="|" horiz-adv-x="264" 
d="M168 785v-977h-72v977h72z" />
    <glyph glyph-name="brokenbar" unicode="&#xa6;" horiz-adv-x="264" 
d="M168 785v-445h-72v445h72zM168 266v-457h-72v457h72z" />
    <glyph glyph-name="at" unicode="@" horiz-adv-x="843" 
d="M569 174q-1 -7 -1 -20q0 -52 43 -52q47 0 74 56t27 128q0 79 -35 139t-96.5 93t-138.5 33q-92 0 -164 -46.5t-111 -123.5t-39 -166q0 -81 33 -143.5t92.5 -97t136.5 -34.5q52 0 110 14t113 38l12 -75q-114 -48 -233 -48q-113 0 -189 47t-113 126t-37 175
q0 113 49.5 205.5t138 146t201.5 53.5q100 0 178 -42t122.5 -118.5t44.5 -177.5q0 -72 -23 -130.5t-64.5 -91.5t-94.5 -33q-38 0 -65 17t-39 48q-21 -30 -58.5 -49.5t-80.5 -19.5q-74 0 -111 56.5t-37 136.5q0 67 26 125t73.5 93t108.5 35q65 0 102 -45l4 33h79zM444 126
q28 27 43 69.5t15 88.5q0 49 -18.5 81t-62.5 32q-57 0 -89.5 -55.5t-32.5 -129.5q0 -50 18 -81.5t60 -31.5q39 0 67 27z" />
    <glyph glyph-name="ampersand" unicode="&#x26;" horiz-adv-x="666" 
d="M156 672.5q49 41.5 128 41.5q69 0 114 -35.5t45 -102.5q0 -36 -20.5 -67t-49 -54.5t-83.5 -62.5l178 -200q28 51 44 105t16 80h72q-3 -50 -23.5 -117t-58.5 -125l121 -135h-102l-67 74q-86 -88 -206 -88q-60 0 -109 21t-78.5 64t-29.5 106q0 72 37 121.5t102 93.5
q-37 43 -58 82t-21 80q0 77 49 118.5zM333 502q28 31 28 73q0 34 -24 56.5t-58 22.5q-38 0 -66 -25.5t-28 -73.5q0 -26 21 -59t45 -61q54 36 82 67zM158 266.5q-25 -40.5 -25 -89.5q0 -58 37 -90t96 -32q88 0 156 73l-194 216q-45 -37 -70 -77.5z" />
    <glyph glyph-name="paragraph" unicode="&#xb6;" horiz-adv-x="518" 
d="M456 700v-923h-74v847h-136v-847h-74l-1 569q-54 0 -92.5 25t-58.5 65.5t-20 85.5q0 46 20 87t60 66t97 25h239h40z" />
    <glyph glyph-name="copyright" unicode="&#xa9;" horiz-adv-x="859" 
d="M614 667.5q85 -49.5 134.5 -134t49.5 -184.5t-49.5 -184.5t-134.5 -134t-185 -49.5t-184.5 49.5t-134 134t-49.5 184.5t49.5 184.5t134 134t184.5 49.5t185 -49.5zM578 81q69 42 110 113.5t41 154.5t-41 154.5t-110 114t-149 42.5t-148.5 -42.5t-109.5 -114t-41 -154.5
t41 -154.5t110 -113.5t148 -42q80 0 149 42zM251 458.5q26 51.5 73.5 82.5t110.5 31q51 0 99 -29l-1 -59q-16 14 -38.5 21.5t-47.5 7.5q-47 0 -81.5 -23t-53 -61t-18.5 -81q0 -76 42 -119t105 -43q54 0 104 29v-59q-58 -30 -113 -29q-70 0 -116.5 30.5t-68.5 80.5t-22 109
q0 60 26 111.5z" />
    <glyph glyph-name="registered" unicode="&#xae;" horiz-adv-x="666" 
d="M194.5 199q-63.5 37 -100.5 100.5t-37 138.5t37 138.5t100.5 100.5t138.5 37t138.5 -37t100.5 -100.5t37 -138.5t-37 -138.5t-100.5 -100.5t-138.5 -37t-138.5 37zM443 249q50 29 79 79t29 110t-29 110t-79 79t-110 29t-110 -29t-79 -79t-29 -110t29 -110t79 -79t110 -29
t110 29zM338 444q28 0 42.5 14t14.5 41q0 52 -57 52h-49v-265h-50v301h99q52 0 80.5 -23t28.5 -65q0 -34 -19 -56t-54 -30l91 -127h-57l-90 130v28h20z" />
    <glyph glyph-name="uni2117" unicode="&#x2117;" horiz-adv-x="859" 
d="M614 667.5q85 -49.5 134.5 -134t49.5 -184.5t-49.5 -184.5t-134.5 -134t-185 -49.5t-184.5 49.5t-134 134t-49.5 184.5t49.5 184.5t134 134t184.5 49.5t185 -49.5zM578 81q69 42 110 113.5t41 154.5t-41 154.5t-110 114t-149 42.5t-148.5 -42.5t-109.5 -114t-41 -154.5
t41 -154.5t110 -113.5t148 -42q80 0 149 42zM444 559q75 0 118 -37.5t43 -102.5q0 -67 -42 -103.5t-119 -36.5h-45v-163h-71v443h116zM399 345h45q87 0 87 74q0 37 -22 56t-65 19h-45v-149z" />
    <glyph glyph-name="section" unicode="&#xa7;" horiz-adv-x="482" 
d="M312.5 167q-28.5 15 -88.5 32q-54 14 -87.5 28t-57 41t-23.5 71q0 66 62 117q-52 37 -52 104t48 103.5t137 36.5q43 0 81 -7.5t57 -15.5l-22 -67q-2 1 -32.5 8.5t-75.5 7.5q-52 0 -79.5 -16.5t-27.5 -46.5t27 -45t85 -32q52 -15 83.5 -29t54 -40.5t22.5 -70.5
q0 -64 -55 -112q32 -20 47 -47t15 -64q0 -69 -53 -106t-151 -37q-41 0 -77 6t-57.5 12t-26.5 8l22 70q21 -6 56.5 -13t76.5 -7q58 0 89 17t31 48t-28.5 46zM140 350q0 -30 27 -44.5t85 -28.5l44 -12q19 15 31.5 31t12.5 38q0 29 -25.5 43.5t-78.5 28.5l-48 15
q-48 -33 -48 -71z" />
    <glyph glyph-name="trademark" unicode="&#x2122;" horiz-adv-x="667" 
d="M545 446l-31 101l-40 -76h-42l-40 76l-31 -101h-77l76 256h39l54 -103l54 103h39l76 -256h-77zM16 700h257v-70h-90v-184h-77v184h-90v70z" />
    <glyph glyph-name="degree" unicode="&#xb0;" horiz-adv-x="358" 
d="M70 676.5q15 28.5 43.5 46.5t67.5 18q57 0 89.5 -36t32.5 -85t-32.5 -85t-89.5 -36q-60 0 -93 34.5t-33 83.5q0 31 15 59.5zM229 667q-17 20 -49 20t-50 -20.5t-18 -48.5q0 -27 17.5 -46.5t50.5 -19.5q32 0 49 19.5t17 47.5t-17 48z" />
    <glyph glyph-name="estimated" unicode="&#x212e;" horiz-adv-x="808" 
d="M553 17q-65 -27 -141 -27q-95 0 -176 47.5t-128.5 128.5t-47.5 176t47.5 176t128.5 128.5t176 47.5t176 -47.5t128.5 -128.5t47.5 -176v-24h-544v-218q42 -32 91.5 -49.5t100.5 -17.5q50 0 97.5 16.5t89.5 45.5h67q-48 -51 -113 -78zM513.5 633.5q-49.5 17.5 -101.5 17.5
q-51 0 -100.5 -17.5t-91.5 -49.5v-222h384v221q-41 33 -90.5 50.5z" />
    <glyph glyph-name="uni2113" unicode="&#x2113;" horiz-adv-x="461" 
d="M425 70q0 -3 -24 -25t-64.5 -40.5t-93.5 -18.5q-70 0 -101 42t-31 141v5q-22 -12 -64 -33l-27 65q37 16 91 51v229q0 117 38.5 172.5t120.5 55.5q74 0 111.5 -41.5t37.5 -115.5q0 -88 -54.5 -168.5t-166.5 -160.5v-80q0 -44 15.5 -64.5t49.5 -20.5q29 0 54.5 12t43 26.5
t17.5 16.5zM216 606q-18 -32 -18 -99v-181q75 68 105.5 117.5t30.5 108.5q0 86 -61 86q-39 0 -57 -32z" />
    <glyph glyph-name="uni2116" unicode="&#x2116;" horiz-adv-x="978" 
d="M108 712l388 -503v491h84v-713h-18l-388 501v-488h-84v712h18zM695.5 663.5q-36.5 -48.5 -36.5 -124.5t36.5 -124t103.5 -48q66 0 102.5 47.5t36.5 124.5q0 76 -36.5 124.5t-102.5 48.5q-67 0 -103.5 -48.5zM851 625.5q18 -31.5 18 -86.5q0 -48 -16.5 -82.5t-53.5 -34.5
t-53.5 33.5t-16.5 83.5q0 51 16 84.5t54 33.5q34 0 52 -31.5zM919 294v-60h-241v60h241z" />
    <glyph glyph-name="asciicircum" unicode="^" horiz-adv-x="518" 
d="M258 636l-125 -197h-94l203 296h32l204 -296h-92z" />
    <glyph glyph-name="dagger" unicode="&#x2020;" horiz-adv-x="570" 
d="M533 432h-211v-537h-72v537h-193v72h193v196h72v-196h211v-72z" />
    <glyph glyph-name="daggerdbl" unicode="&#x2021;" horiz-adv-x="570" 
d="M322 432v-269h211v-72h-211v-196h-72v196h-193v72h193v269h-193v72h193v196h72v-196h211v-72h-211z" />
    <glyph glyph-name="acutecomb" unicode="&#x301;" horiz-adv-x="0" 
d="M-177 851l-147 -103l-36 41l136 117z" />
    <glyph glyph-name="uni0306" unicode="&#x306;" horiz-adv-x="0" 
d="M-343 877q8 -30 31.5 -47t51.5 -17t51.5 17t30.5 47l54 -14q-11 -53 -50 -82t-87 -29t-85.5 29t-48.5 82z" />
    <glyph glyph-name="uni030C" unicode="&#x30c;" horiz-adv-x="0" 
d="M-187 858l-134 -107h-18l-136 106l32 41l114 -77l112 77z" />
    <glyph glyph-name="uni0327" unicode="&#x327;" horiz-adv-x="0" 
d="M-355 -209q41 0 65 25.5t24 59.5q0 29 -18.5 50.5t-55.5 26.5l19 45l-46 2l-31 -80q26 -1 48.5 -9.5t22.5 -29.5q0 -3 -2 -13q-3 -10 -12 -16.5t-23 -7.5q-15 0 -31 6.5t-24 15.5l-20 -45q38 -30 84 -30z" />
    <glyph glyph-name="uni0302" unicode="&#x302;" horiz-adv-x="0" 
d="M-329 828l-114 -77l-32 41l136 106h18l134 -107l-30 -40z" />
    <glyph glyph-name="uni0326" unicode="&#x326;" horiz-adv-x="0" 
d="M-79 -116q0 28 -8 41t-34 13t-35.5 -13t-9.5 -38q0 -22 7.5 -36t26.5 -16q0 -19 -9 -38.5t-23 -33.5l39 -13q46 50 46 134z" />
    <glyph glyph-name="uni0312" unicode="&#x312;" horiz-adv-x="0" 
d="M-166 830q0 -28 8 -41t34 -13t35.5 13t9.5 38q0 22 -7.5 36t-26.5 16q0 19 9 38.5t23 33.5l-39 13q-46 -50 -46 -134z" />
    <glyph glyph-name="uni0308" unicode="&#x308;" horiz-adv-x="0" 
d="M-433 793q-12 8 -12 34q0 24 13 33t36 9t36 -9t13 -33q0 -26 -12 -34t-37 -8t-37 8zM-248 793q-12 8 -12 34q0 24 13 33t36 9t36.5 -9t13.5 -33q0 -26 -12.5 -34t-37.5 -8t-37 8z" />
    <glyph glyph-name="uni0307" unicode="&#x307;" horiz-adv-x="0" 
d="M-437 789.5q-13 8.5 -13 37.5q0 26 14.5 36t39.5 10q26 0 40 -10t14 -36q0 -29 -13 -37.5t-41 -8.5t-41 8.5z" />
    <glyph glyph-name="gravecomb" unicode="&#x300;" horiz-adv-x="0" 
d="M-418 908l136 -117l-36 -41l-148 102z" />
    <glyph glyph-name="uni030B" unicode="&#x30b;" horiz-adv-x="0" 
d="M-291 876l-88 -126l-48 27l73 135zM-151 876l-88 -126l-48 27l73 135z" />
    <glyph glyph-name="uni0304" unicode="&#x304;" horiz-adv-x="0" 
d="M-424 872v-62h281v62h-281z" />
    <glyph glyph-name="uni0328" unicode="&#x328;" horiz-adv-x="0" 
d="M-353.5 -66.5q-15.5 -33.5 -15.5 -64.5q0 -36 17 -58t53 -22q19 0 39.5 7t34.5 18l-9 54q-9 -7 -22 -11.5t-24 -4.5q-16 0 -23.5 9.5t-7.5 24.5q0 26 21 59t45 55h-59q-34 -33 -49.5 -66.5z" />
    <glyph glyph-name="uni030A" unicode="&#x30a;" horiz-adv-x="0" 
d="M-194.5 755q-31.5 -27 -77.5 -27t-79.5 25.5t-33.5 72.5t32.5 73.5t77.5 26.5t78.5 -26.5t33.5 -73.5q0 -44 -31.5 -71zM-233.5 868.5q-17.5 14.5 -41.5 14.5q-23 0 -40 -15t-17 -42q0 -26 17.5 -40t40.5 -14q24 0 41 14t17 40q0 28 -17.5 42.5z" />
    <glyph glyph-name="tildecomb" unicode="&#x303;" horiz-adv-x="0" 
d="M-431 811q15 36 34.5 52.5t44.5 16.5q29 0 71 -21q30 -16 46 -16q24 0 39 33l43 -23q-16 -35 -35 -51.5t-43 -16.5q-25 0 -63 19q-18 9 -29.5 13.5t-22.5 4.5q-27 0 -43 -35z" />
    <glyph glyph-name="acute" unicode="&#xb4;" horiz-adv-x="600" 
d="M423 851l-147 -103l-36 41l136 117z" />
    <glyph glyph-name="breve" unicode="&#x2d8;" horiz-adv-x="600" 
d="M257 877q8 -30 31.5 -47t51.5 -17t51.5 17t30.5 47l54 -14q-11 -53 -50 -82t-87 -29t-85.5 29t-48.5 82z" />
    <glyph glyph-name="caron" unicode="&#x2c7;" horiz-adv-x="600" 
d="M413 858l-134 -107h-18l-136 106l32 41l114 -77l112 77z" />
    <glyph glyph-name="cedilla" unicode="&#xb8;" horiz-adv-x="600" 
d="M245 -209q41 0 65 25.5t24 59.5q0 29 -18.5 50.5t-55.5 26.5l19 45l-46 2l-31 -80q26 -1 48.5 -9.5t22.5 -29.5q0 -3 -2 -13q-3 -10 -12 -16.5t-23 -7.5q-15 0 -31 6.5t-24 15.5l-20 -45q38 -30 84 -30z" />
    <glyph glyph-name="circumflex" unicode="&#x2c6;" horiz-adv-x="600" 
d="M271 828l-114 -77l-32 41l136 106h18l134 -107l-30 -40z" />
    <glyph glyph-name="dieresis" unicode="&#xa8;" horiz-adv-x="600" 
d="M167 793q-12 8 -12 34q0 24 13 33t36 9t36 -9t13 -33q0 -26 -12 -34t-37 -8t-37 8zM352 793q-12 8 -12 34q0 24 13 33t36 9t36.5 -9t13.5 -33q0 -26 -12.5 -34t-37.5 -8t-37 8z" />
    <glyph glyph-name="dotaccent" unicode="&#x2d9;" horiz-adv-x="600" 
d="M163 789.5q-13 8.5 -13 37.5q0 26 14.5 36t39.5 10q26 0 40 -10t14 -36q0 -29 -13 -37.5t-41 -8.5t-41 8.5z" />
    <glyph glyph-name="grave" unicode="`" horiz-adv-x="600" 
d="M182 908l136 -117l-36 -41l-148 102z" />
    <glyph glyph-name="macron" unicode="&#xaf;" horiz-adv-x="600" 
d="M176 872v-62h281v62h-281z" />
    <glyph glyph-name="ogonek" unicode="&#x2db;" horiz-adv-x="600" 
d="M246.5 -66.5q-15.5 -33.5 -15.5 -64.5q0 -36 17 -58t53 -22q19 0 39.5 7t34.5 18l-9 54q-9 -7 -22 -11.5t-24 -4.5q-16 0 -23.5 9.5t-7.5 24.5q0 26 21 59t45 55h-59q-34 -33 -49.5 -66.5z" />
    <glyph glyph-name="ring" unicode="&#x2da;" horiz-adv-x="600" 
d="M405.5 755q-31.5 -27 -77.5 -27t-79.5 25.5t-33.5 72.5t32.5 73.5t77.5 26.5t78.5 -26.5t33.5 -73.5q0 -44 -31.5 -71zM366.5 868.5q-17.5 14.5 -41.5 14.5q-23 0 -40 -15t-17 -42q0 -26 17.5 -40t40.5 -14q24 0 41 14t17 40q0 28 -17.5 42.5z" />
    <glyph glyph-name="tilde" unicode="&#x2dc;" horiz-adv-x="600" 
d="M169 811q15 36 34.5 52.5t44.5 16.5q29 0 71 -21q30 -16 46 -16q24 0 39 33l43 -23q-16 -35 -35 -51.5t-43 -16.5q-25 0 -63 19q-18 9 -29.5 13.5t-22.5 4.5q-27 0 -43 -35z" />
    <glyph glyph-name="hungarumcomblautcomb" horiz-adv-x="600" 
 />
    <glyph glyph-name="brevecy" horiz-adv-x="600" 
 />
    </font>
</defs>
</svg>
